G04 EAGLE Gerber RS-274X export*
G75*
%MOMM*%
%FSLAX34Y34*%
%LPD*%
%INBottom Copper*%
%IPPOS*%
%AMOC8*
5,1,8,0,0,1.08239X$1,22.5*%
G01*
G04 Define Apertures*
%ADD10C,1.408000*%
%ADD11P,2.08945X8X22.5*%
%ADD12C,1.524000*%
%ADD13C,1.676400*%
%ADD14C,1.778000*%
%ADD15R,1.408000X1.408000*%
%ADD16C,1.408000*%
%ADD17C,0.152400*%
D10*
X18360Y50800D02*
X32440Y50800D01*
X32440Y76200D02*
X18360Y76200D01*
X18360Y101600D02*
X32440Y101600D01*
X32440Y127000D02*
X18360Y127000D01*
D11*
X609600Y25400D03*
X609600Y50800D03*
X609600Y76200D03*
X609600Y101600D03*
X609600Y127000D03*
X635000Y25400D03*
X635000Y50800D03*
D12*
X523494Y48768D02*
X523494Y64008D01*
X568706Y64008D02*
X568706Y48768D01*
X523494Y113792D02*
X523494Y129032D01*
X568706Y129032D02*
X568706Y113792D01*
D13*
X431800Y76200D03*
X457200Y127000D03*
X482600Y76200D03*
D11*
X946150Y1524D03*
X946150Y26924D03*
X971550Y52324D03*
X971550Y77724D03*
X971550Y1524D03*
X971550Y26924D03*
D14*
X1028700Y0D03*
X1054100Y0D03*
X1079500Y0D03*
X1104900Y0D03*
X-38862Y127000D03*
X-38862Y101600D03*
X-38862Y76200D03*
X-38862Y50800D03*
D15*
X1079500Y146050D03*
D16*
X1104500Y146050D03*
D17*
X504952Y100584D02*
X25400Y100584D01*
X25400Y101600D01*
X504952Y100584D02*
X518668Y86868D01*
X598932Y86868D02*
X609600Y76200D01*
X598932Y86868D02*
X518668Y86868D01*
X25400Y101600D02*
X-38862Y101600D01*
X971550Y1524D02*
X992124Y1524D01*
X1009650Y19050D01*
X1041400Y19050D01*
X1054100Y6350D01*
X1054100Y0D01*
X609600Y50800D02*
X584962Y26162D01*
X405853Y76200D02*
X25400Y76200D01*
X455891Y26162D02*
X584962Y26162D01*
X455891Y26162D02*
X418572Y63480D01*
X405853Y76200D01*
X418572Y63480D02*
X431292Y76200D01*
X431800Y76200D01*
X482600Y152400D02*
X609600Y152400D01*
X482600Y152400D02*
X457200Y127000D01*
X609600Y152400D02*
X623316Y138684D01*
X623316Y65010D01*
X635000Y53326D01*
X635000Y50800D01*
X25400Y127000D02*
X-38862Y127000D01*
X971550Y52324D02*
X996950Y52324D01*
X1079500Y134874D02*
X1079500Y146050D01*
X1079500Y134874D02*
X996950Y52324D01*
X946150Y1524D02*
X961390Y-13716D01*
X1016000Y-13716D01*
X1028700Y-1016D01*
X1028700Y0D01*
X946150Y26924D02*
X927100Y7874D01*
X927100Y-6350D01*
X939800Y-19050D01*
X1060450Y-19050D01*
X1079500Y0D01*
X1090676Y26924D02*
X971550Y26924D01*
X1090676Y26924D02*
X1104900Y12700D01*
X1104900Y0D01*
M02*
