G04 EAGLE Gerber RS-274X export*
G75*
%MOMM*%
%FSLAX34Y34*%
%LPD*%
%INSilkscreen Top*%
%IPPOS*%
%AMOC8*
5,1,8,0,0,1.08239X$1,22.5*%
G01*
G04 Define Apertures*
%ADD10C,0.127000*%
%ADD11C,0.152400*%
%ADD12C,0.050800*%
%ADD13C,0.609600*%
%ADD14C,0.203200*%
%ADD15C,0.200000*%
G36*
X-14670Y41060D02*
X-14994Y41072D01*
X-15302Y41107D01*
X-15596Y41166D01*
X-15876Y41248D01*
X-16141Y41353D01*
X-16391Y41482D01*
X-16626Y41634D01*
X-16847Y41809D01*
X-17056Y42012D01*
X-17254Y42246D01*
X-17444Y42512D01*
X-17623Y42809D01*
X-17793Y43137D01*
X-17953Y43497D01*
X-18103Y43888D01*
X-18244Y44310D01*
X-18670Y44343D01*
X-19081Y44398D01*
X-19477Y44475D01*
X-19859Y44574D01*
X-20225Y44695D01*
X-20577Y44838D01*
X-20913Y45003D01*
X-21235Y45190D01*
X-21540Y45398D01*
X-21826Y45625D01*
X-22094Y45872D01*
X-22343Y46138D01*
X-22573Y46424D01*
X-22785Y46729D01*
X-22978Y47053D01*
X-23153Y47397D01*
X-23308Y47758D01*
X-23442Y48133D01*
X-23556Y48522D01*
X-23649Y48925D01*
X-23721Y49342D01*
X-23773Y49773D01*
X-23804Y50218D01*
X-23814Y50677D01*
X-23808Y51042D01*
X-23789Y51397D01*
X-23757Y51742D01*
X-23713Y52077D01*
X-23656Y52401D01*
X-23586Y52716D01*
X-23504Y53020D01*
X-23409Y53315D01*
X-23302Y53599D01*
X-23181Y53873D01*
X-23048Y54137D01*
X-22903Y54391D01*
X-22574Y54869D01*
X-22194Y55306D01*
X-21769Y55697D01*
X-21542Y55873D01*
X-21304Y56036D01*
X-21057Y56186D01*
X-20800Y56323D01*
X-20533Y56447D01*
X-20256Y56558D01*
X-19969Y56655D01*
X-19672Y56740D01*
X-19366Y56812D01*
X-19049Y56870D01*
X-18723Y56916D01*
X-18386Y56949D01*
X-18040Y56968D01*
X-17683Y56975D01*
X-17220Y56963D01*
X-16773Y56928D01*
X-16341Y56869D01*
X-15925Y56788D01*
X-15524Y56682D01*
X-15140Y56553D01*
X-14770Y56401D01*
X-14416Y56226D01*
X-14081Y56028D01*
X-13765Y55809D01*
X-13470Y55569D01*
X-13196Y55307D01*
X-12941Y55025D01*
X-12708Y54721D01*
X-12494Y54396D01*
X-12301Y54049D01*
X-12130Y53684D01*
X-11981Y53303D01*
X-11856Y52906D01*
X-11753Y52493D01*
X-11673Y52063D01*
X-11616Y51617D01*
X-11581Y51155D01*
X-11570Y50677D01*
X-11590Y50039D01*
X-11652Y49430D01*
X-11755Y48850D01*
X-11898Y48299D01*
X-12083Y47777D01*
X-12309Y47284D01*
X-12576Y46821D01*
X-12884Y46386D01*
X-13228Y45987D01*
X-13605Y45631D01*
X-14013Y45318D01*
X-14454Y45048D01*
X-14926Y44821D01*
X-15431Y44637D01*
X-15967Y44496D01*
X-16536Y44397D01*
X-16342Y43884D01*
X-16121Y43447D01*
X-16000Y43258D01*
X-15872Y43087D01*
X-15737Y42936D01*
X-15594Y42803D01*
X-15444Y42688D01*
X-15284Y42589D01*
X-15114Y42505D01*
X-14934Y42436D01*
X-14745Y42382D01*
X-14546Y42344D01*
X-14337Y42321D01*
X-14119Y42313D01*
X-13875Y42320D01*
X-13626Y42341D01*
X-13111Y42427D01*
X-13111Y41253D01*
X-13514Y41169D01*
X-13908Y41109D01*
X-14294Y41073D01*
X-14670Y41060D01*
G37*
%LPC*%
G36*
X-17701Y45632D02*
X-17182Y45653D01*
X-16694Y45715D01*
X-16238Y45818D01*
X-15812Y45962D01*
X-15418Y46147D01*
X-15054Y46374D01*
X-14722Y46642D01*
X-14421Y46951D01*
X-14153Y47297D01*
X-13921Y47678D01*
X-13724Y48093D01*
X-13564Y48541D01*
X-13438Y49024D01*
X-13349Y49541D01*
X-13296Y50092D01*
X-13278Y50677D01*
X-13296Y51238D01*
X-13350Y51767D01*
X-13440Y52266D01*
X-13566Y52733D01*
X-13728Y53170D01*
X-13926Y53576D01*
X-14160Y53951D01*
X-14430Y54295D01*
X-14732Y54603D01*
X-15065Y54869D01*
X-15427Y55095D01*
X-15819Y55280D01*
X-16240Y55424D01*
X-16692Y55526D01*
X-17173Y55588D01*
X-17683Y55608D01*
X-18198Y55588D01*
X-18683Y55527D01*
X-19138Y55426D01*
X-19562Y55284D01*
X-19956Y55102D01*
X-20321Y54879D01*
X-20655Y54616D01*
X-20959Y54312D01*
X-21230Y53972D01*
X-21465Y53599D01*
X-21664Y53193D01*
X-21826Y52755D01*
X-21953Y52285D01*
X-22043Y51781D01*
X-22097Y51246D01*
X-22115Y50677D01*
X-22097Y50112D01*
X-22042Y49577D01*
X-21951Y49071D01*
X-21823Y48596D01*
X-21658Y48151D01*
X-21457Y47735D01*
X-21220Y47350D01*
X-20946Y46994D01*
X-20639Y46675D01*
X-20305Y46399D01*
X-19941Y46164D01*
X-19550Y45973D01*
X-19130Y45824D01*
X-18682Y45718D01*
X-18206Y45654D01*
X-17701Y45632D01*
G37*
%LPD*%
G36*
X-5725Y44275D02*
X-6182Y44288D01*
X-6615Y44328D01*
X-7024Y44394D01*
X-7410Y44486D01*
X-7772Y44605D01*
X-8111Y44750D01*
X-8425Y44922D01*
X-8716Y45120D01*
X-8981Y45344D01*
X-9218Y45593D01*
X-9426Y45868D01*
X-9606Y46168D01*
X-9758Y46493D01*
X-9881Y46844D01*
X-9976Y47219D01*
X-10043Y47621D01*
X-8414Y47769D01*
X-8367Y47504D01*
X-8303Y47256D01*
X-8224Y47025D01*
X-8128Y46812D01*
X-8016Y46615D01*
X-7888Y46435D01*
X-7744Y46273D01*
X-7584Y46127D01*
X-7408Y45999D01*
X-7216Y45888D01*
X-7008Y45794D01*
X-6783Y45717D01*
X-6543Y45657D01*
X-6286Y45614D01*
X-6014Y45588D01*
X-5725Y45580D01*
X-5435Y45589D01*
X-5162Y45617D01*
X-4904Y45662D01*
X-4662Y45727D01*
X-4436Y45809D01*
X-4227Y45910D01*
X-4033Y46029D01*
X-3855Y46167D01*
X-3696Y46322D01*
X-3558Y46496D01*
X-3442Y46687D01*
X-3346Y46896D01*
X-3272Y47123D01*
X-3219Y47367D01*
X-3187Y47629D01*
X-3177Y47910D01*
X-3189Y48155D01*
X-3225Y48386D01*
X-3286Y48603D01*
X-3370Y48806D01*
X-3479Y48996D01*
X-3613Y49172D01*
X-3770Y49334D01*
X-3952Y49482D01*
X-4156Y49614D01*
X-4382Y49729D01*
X-4630Y49826D01*
X-4899Y49905D01*
X-5189Y49967D01*
X-5501Y50011D01*
X-5835Y50038D01*
X-6189Y50047D01*
X-7083Y50047D01*
X-7083Y51413D01*
X-6224Y51413D01*
X-5910Y51422D01*
X-5613Y51448D01*
X-5334Y51492D01*
X-5074Y51554D01*
X-4832Y51634D01*
X-4608Y51731D01*
X-4402Y51846D01*
X-4214Y51978D01*
X-4047Y52126D01*
X-3902Y52288D01*
X-3779Y52463D01*
X-3679Y52651D01*
X-3601Y52853D01*
X-3545Y53069D01*
X-3512Y53299D01*
X-3501Y53541D01*
X-3510Y53782D01*
X-3537Y54010D01*
X-3582Y54225D01*
X-3646Y54427D01*
X-3728Y54616D01*
X-3828Y54792D01*
X-3947Y54955D01*
X-4083Y55105D01*
X-4237Y55239D01*
X-4410Y55356D01*
X-4599Y55454D01*
X-4807Y55535D01*
X-5032Y55598D01*
X-5274Y55643D01*
X-5535Y55669D01*
X-5813Y55678D01*
X-6067Y55670D01*
X-6309Y55645D01*
X-6538Y55603D01*
X-6755Y55545D01*
X-6960Y55470D01*
X-7152Y55378D01*
X-7332Y55269D01*
X-7499Y55144D01*
X-7651Y55004D01*
X-7787Y54850D01*
X-7906Y54682D01*
X-8008Y54500D01*
X-8093Y54305D01*
X-8161Y54096D01*
X-8213Y53874D01*
X-8248Y53638D01*
X-9833Y53760D01*
X-9775Y54129D01*
X-9689Y54476D01*
X-9574Y54803D01*
X-9431Y55109D01*
X-9260Y55394D01*
X-9060Y55659D01*
X-8832Y55902D01*
X-8576Y56125D01*
X-8296Y56324D01*
X-7997Y56497D01*
X-7678Y56643D01*
X-7340Y56762D01*
X-6983Y56855D01*
X-6606Y56922D01*
X-6210Y56961D01*
X-5795Y56975D01*
X-5344Y56961D01*
X-4919Y56921D01*
X-4519Y56853D01*
X-4145Y56759D01*
X-3798Y56638D01*
X-3476Y56489D01*
X-3180Y56314D01*
X-2909Y56112D01*
X-2668Y55886D01*
X-2459Y55638D01*
X-2282Y55370D01*
X-2138Y55080D01*
X-2025Y54768D01*
X-1945Y54436D01*
X-1896Y54083D01*
X-1880Y53708D01*
X-1891Y53419D01*
X-1922Y53144D01*
X-1973Y52883D01*
X-2046Y52636D01*
X-2139Y52403D01*
X-2252Y52183D01*
X-2387Y51977D01*
X-2542Y51785D01*
X-2716Y51608D01*
X-2910Y51445D01*
X-3122Y51297D01*
X-3353Y51165D01*
X-3602Y51047D01*
X-3871Y50944D01*
X-4158Y50856D01*
X-4464Y50782D01*
X-4464Y50747D01*
X-4128Y50700D01*
X-3810Y50634D01*
X-3512Y50547D01*
X-3233Y50441D01*
X-2974Y50315D01*
X-2733Y50169D01*
X-2512Y50004D01*
X-2309Y49819D01*
X-2129Y49618D01*
X-1972Y49404D01*
X-1840Y49178D01*
X-1731Y48939D01*
X-1647Y48687D01*
X-1587Y48423D01*
X-1551Y48146D01*
X-1539Y47857D01*
X-1556Y47442D01*
X-1607Y47051D01*
X-1691Y46685D01*
X-1810Y46342D01*
X-1963Y46023D01*
X-2150Y45729D01*
X-2370Y45458D01*
X-2625Y45212D01*
X-2911Y44992D01*
X-3226Y44802D01*
X-3570Y44641D01*
X-3943Y44509D01*
X-4345Y44407D01*
X-4776Y44333D01*
X-5236Y44290D01*
X-5725Y44275D01*
G37*
G36*
X6683Y69850D02*
X2067Y69850D01*
X2067Y82191D01*
X6148Y82191D01*
X6535Y82185D01*
X6910Y82166D01*
X7274Y82136D01*
X7627Y82093D01*
X7968Y82037D01*
X8299Y81970D01*
X8618Y81890D01*
X8926Y81798D01*
X9223Y81693D01*
X9508Y81577D01*
X9783Y81448D01*
X10046Y81306D01*
X10298Y81153D01*
X10539Y80987D01*
X10769Y80809D01*
X10987Y80619D01*
X11194Y80417D01*
X11387Y80205D01*
X11566Y79982D01*
X11733Y79750D01*
X11886Y79506D01*
X12025Y79253D01*
X12152Y78989D01*
X12265Y78715D01*
X12365Y78430D01*
X12451Y78135D01*
X12525Y77830D01*
X12584Y77514D01*
X12631Y77188D01*
X12664Y76851D01*
X12684Y76505D01*
X12691Y76147D01*
X12679Y75678D01*
X12644Y75223D01*
X12586Y74782D01*
X12505Y74357D01*
X12400Y73947D01*
X12272Y73552D01*
X12121Y73171D01*
X11946Y72806D01*
X11751Y72458D01*
X11535Y72132D01*
X11301Y71826D01*
X11046Y71541D01*
X10773Y71278D01*
X10480Y71035D01*
X10167Y70813D01*
X9836Y70612D01*
X9487Y70433D01*
X9126Y70279D01*
X8752Y70148D01*
X8364Y70040D01*
X7963Y69957D01*
X7550Y69898D01*
X7123Y69862D01*
X6683Y69850D01*
G37*
%LPC*%
G36*
X6490Y71190D02*
X6824Y71199D01*
X7148Y71227D01*
X7462Y71274D01*
X7765Y71339D01*
X8058Y71423D01*
X8341Y71525D01*
X8614Y71646D01*
X8877Y71786D01*
X9126Y71943D01*
X9361Y72116D01*
X9581Y72306D01*
X9786Y72513D01*
X9976Y72735D01*
X10152Y72975D01*
X10312Y73230D01*
X10457Y73502D01*
X10587Y73789D01*
X10699Y74088D01*
X10794Y74400D01*
X10871Y74724D01*
X10932Y75061D01*
X10975Y75411D01*
X11001Y75773D01*
X11009Y76147D01*
X10990Y76704D01*
X10931Y77227D01*
X10832Y77715D01*
X10695Y78170D01*
X10518Y78590D01*
X10302Y78976D01*
X10047Y79328D01*
X9752Y79646D01*
X9421Y79929D01*
X9054Y80173D01*
X8651Y80380D01*
X8214Y80550D01*
X7742Y80681D01*
X7234Y80775D01*
X6691Y80832D01*
X6113Y80851D01*
X3740Y80851D01*
X3740Y71190D01*
X6490Y71190D01*
G37*
%LPD*%
G36*
X-9382Y69850D02*
X-10871Y69850D01*
X-10871Y82191D01*
X-8926Y82191D01*
X-2252Y71610D01*
X-2331Y73091D01*
X-2357Y74098D01*
X-2357Y82191D01*
X-851Y82191D01*
X-851Y69850D01*
X-2865Y69850D01*
X-9469Y80360D01*
X-9426Y79511D01*
X-9382Y78048D01*
X-9382Y69850D01*
G37*
G36*
X-19159Y69675D02*
X-19635Y69687D01*
X-20093Y69723D01*
X-20536Y69783D01*
X-20961Y69868D01*
X-21370Y69976D01*
X-21762Y70108D01*
X-22137Y70265D01*
X-22496Y70446D01*
X-22836Y70649D01*
X-23155Y70873D01*
X-23454Y71119D01*
X-23732Y71386D01*
X-23989Y71674D01*
X-24226Y71984D01*
X-24442Y72314D01*
X-24637Y72666D01*
X-24811Y73036D01*
X-24961Y73423D01*
X-25088Y73825D01*
X-25193Y74244D01*
X-25274Y74678D01*
X-25331Y75128D01*
X-25366Y75595D01*
X-25378Y76077D01*
X-25371Y76448D01*
X-25352Y76807D01*
X-25321Y77156D01*
X-25277Y77495D01*
X-25220Y77822D01*
X-25151Y78140D01*
X-25069Y78446D01*
X-24975Y78742D01*
X-24868Y79027D01*
X-24748Y79302D01*
X-24616Y79566D01*
X-24471Y79820D01*
X-24314Y80063D01*
X-24144Y80295D01*
X-23766Y80728D01*
X-23343Y81114D01*
X-23116Y81288D01*
X-22879Y81449D01*
X-22631Y81596D01*
X-22374Y81732D01*
X-22106Y81854D01*
X-21828Y81963D01*
X-21540Y82060D01*
X-21242Y82143D01*
X-20933Y82214D01*
X-20615Y82272D01*
X-20286Y82317D01*
X-19947Y82349D01*
X-19597Y82368D01*
X-19238Y82375D01*
X-18738Y82364D01*
X-18261Y82331D01*
X-17809Y82277D01*
X-17381Y82202D01*
X-16977Y82104D01*
X-16597Y81986D01*
X-16241Y81845D01*
X-15910Y81683D01*
X-15599Y81497D01*
X-15307Y81285D01*
X-15033Y81047D01*
X-14778Y80783D01*
X-14540Y80493D01*
X-14322Y80177D01*
X-14121Y79835D01*
X-13939Y79467D01*
X-15533Y78994D01*
X-15671Y79248D01*
X-15821Y79484D01*
X-15983Y79702D01*
X-16158Y79903D01*
X-16346Y80085D01*
X-16545Y80250D01*
X-16758Y80397D01*
X-16983Y80527D01*
X-17221Y80640D01*
X-17473Y80737D01*
X-17739Y80820D01*
X-18019Y80888D01*
X-18314Y80941D01*
X-18622Y80978D01*
X-18945Y81001D01*
X-19282Y81008D01*
X-19800Y80988D01*
X-20287Y80928D01*
X-20743Y80827D01*
X-21167Y80685D01*
X-21560Y80504D01*
X-21921Y80282D01*
X-22250Y80019D01*
X-22549Y79717D01*
X-22813Y79377D01*
X-23043Y79005D01*
X-23237Y78599D01*
X-23396Y78161D01*
X-23520Y77689D01*
X-23608Y77185D01*
X-23661Y76648D01*
X-23678Y76077D01*
X-23660Y75508D01*
X-23603Y74970D01*
X-23510Y74462D01*
X-23378Y73985D01*
X-23210Y73539D01*
X-23003Y73124D01*
X-22760Y72739D01*
X-22479Y72386D01*
X-22164Y72068D01*
X-21821Y71794D01*
X-21449Y71561D01*
X-21049Y71371D01*
X-20619Y71223D01*
X-20161Y71117D01*
X-19675Y71054D01*
X-19159Y71032D01*
X-18565Y71055D01*
X-17991Y71124D01*
X-17437Y71239D01*
X-16904Y71400D01*
X-16405Y71601D01*
X-15957Y71834D01*
X-15558Y72100D01*
X-15209Y72399D01*
X-15209Y74623D01*
X-18896Y74623D01*
X-18896Y76025D01*
X-13667Y76025D01*
X-13667Y71768D01*
X-13920Y71526D01*
X-14186Y71297D01*
X-14465Y71083D01*
X-14759Y70882D01*
X-15066Y70696D01*
X-15388Y70524D01*
X-15723Y70366D01*
X-16072Y70222D01*
X-16431Y70094D01*
X-16798Y69983D01*
X-17173Y69889D01*
X-17555Y69812D01*
X-17945Y69752D01*
X-18342Y69709D01*
X-18747Y69683D01*
X-19159Y69675D01*
G37*
G36*
X-17753Y95075D02*
X-18302Y95087D01*
X-18822Y95124D01*
X-19311Y95185D01*
X-19771Y95271D01*
X-20202Y95381D01*
X-20603Y95516D01*
X-20974Y95675D01*
X-21316Y95859D01*
X-21628Y96067D01*
X-21910Y96300D01*
X-22163Y96557D01*
X-22386Y96839D01*
X-22579Y97145D01*
X-22743Y97475D01*
X-22877Y97831D01*
X-22982Y98210D01*
X-21362Y98534D01*
X-21282Y98266D01*
X-21182Y98015D01*
X-21063Y97783D01*
X-20924Y97570D01*
X-20765Y97375D01*
X-20587Y97199D01*
X-20388Y97041D01*
X-20171Y96901D01*
X-19933Y96779D01*
X-19674Y96673D01*
X-19395Y96583D01*
X-19095Y96510D01*
X-18775Y96453D01*
X-18435Y96412D01*
X-18074Y96388D01*
X-17692Y96380D01*
X-17298Y96389D01*
X-16928Y96415D01*
X-16581Y96458D01*
X-16257Y96519D01*
X-15956Y96597D01*
X-15678Y96693D01*
X-15423Y96806D01*
X-15191Y96936D01*
X-14985Y97083D01*
X-14806Y97247D01*
X-14655Y97426D01*
X-14531Y97622D01*
X-14435Y97835D01*
X-14366Y98063D01*
X-14325Y98308D01*
X-14311Y98569D01*
X-14328Y98857D01*
X-14380Y99117D01*
X-14466Y99348D01*
X-14587Y99550D01*
X-14739Y99731D01*
X-14919Y99894D01*
X-15126Y100041D01*
X-15362Y100172D01*
X-15624Y100290D01*
X-15909Y100398D01*
X-16219Y100496D01*
X-16553Y100584D01*
X-18086Y100943D01*
X-18773Y101105D01*
X-19372Y101267D01*
X-19883Y101429D01*
X-20306Y101591D01*
X-20665Y101758D01*
X-20984Y101934D01*
X-21263Y102119D01*
X-21502Y102314D01*
X-21708Y102522D01*
X-21888Y102746D01*
X-22043Y102988D01*
X-22172Y103247D01*
X-22273Y103524D01*
X-22346Y103820D01*
X-22389Y104137D01*
X-22404Y104473D01*
X-22385Y104858D01*
X-22328Y105220D01*
X-22233Y105559D01*
X-22101Y105876D01*
X-21930Y106170D01*
X-21722Y106442D01*
X-21475Y106690D01*
X-21191Y106916D01*
X-20871Y107118D01*
X-20519Y107292D01*
X-20134Y107439D01*
X-19716Y107560D01*
X-19266Y107654D01*
X-18783Y107721D01*
X-18267Y107761D01*
X-17718Y107775D01*
X-17208Y107765D01*
X-16729Y107734D01*
X-16281Y107684D01*
X-15864Y107614D01*
X-15477Y107523D01*
X-15122Y107413D01*
X-14797Y107282D01*
X-14504Y107131D01*
X-14236Y106956D01*
X-13989Y106752D01*
X-13763Y106521D01*
X-13558Y106261D01*
X-13373Y105972D01*
X-13210Y105655D01*
X-13067Y105310D01*
X-12945Y104937D01*
X-14591Y104648D01*
X-14667Y104885D01*
X-14758Y105105D01*
X-14864Y105308D01*
X-14985Y105494D01*
X-15122Y105664D01*
X-15274Y105816D01*
X-15442Y105952D01*
X-15625Y106071D01*
X-15825Y106175D01*
X-16043Y106265D01*
X-16279Y106341D01*
X-16534Y106403D01*
X-16807Y106451D01*
X-17098Y106486D01*
X-17408Y106507D01*
X-17736Y106513D01*
X-18095Y106506D01*
X-18432Y106483D01*
X-18747Y106445D01*
X-19041Y106391D01*
X-19312Y106322D01*
X-19562Y106238D01*
X-19790Y106138D01*
X-19995Y106023D01*
X-20178Y105893D01*
X-20336Y105748D01*
X-20470Y105587D01*
X-20580Y105412D01*
X-20665Y105222D01*
X-20726Y105016D01*
X-20763Y104796D01*
X-20775Y104560D01*
X-20756Y104288D01*
X-20699Y104040D01*
X-20605Y103817D01*
X-20473Y103619D01*
X-20305Y103440D01*
X-20104Y103275D01*
X-19869Y103124D01*
X-19601Y102988D01*
X-19246Y102852D01*
X-18749Y102700D01*
X-18112Y102534D01*
X-17333Y102353D01*
X-16199Y102086D01*
X-15646Y101937D01*
X-15117Y101762D01*
X-14617Y101557D01*
X-14149Y101320D01*
X-13931Y101186D01*
X-13728Y101037D01*
X-13539Y100875D01*
X-13365Y100698D01*
X-13208Y100506D01*
X-13068Y100297D01*
X-12947Y100072D01*
X-12844Y99831D01*
X-12762Y99570D01*
X-12703Y99288D01*
X-12667Y98983D01*
X-12656Y98657D01*
X-12677Y98242D01*
X-12739Y97851D01*
X-12844Y97485D01*
X-12990Y97142D01*
X-13177Y96823D01*
X-13407Y96529D01*
X-13678Y96258D01*
X-13991Y96012D01*
X-14342Y95792D01*
X-14727Y95602D01*
X-15146Y95441D01*
X-15600Y95309D01*
X-16087Y95207D01*
X-16608Y95133D01*
X-17164Y95090D01*
X-17753Y95075D01*
G37*
G36*
X-4931Y95075D02*
X-5390Y95087D01*
X-5832Y95123D01*
X-6259Y95184D01*
X-6671Y95269D01*
X-7066Y95378D01*
X-7446Y95511D01*
X-7810Y95668D01*
X-8159Y95850D01*
X-8489Y96054D01*
X-8799Y96279D01*
X-9089Y96525D01*
X-9358Y96792D01*
X-9608Y97079D01*
X-9837Y97387D01*
X-10046Y97716D01*
X-10234Y98066D01*
X-10402Y98434D01*
X-10547Y98819D01*
X-10669Y99221D01*
X-10770Y99639D01*
X-10848Y100074D01*
X-10904Y100525D01*
X-10937Y100993D01*
X-10948Y101477D01*
X-10942Y101841D01*
X-10923Y102195D01*
X-10892Y102539D01*
X-10849Y102873D01*
X-10793Y103197D01*
X-10724Y103511D01*
X-10643Y103815D01*
X-10550Y104109D01*
X-10444Y104393D01*
X-10325Y104667D01*
X-10052Y105185D01*
X-9728Y105664D01*
X-9354Y106102D01*
X-8936Y106494D01*
X-8480Y106834D01*
X-8238Y106984D01*
X-7986Y107121D01*
X-7725Y107245D01*
X-7454Y107356D01*
X-7173Y107455D01*
X-6883Y107539D01*
X-6583Y107611D01*
X-6273Y107670D01*
X-5954Y107716D01*
X-5626Y107749D01*
X-5288Y107768D01*
X-4940Y107775D01*
X-4457Y107763D01*
X-3995Y107727D01*
X-3553Y107666D01*
X-3131Y107582D01*
X-2730Y107474D01*
X-2348Y107341D01*
X-1987Y107185D01*
X-1647Y107004D01*
X-1327Y106800D01*
X-1029Y106572D01*
X-753Y106321D01*
X-499Y106047D01*
X-267Y105750D01*
X-57Y105429D01*
X131Y105085D01*
X298Y104718D01*
X-1287Y104192D01*
X-1403Y104454D01*
X-1535Y104699D01*
X-1683Y104929D01*
X-1847Y105143D01*
X-2028Y105341D01*
X-2224Y105523D01*
X-2438Y105689D01*
X-2667Y105839D01*
X-2910Y105973D01*
X-3164Y106088D01*
X-3430Y106186D01*
X-3706Y106266D01*
X-3993Y106328D01*
X-4292Y106373D01*
X-4602Y106399D01*
X-4922Y106408D01*
X-5420Y106388D01*
X-5890Y106326D01*
X-6331Y106223D01*
X-6744Y106079D01*
X-7128Y105893D01*
X-7484Y105667D01*
X-7812Y105399D01*
X-8110Y105090D01*
X-8377Y104745D01*
X-8609Y104370D01*
X-8804Y103964D01*
X-8964Y103528D01*
X-9089Y103061D01*
X-9178Y102564D01*
X-9231Y102036D01*
X-9249Y101477D01*
X-9230Y100924D01*
X-9175Y100399D01*
X-9082Y99901D01*
X-8952Y99431D01*
X-8785Y98989D01*
X-8581Y98575D01*
X-8340Y98188D01*
X-8062Y97829D01*
X-7752Y97506D01*
X-7417Y97226D01*
X-7055Y96989D01*
X-6666Y96795D01*
X-6252Y96644D01*
X-5812Y96536D01*
X-5345Y96471D01*
X-4852Y96450D01*
X-4533Y96460D01*
X-4224Y96490D01*
X-3925Y96540D01*
X-3636Y96610D01*
X-3358Y96701D01*
X-3089Y96811D01*
X-2830Y96941D01*
X-2582Y97091D01*
X-2343Y97262D01*
X-2114Y97452D01*
X-1896Y97663D01*
X-1688Y97893D01*
X-1489Y98144D01*
X-1301Y98415D01*
X-1123Y98705D01*
X-955Y99016D01*
X412Y98333D01*
X212Y97946D01*
X-8Y97584D01*
X-247Y97245D01*
X-505Y96929D01*
X-782Y96638D01*
X-1079Y96371D01*
X-1395Y96127D01*
X-1730Y95907D01*
X-2082Y95712D01*
X-2447Y95543D01*
X-2827Y95400D01*
X-3220Y95283D01*
X-3627Y95192D01*
X-4048Y95127D01*
X-4483Y95088D01*
X-4931Y95075D01*
G37*
G36*
X10490Y95250D02*
X2581Y95250D01*
X2581Y107591D01*
X4254Y107591D01*
X4254Y96616D01*
X10490Y96616D01*
X10490Y95250D01*
G37*
G36*
X-6766Y120650D02*
X-11382Y120650D01*
X-11382Y132991D01*
X-7300Y132991D01*
X-6914Y132985D01*
X-6539Y132966D01*
X-6175Y132936D01*
X-5822Y132893D01*
X-5480Y132837D01*
X-5150Y132770D01*
X-4831Y132690D01*
X-4523Y132598D01*
X-4226Y132493D01*
X-3940Y132377D01*
X-3666Y132248D01*
X-3402Y132106D01*
X-3150Y131953D01*
X-2909Y131787D01*
X-2680Y131609D01*
X-2461Y131419D01*
X-2255Y131217D01*
X-2062Y131005D01*
X-1882Y130782D01*
X-1716Y130550D01*
X-1563Y130306D01*
X-1423Y130053D01*
X-1297Y129789D01*
X-1184Y129515D01*
X-1084Y129230D01*
X-997Y128935D01*
X-924Y128630D01*
X-864Y128314D01*
X-818Y127988D01*
X-784Y127651D01*
X-764Y127305D01*
X-758Y126947D01*
X-769Y126478D01*
X-804Y126023D01*
X-862Y125582D01*
X-944Y125157D01*
X-1048Y124747D01*
X-1176Y124352D01*
X-1328Y123971D01*
X-1502Y123606D01*
X-1698Y123258D01*
X-1913Y122932D01*
X-2148Y122626D01*
X-2402Y122341D01*
X-2676Y122078D01*
X-2969Y121835D01*
X-3281Y121613D01*
X-3613Y121412D01*
X-3961Y121233D01*
X-4322Y121079D01*
X-4697Y120948D01*
X-5084Y120840D01*
X-5485Y120757D01*
X-5899Y120698D01*
X-6326Y120662D01*
X-6766Y120650D01*
G37*
%LPC*%
G36*
X-6959Y121990D02*
X-6624Y121999D01*
X-6300Y122027D01*
X-5987Y122074D01*
X-5683Y122139D01*
X-5390Y122223D01*
X-5107Y122325D01*
X-4834Y122446D01*
X-4572Y122586D01*
X-4322Y122743D01*
X-4087Y122916D01*
X-3867Y123106D01*
X-3662Y123313D01*
X-3472Y123535D01*
X-3297Y123775D01*
X-3136Y124030D01*
X-2991Y124302D01*
X-2862Y124589D01*
X-2750Y124888D01*
X-2655Y125200D01*
X-2577Y125524D01*
X-2517Y125861D01*
X-2474Y126211D01*
X-2448Y126573D01*
X-2439Y126947D01*
X-2459Y127504D01*
X-2518Y128027D01*
X-2616Y128515D01*
X-2753Y128970D01*
X-2930Y129390D01*
X-3146Y129776D01*
X-3402Y130128D01*
X-3696Y130446D01*
X-4028Y130729D01*
X-4395Y130973D01*
X-4797Y131180D01*
X-5234Y131350D01*
X-5707Y131481D01*
X-6214Y131575D01*
X-6757Y131632D01*
X-7335Y131651D01*
X-9709Y131651D01*
X-9709Y121990D01*
X-6959Y121990D01*
G37*
%LPD*%
G36*
X1885Y120650D02*
X151Y120650D01*
X5187Y132991D01*
X7087Y132991D01*
X12045Y120650D01*
X10337Y120650D01*
X8927Y124259D01*
X3304Y124259D01*
X1885Y120650D01*
G37*
%LPC*%
G36*
X8427Y125564D02*
X6842Y129636D01*
X6597Y130280D01*
X6352Y131003D01*
X6115Y131730D01*
X6036Y131484D01*
X5765Y130654D01*
X5388Y129619D01*
X3812Y125564D01*
X8427Y125564D01*
G37*
%LPD*%
G36*
X-18747Y120475D02*
X-19296Y120487D01*
X-19816Y120524D01*
X-20305Y120585D01*
X-20766Y120671D01*
X-21196Y120781D01*
X-21597Y120916D01*
X-21968Y121075D01*
X-22310Y121259D01*
X-22622Y121467D01*
X-22904Y121700D01*
X-23157Y121957D01*
X-23380Y122239D01*
X-23573Y122545D01*
X-23737Y122875D01*
X-23872Y123231D01*
X-23976Y123610D01*
X-22356Y123934D01*
X-22276Y123666D01*
X-22176Y123415D01*
X-22057Y123183D01*
X-21918Y122970D01*
X-21759Y122775D01*
X-21581Y122599D01*
X-21383Y122441D01*
X-21165Y122301D01*
X-20927Y122179D01*
X-20668Y122073D01*
X-20389Y121983D01*
X-20090Y121910D01*
X-19769Y121853D01*
X-19429Y121812D01*
X-19068Y121788D01*
X-18686Y121780D01*
X-18292Y121789D01*
X-17922Y121815D01*
X-17575Y121858D01*
X-17251Y121919D01*
X-16950Y121997D01*
X-16672Y122093D01*
X-16417Y122206D01*
X-16185Y122336D01*
X-15979Y122483D01*
X-15800Y122647D01*
X-15649Y122826D01*
X-15525Y123022D01*
X-15429Y123235D01*
X-15360Y123463D01*
X-15319Y123708D01*
X-15305Y123969D01*
X-15322Y124257D01*
X-15374Y124517D01*
X-15460Y124748D01*
X-15581Y124950D01*
X-15733Y125131D01*
X-15913Y125294D01*
X-16121Y125441D01*
X-16356Y125572D01*
X-16618Y125690D01*
X-16904Y125798D01*
X-17213Y125896D01*
X-17547Y125984D01*
X-19080Y126343D01*
X-19767Y126505D01*
X-20367Y126667D01*
X-20878Y126829D01*
X-21300Y126991D01*
X-21659Y127158D01*
X-21978Y127334D01*
X-22257Y127519D01*
X-22496Y127714D01*
X-22702Y127922D01*
X-22882Y128146D01*
X-23037Y128388D01*
X-23166Y128647D01*
X-23268Y128924D01*
X-23340Y129220D01*
X-23384Y129537D01*
X-23398Y129873D01*
X-23379Y130258D01*
X-23322Y130620D01*
X-23227Y130959D01*
X-23095Y131276D01*
X-22924Y131570D01*
X-22716Y131842D01*
X-22469Y132090D01*
X-22185Y132316D01*
X-21865Y132518D01*
X-21513Y132692D01*
X-21128Y132839D01*
X-20710Y132960D01*
X-20260Y133054D01*
X-19777Y133121D01*
X-19261Y133161D01*
X-18712Y133175D01*
X-18202Y133165D01*
X-17723Y133134D01*
X-17275Y133084D01*
X-16858Y133014D01*
X-16471Y132923D01*
X-16116Y132813D01*
X-15791Y132682D01*
X-15498Y132531D01*
X-15230Y132356D01*
X-14983Y132152D01*
X-14757Y131921D01*
X-14552Y131661D01*
X-14367Y131372D01*
X-14204Y131055D01*
X-14061Y130710D01*
X-13939Y130337D01*
X-15585Y130048D01*
X-15661Y130285D01*
X-15752Y130505D01*
X-15858Y130708D01*
X-15980Y130894D01*
X-16116Y131064D01*
X-16269Y131216D01*
X-16436Y131352D01*
X-16619Y131471D01*
X-16819Y131575D01*
X-17037Y131665D01*
X-17273Y131741D01*
X-17528Y131803D01*
X-17801Y131851D01*
X-18092Y131886D01*
X-18402Y131907D01*
X-18730Y131913D01*
X-19089Y131906D01*
X-19426Y131883D01*
X-19741Y131845D01*
X-20035Y131791D01*
X-20306Y131722D01*
X-20556Y131638D01*
X-20784Y131538D01*
X-20989Y131423D01*
X-21172Y131293D01*
X-21331Y131148D01*
X-21464Y130987D01*
X-21574Y130812D01*
X-21659Y130622D01*
X-21720Y130416D01*
X-21757Y130196D01*
X-21769Y129960D01*
X-21750Y129688D01*
X-21693Y129440D01*
X-21599Y129217D01*
X-21467Y129019D01*
X-21299Y128840D01*
X-21098Y128675D01*
X-20863Y128524D01*
X-20595Y128388D01*
X-20240Y128252D01*
X-19744Y128100D01*
X-19106Y127934D01*
X-18327Y127753D01*
X-17193Y127486D01*
X-16640Y127337D01*
X-16111Y127162D01*
X-15611Y126957D01*
X-15143Y126720D01*
X-14925Y126586D01*
X-14722Y126437D01*
X-14533Y126275D01*
X-14359Y126098D01*
X-14202Y125906D01*
X-14063Y125697D01*
X-13941Y125472D01*
X-13838Y125231D01*
X-13756Y124970D01*
X-13697Y124688D01*
X-13662Y124383D01*
X-13650Y124057D01*
X-13671Y123642D01*
X-13733Y123251D01*
X-13838Y122885D01*
X-13984Y122542D01*
X-14172Y122223D01*
X-14401Y121929D01*
X-14672Y121658D01*
X-14985Y121412D01*
X-15336Y121192D01*
X-15721Y121002D01*
X-16141Y120841D01*
X-16594Y120709D01*
X-17081Y120607D01*
X-17602Y120533D01*
X-18158Y120490D01*
X-18747Y120475D01*
G37*
G36*
X1035050Y15284D02*
X1022709Y15284D01*
X1022709Y19769D01*
X1022721Y20295D01*
X1022756Y20787D01*
X1022815Y21245D01*
X1022896Y21669D01*
X1023002Y22060D01*
X1023130Y22416D01*
X1023283Y22739D01*
X1023458Y23027D01*
X1023657Y23282D01*
X1023879Y23502D01*
X1024125Y23689D01*
X1024394Y23842D01*
X1024687Y23960D01*
X1025003Y24045D01*
X1025342Y24096D01*
X1025705Y24113D01*
X1025973Y24103D01*
X1026230Y24075D01*
X1026477Y24027D01*
X1026712Y23960D01*
X1026936Y23874D01*
X1027150Y23768D01*
X1027352Y23644D01*
X1027544Y23500D01*
X1027722Y23339D01*
X1027814Y23239D01*
X1027886Y23162D01*
X1028033Y22969D01*
X1028166Y22760D01*
X1028283Y22535D01*
X1028385Y22295D01*
X1028471Y22038D01*
X1028542Y21766D01*
X1028596Y22123D01*
X1028670Y22459D01*
X1028763Y22774D01*
X1028876Y23069D01*
X1029009Y23342D01*
X1029162Y23594D01*
X1029335Y23824D01*
X1029424Y23921D01*
X1029528Y24034D01*
X1029737Y24221D01*
X1029959Y24383D01*
X1030195Y24520D01*
X1030444Y24632D01*
X1030706Y24719D01*
X1030982Y24781D01*
X1031271Y24819D01*
X1031573Y24831D01*
X1031973Y24813D01*
X1032350Y24756D01*
X1032705Y24663D01*
X1033037Y24531D01*
X1033345Y24363D01*
X1033631Y24156D01*
X1033895Y23913D01*
X1034135Y23631D01*
X1034349Y23317D01*
X1034535Y22973D01*
X1034693Y22600D01*
X1034821Y22197D01*
X1034921Y21765D01*
X1034993Y21304D01*
X1035036Y20814D01*
X1035050Y20294D01*
X1035050Y15284D01*
G37*
%LPC*%
G36*
X1033710Y16957D02*
X1033710Y20207D01*
X1033701Y20577D01*
X1033674Y20921D01*
X1033630Y21239D01*
X1033568Y21531D01*
X1033488Y21798D01*
X1033390Y22038D01*
X1033274Y22252D01*
X1033141Y22440D01*
X1032990Y22604D01*
X1032821Y22747D01*
X1032635Y22867D01*
X1032431Y22966D01*
X1032210Y23042D01*
X1031971Y23097D01*
X1031715Y23130D01*
X1031442Y23141D01*
X1031177Y23129D01*
X1030930Y23093D01*
X1030700Y23033D01*
X1030487Y22949D01*
X1030291Y22841D01*
X1030113Y22710D01*
X1029951Y22554D01*
X1029806Y22374D01*
X1029678Y22171D01*
X1029567Y21943D01*
X1029474Y21692D01*
X1029397Y21417D01*
X1029337Y21117D01*
X1029295Y20794D01*
X1029269Y20447D01*
X1029261Y20075D01*
X1029261Y16957D01*
X1033710Y16957D01*
G37*
G36*
X1027956Y16957D02*
X1027956Y19769D01*
X1027948Y20093D01*
X1027924Y20396D01*
X1027885Y20678D01*
X1027830Y20939D01*
X1027759Y21179D01*
X1027672Y21397D01*
X1027570Y21594D01*
X1027452Y21770D01*
X1027318Y21925D01*
X1027167Y22059D01*
X1026999Y22173D01*
X1026814Y22266D01*
X1026612Y22338D01*
X1026394Y22390D01*
X1026158Y22421D01*
X1025906Y22431D01*
X1025665Y22421D01*
X1025442Y22389D01*
X1025237Y22335D01*
X1025050Y22261D01*
X1024880Y22165D01*
X1024729Y22047D01*
X1024595Y21908D01*
X1024478Y21748D01*
X1024378Y21568D01*
X1024291Y21368D01*
X1024217Y21150D01*
X1024157Y20912D01*
X1024110Y20655D01*
X1024076Y20379D01*
X1024056Y20083D01*
X1024049Y19769D01*
X1024049Y16957D01*
X1027956Y16957D01*
G37*
%LPD*%
G36*
X1035050Y38191D02*
X1022709Y38191D01*
X1022709Y40135D01*
X1033290Y46809D01*
X1031809Y46730D01*
X1030802Y46704D01*
X1022709Y46704D01*
X1022709Y48210D01*
X1035050Y48210D01*
X1035050Y46196D01*
X1024540Y39592D01*
X1025389Y39636D01*
X1026852Y39680D01*
X1035050Y39680D01*
X1035050Y38191D01*
G37*
G36*
X1024076Y26153D02*
X1022709Y26153D01*
X1022709Y36296D01*
X1024076Y36296D01*
X1024076Y32057D01*
X1035050Y32057D01*
X1035050Y30393D01*
X1024076Y30393D01*
X1024076Y26153D01*
G37*
G36*
X1060450Y40167D02*
X1048109Y40167D01*
X1048109Y44248D01*
X1048115Y44635D01*
X1048134Y45010D01*
X1048165Y45374D01*
X1048208Y45727D01*
X1048263Y46068D01*
X1048330Y46399D01*
X1048410Y46718D01*
X1048502Y47026D01*
X1048607Y47323D01*
X1048723Y47608D01*
X1048852Y47883D01*
X1048994Y48146D01*
X1049147Y48398D01*
X1049313Y48639D01*
X1049491Y48869D01*
X1049681Y49087D01*
X1049883Y49294D01*
X1050095Y49487D01*
X1050318Y49666D01*
X1050550Y49833D01*
X1050794Y49986D01*
X1051047Y50125D01*
X1051311Y50252D01*
X1051585Y50365D01*
X1051870Y50465D01*
X1052165Y50551D01*
X1052470Y50625D01*
X1052786Y50684D01*
X1053112Y50731D01*
X1053449Y50764D01*
X1053795Y50784D01*
X1054153Y50791D01*
X1054623Y50779D01*
X1055077Y50744D01*
X1055518Y50686D01*
X1055943Y50605D01*
X1056353Y50500D01*
X1056748Y50372D01*
X1057129Y50221D01*
X1057494Y50046D01*
X1057842Y49851D01*
X1058168Y49635D01*
X1058474Y49401D01*
X1058759Y49146D01*
X1059022Y48873D01*
X1059265Y48580D01*
X1059487Y48267D01*
X1059688Y47936D01*
X1059867Y47587D01*
X1060021Y47226D01*
X1060152Y46852D01*
X1060260Y46464D01*
X1060343Y46063D01*
X1060402Y45650D01*
X1060438Y45223D01*
X1060450Y44783D01*
X1060450Y40167D01*
G37*
%LPC*%
G36*
X1059110Y41840D02*
X1059110Y44590D01*
X1059101Y44924D01*
X1059073Y45248D01*
X1059026Y45562D01*
X1058961Y45865D01*
X1058877Y46158D01*
X1058775Y46441D01*
X1058654Y46714D01*
X1058514Y46977D01*
X1058357Y47226D01*
X1058184Y47461D01*
X1057994Y47681D01*
X1057787Y47886D01*
X1057565Y48076D01*
X1057325Y48252D01*
X1057070Y48412D01*
X1056798Y48557D01*
X1056511Y48687D01*
X1056212Y48799D01*
X1055900Y48894D01*
X1055576Y48971D01*
X1055239Y49032D01*
X1054889Y49075D01*
X1054527Y49101D01*
X1054153Y49109D01*
X1053596Y49090D01*
X1053073Y49031D01*
X1052585Y48932D01*
X1052131Y48795D01*
X1051710Y48618D01*
X1051324Y48402D01*
X1050972Y48147D01*
X1050654Y47852D01*
X1050371Y47521D01*
X1050127Y47154D01*
X1049920Y46751D01*
X1049750Y46314D01*
X1049619Y45842D01*
X1049525Y45334D01*
X1049468Y44791D01*
X1049449Y44213D01*
X1049449Y41840D01*
X1059110Y41840D01*
G37*
%LPD*%
G36*
X1060450Y27229D02*
X1048109Y27229D01*
X1048109Y29174D01*
X1058690Y35848D01*
X1057209Y35769D01*
X1056202Y35743D01*
X1048109Y35743D01*
X1048109Y37249D01*
X1060450Y37249D01*
X1060450Y35235D01*
X1049940Y28631D01*
X1050789Y28674D01*
X1052252Y28718D01*
X1060450Y28718D01*
X1060450Y27229D01*
G37*
G36*
X1054223Y12722D02*
X1053852Y12729D01*
X1053493Y12748D01*
X1053144Y12779D01*
X1052805Y12823D01*
X1052478Y12880D01*
X1052160Y12949D01*
X1051854Y13031D01*
X1051558Y13125D01*
X1051273Y13232D01*
X1050998Y13352D01*
X1050734Y13484D01*
X1050480Y13629D01*
X1050237Y13786D01*
X1050005Y13956D01*
X1049572Y14334D01*
X1049186Y14757D01*
X1049012Y14984D01*
X1048852Y15221D01*
X1048704Y15469D01*
X1048569Y15726D01*
X1048446Y15994D01*
X1048337Y16272D01*
X1048240Y16560D01*
X1048157Y16858D01*
X1048086Y17167D01*
X1048028Y17485D01*
X1047983Y17814D01*
X1047951Y18153D01*
X1047932Y18503D01*
X1047925Y18862D01*
X1047936Y19363D01*
X1047969Y19839D01*
X1048023Y20291D01*
X1048098Y20719D01*
X1048196Y21123D01*
X1048315Y21503D01*
X1048455Y21859D01*
X1048617Y22190D01*
X1048803Y22501D01*
X1049015Y22793D01*
X1049253Y23067D01*
X1049517Y23322D01*
X1049807Y23560D01*
X1050123Y23778D01*
X1050465Y23979D01*
X1050833Y24161D01*
X1051306Y22567D01*
X1051052Y22429D01*
X1050816Y22279D01*
X1050598Y22117D01*
X1050397Y21942D01*
X1050215Y21754D01*
X1050050Y21555D01*
X1049903Y21342D01*
X1049773Y21118D01*
X1049660Y20879D01*
X1049563Y20627D01*
X1049480Y20361D01*
X1049412Y20081D01*
X1049359Y19786D01*
X1049322Y19478D01*
X1049299Y19155D01*
X1049292Y18818D01*
X1049312Y18300D01*
X1049372Y17813D01*
X1049473Y17357D01*
X1049615Y16933D01*
X1049796Y16540D01*
X1050018Y16179D01*
X1050281Y15850D01*
X1050584Y15551D01*
X1050923Y15287D01*
X1051295Y15057D01*
X1051701Y14863D01*
X1052139Y14704D01*
X1052611Y14580D01*
X1053115Y14492D01*
X1053652Y14439D01*
X1054223Y14422D01*
X1054792Y14440D01*
X1055330Y14497D01*
X1055838Y14590D01*
X1056315Y14722D01*
X1056761Y14890D01*
X1057176Y15097D01*
X1057561Y15340D01*
X1057914Y15622D01*
X1058232Y15936D01*
X1058506Y16279D01*
X1058739Y16651D01*
X1058929Y17051D01*
X1059077Y17481D01*
X1059183Y17939D01*
X1059246Y18425D01*
X1059268Y18941D01*
X1059245Y19535D01*
X1059176Y20109D01*
X1059061Y20663D01*
X1058900Y21196D01*
X1058699Y21695D01*
X1058466Y22143D01*
X1058200Y22542D01*
X1057901Y22891D01*
X1055677Y22891D01*
X1055677Y19204D01*
X1054275Y19204D01*
X1054275Y24433D01*
X1058532Y24433D01*
X1058774Y24180D01*
X1059003Y23914D01*
X1059217Y23635D01*
X1059418Y23341D01*
X1059604Y23034D01*
X1059776Y22712D01*
X1059934Y22377D01*
X1060078Y22028D01*
X1060206Y21669D01*
X1060317Y21302D01*
X1060411Y20927D01*
X1060488Y20545D01*
X1060548Y20155D01*
X1060591Y19758D01*
X1060617Y19353D01*
X1060625Y18941D01*
X1060613Y18465D01*
X1060577Y18007D01*
X1060517Y17564D01*
X1060433Y17139D01*
X1060324Y16730D01*
X1060192Y16338D01*
X1060035Y15963D01*
X1059854Y15604D01*
X1059651Y15264D01*
X1059427Y14945D01*
X1059181Y14646D01*
X1058914Y14368D01*
X1058626Y14111D01*
X1058317Y13874D01*
X1057986Y13658D01*
X1057634Y13463D01*
X1057264Y13289D01*
X1056877Y13139D01*
X1056475Y13012D01*
X1056057Y12907D01*
X1055622Y12827D01*
X1055172Y12769D01*
X1054705Y12734D01*
X1054223Y12722D01*
G37*
G36*
X1083091Y15148D02*
X1082907Y16743D01*
X1083129Y16811D01*
X1083336Y16892D01*
X1083529Y16985D01*
X1083708Y17090D01*
X1083872Y17208D01*
X1084023Y17337D01*
X1084159Y17479D01*
X1084280Y17634D01*
X1084387Y17800D01*
X1084480Y17979D01*
X1084559Y18170D01*
X1084623Y18373D01*
X1084673Y18589D01*
X1084709Y18817D01*
X1084731Y19057D01*
X1084738Y19309D01*
X1084726Y19618D01*
X1084690Y19909D01*
X1084630Y20184D01*
X1084546Y20441D01*
X1084438Y20681D01*
X1084307Y20903D01*
X1084151Y21109D01*
X1083971Y21297D01*
X1083771Y21465D01*
X1083552Y21611D01*
X1083316Y21735D01*
X1083062Y21836D01*
X1082789Y21914D01*
X1082499Y21970D01*
X1082191Y22004D01*
X1081865Y22015D01*
X1081581Y22004D01*
X1081310Y21970D01*
X1081054Y21914D01*
X1080812Y21835D01*
X1080583Y21733D01*
X1080369Y21609D01*
X1080168Y21462D01*
X1079982Y21293D01*
X1079813Y21104D01*
X1079668Y20900D01*
X1079544Y20680D01*
X1079443Y20444D01*
X1079365Y20193D01*
X1079308Y19925D01*
X1079275Y19643D01*
X1079264Y19344D01*
X1079276Y19030D01*
X1079314Y18726D01*
X1079377Y18434D01*
X1079465Y18153D01*
X1079583Y17877D01*
X1079737Y17601D01*
X1079925Y17325D01*
X1080148Y17049D01*
X1080148Y15508D01*
X1073509Y15919D01*
X1073509Y22935D01*
X1074849Y22935D01*
X1074849Y17356D01*
X1078764Y17119D01*
X1078580Y17383D01*
X1078420Y17663D01*
X1078284Y17958D01*
X1078173Y18269D01*
X1078087Y18595D01*
X1078025Y18937D01*
X1077988Y19295D01*
X1077976Y19668D01*
X1077993Y20112D01*
X1078043Y20533D01*
X1078126Y20930D01*
X1078243Y21305D01*
X1078393Y21656D01*
X1078577Y21984D01*
X1078794Y22289D01*
X1079045Y22571D01*
X1079322Y22825D01*
X1079619Y23045D01*
X1079937Y23230D01*
X1080275Y23383D01*
X1080633Y23501D01*
X1081012Y23585D01*
X1081411Y23636D01*
X1081830Y23653D01*
X1082305Y23635D01*
X1082754Y23580D01*
X1083178Y23490D01*
X1083575Y23363D01*
X1083946Y23200D01*
X1084292Y23000D01*
X1084611Y22765D01*
X1084904Y22493D01*
X1085167Y22188D01*
X1085395Y21856D01*
X1085587Y21496D01*
X1085745Y21108D01*
X1085868Y20691D01*
X1085955Y20247D01*
X1086008Y19774D01*
X1086025Y19274D01*
X1086013Y18853D01*
X1085978Y18453D01*
X1085919Y18073D01*
X1085837Y17715D01*
X1085731Y17377D01*
X1085602Y17060D01*
X1085449Y16764D01*
X1085272Y16489D01*
X1085073Y16236D01*
X1084853Y16007D01*
X1084612Y15803D01*
X1084350Y15624D01*
X1084067Y15468D01*
X1083763Y15337D01*
X1083437Y15231D01*
X1083091Y15148D01*
G37*
G36*
X1073509Y24478D02*
X1073509Y26238D01*
X1082198Y29654D01*
X1084379Y30390D01*
X1082198Y31126D01*
X1073509Y34524D01*
X1073509Y36284D01*
X1085850Y31248D01*
X1085850Y29514D01*
X1073509Y24478D01*
G37*
G36*
X1108079Y13984D02*
X1107931Y15613D01*
X1108196Y15660D01*
X1108444Y15724D01*
X1108675Y15804D01*
X1108889Y15899D01*
X1109085Y16011D01*
X1109265Y16139D01*
X1109427Y16283D01*
X1109573Y16443D01*
X1109701Y16619D01*
X1109812Y16811D01*
X1109906Y17019D01*
X1109983Y17244D01*
X1110043Y17484D01*
X1110086Y17741D01*
X1110112Y18013D01*
X1110120Y18302D01*
X1110111Y18592D01*
X1110084Y18865D01*
X1110038Y19123D01*
X1109973Y19365D01*
X1109891Y19591D01*
X1109790Y19800D01*
X1109671Y19994D01*
X1109533Y20172D01*
X1109378Y20331D01*
X1109204Y20469D01*
X1109013Y20585D01*
X1108804Y20681D01*
X1108577Y20755D01*
X1108333Y20808D01*
X1108071Y20840D01*
X1107790Y20851D01*
X1107546Y20839D01*
X1107314Y20802D01*
X1107097Y20742D01*
X1106894Y20657D01*
X1106704Y20548D01*
X1106528Y20415D01*
X1106366Y20257D01*
X1106218Y20076D01*
X1106086Y19871D01*
X1105971Y19645D01*
X1105874Y19397D01*
X1105795Y19128D01*
X1105733Y18838D01*
X1105689Y18526D01*
X1105662Y18193D01*
X1105653Y17838D01*
X1105653Y16944D01*
X1104287Y16944D01*
X1104287Y17803D01*
X1104278Y18118D01*
X1104252Y18414D01*
X1104208Y18693D01*
X1104146Y18953D01*
X1104066Y19195D01*
X1103969Y19419D01*
X1103854Y19625D01*
X1103722Y19813D01*
X1103574Y19980D01*
X1103413Y20125D01*
X1103237Y20248D01*
X1103049Y20348D01*
X1102847Y20426D01*
X1102631Y20482D01*
X1102402Y20515D01*
X1102159Y20527D01*
X1101918Y20517D01*
X1101690Y20490D01*
X1101475Y20445D01*
X1101273Y20381D01*
X1101084Y20299D01*
X1100908Y20199D01*
X1100745Y20081D01*
X1100595Y19944D01*
X1100461Y19790D01*
X1100344Y19618D01*
X1100246Y19428D01*
X1100165Y19220D01*
X1100102Y18995D01*
X1100057Y18753D01*
X1100031Y18492D01*
X1100022Y18214D01*
X1100030Y17960D01*
X1100055Y17718D01*
X1100097Y17489D01*
X1100155Y17272D01*
X1100230Y17067D01*
X1100322Y16875D01*
X1100431Y16695D01*
X1100556Y16528D01*
X1100696Y16376D01*
X1100850Y16240D01*
X1101018Y16121D01*
X1101200Y16019D01*
X1101395Y15934D01*
X1101604Y15866D01*
X1101826Y15814D01*
X1102062Y15779D01*
X1101940Y14194D01*
X1101571Y14252D01*
X1101224Y14338D01*
X1100897Y14453D01*
X1100591Y14596D01*
X1100306Y14767D01*
X1100041Y14967D01*
X1099798Y15195D01*
X1099575Y15451D01*
X1099376Y15731D01*
X1099203Y16030D01*
X1099057Y16349D01*
X1098938Y16687D01*
X1098845Y17044D01*
X1098778Y17421D01*
X1098739Y17817D01*
X1098725Y18232D01*
X1098739Y18683D01*
X1098779Y19109D01*
X1098847Y19508D01*
X1098941Y19882D01*
X1099062Y20230D01*
X1099211Y20551D01*
X1099386Y20848D01*
X1099588Y21118D01*
X1099814Y21359D01*
X1100062Y21568D01*
X1100331Y21745D01*
X1100620Y21890D01*
X1100932Y22002D01*
X1101264Y22083D01*
X1101617Y22131D01*
X1101992Y22147D01*
X1102281Y22137D01*
X1102556Y22106D01*
X1102817Y22054D01*
X1103064Y21982D01*
X1103297Y21889D01*
X1103517Y21775D01*
X1103723Y21641D01*
X1103915Y21486D01*
X1104092Y21311D01*
X1104255Y21118D01*
X1104403Y20905D01*
X1104536Y20674D01*
X1104653Y20425D01*
X1104756Y20156D01*
X1104844Y19869D01*
X1104918Y19563D01*
X1104953Y19563D01*
X1105000Y19900D01*
X1105066Y20217D01*
X1105153Y20515D01*
X1105259Y20794D01*
X1105385Y21053D01*
X1105531Y21294D01*
X1105696Y21515D01*
X1105881Y21718D01*
X1106082Y21898D01*
X1106296Y22055D01*
X1106522Y22187D01*
X1106761Y22296D01*
X1107013Y22380D01*
X1107277Y22440D01*
X1107554Y22476D01*
X1107843Y22488D01*
X1108258Y22472D01*
X1108649Y22421D01*
X1109016Y22336D01*
X1109358Y22217D01*
X1109677Y22064D01*
X1109971Y21878D01*
X1110242Y21657D01*
X1110488Y21402D01*
X1110708Y21116D01*
X1110898Y20801D01*
X1111059Y20457D01*
X1111191Y20084D01*
X1111293Y19682D01*
X1111367Y19251D01*
X1111411Y18791D01*
X1111425Y18302D01*
X1111412Y17845D01*
X1111372Y17412D01*
X1111306Y17003D01*
X1111214Y16617D01*
X1111095Y16255D01*
X1110950Y15917D01*
X1110778Y15602D01*
X1110580Y15311D01*
X1110356Y15046D01*
X1110107Y14809D01*
X1109832Y14601D01*
X1109532Y14421D01*
X1109207Y14269D01*
X1108856Y14146D01*
X1108481Y14051D01*
X1108079Y13984D01*
G37*
G36*
X1108079Y28921D02*
X1107931Y30551D01*
X1108196Y30598D01*
X1108444Y30662D01*
X1108675Y30741D01*
X1108889Y30837D01*
X1109085Y30949D01*
X1109265Y31076D01*
X1109427Y31220D01*
X1109573Y31380D01*
X1109701Y31557D01*
X1109812Y31749D01*
X1109906Y31957D01*
X1109983Y32181D01*
X1110043Y32422D01*
X1110086Y32678D01*
X1110112Y32951D01*
X1110120Y33239D01*
X1110111Y33529D01*
X1110084Y33803D01*
X1110038Y34061D01*
X1109973Y34302D01*
X1109891Y34528D01*
X1109790Y34738D01*
X1109671Y34932D01*
X1109533Y35109D01*
X1109378Y35268D01*
X1109204Y35406D01*
X1109013Y35523D01*
X1108804Y35618D01*
X1108577Y35693D01*
X1108333Y35746D01*
X1108071Y35778D01*
X1107790Y35788D01*
X1107546Y35776D01*
X1107314Y35740D01*
X1107097Y35679D01*
X1106894Y35594D01*
X1106704Y35485D01*
X1106528Y35352D01*
X1106366Y35195D01*
X1106218Y35013D01*
X1106086Y34808D01*
X1105971Y34582D01*
X1105874Y34335D01*
X1105795Y34066D01*
X1105733Y33776D01*
X1105689Y33464D01*
X1105662Y33130D01*
X1105653Y32775D01*
X1105653Y31882D01*
X1104287Y31882D01*
X1104287Y32740D01*
X1104278Y33055D01*
X1104252Y33352D01*
X1104208Y33630D01*
X1104146Y33891D01*
X1104066Y34133D01*
X1103969Y34357D01*
X1103854Y34563D01*
X1103722Y34750D01*
X1103574Y34918D01*
X1103413Y35063D01*
X1103237Y35185D01*
X1103049Y35286D01*
X1102847Y35364D01*
X1102631Y35419D01*
X1102402Y35453D01*
X1102159Y35464D01*
X1101918Y35455D01*
X1101690Y35428D01*
X1101475Y35382D01*
X1101273Y35318D01*
X1101084Y35237D01*
X1100908Y35136D01*
X1100745Y35018D01*
X1100595Y34882D01*
X1100461Y34727D01*
X1100344Y34555D01*
X1100246Y34365D01*
X1100165Y34158D01*
X1100102Y33933D01*
X1100057Y33690D01*
X1100031Y33430D01*
X1100022Y33152D01*
X1100030Y32897D01*
X1100055Y32656D01*
X1100097Y32426D01*
X1100155Y32209D01*
X1100230Y32005D01*
X1100322Y31813D01*
X1100431Y31633D01*
X1100556Y31466D01*
X1100696Y31313D01*
X1100850Y31178D01*
X1101018Y31059D01*
X1101200Y30957D01*
X1101395Y30872D01*
X1101604Y30803D01*
X1101826Y30752D01*
X1102062Y30717D01*
X1101940Y29132D01*
X1101571Y29190D01*
X1101224Y29276D01*
X1100897Y29391D01*
X1100591Y29533D01*
X1100306Y29705D01*
X1100041Y29904D01*
X1099798Y30132D01*
X1099575Y30389D01*
X1099376Y30669D01*
X1099203Y30968D01*
X1099057Y31287D01*
X1098938Y31625D01*
X1098845Y31982D01*
X1098778Y32358D01*
X1098739Y32754D01*
X1098725Y33169D01*
X1098739Y33621D01*
X1098779Y34046D01*
X1098847Y34446D01*
X1098941Y34819D01*
X1099062Y35167D01*
X1099211Y35489D01*
X1099386Y35785D01*
X1099588Y36055D01*
X1099814Y36296D01*
X1100062Y36506D01*
X1100331Y36682D01*
X1100620Y36827D01*
X1100932Y36940D01*
X1101264Y37020D01*
X1101617Y37068D01*
X1101992Y37084D01*
X1102281Y37074D01*
X1102556Y37043D01*
X1102817Y36991D01*
X1103064Y36919D01*
X1103297Y36826D01*
X1103517Y36712D01*
X1103723Y36578D01*
X1103915Y36423D01*
X1104092Y36248D01*
X1104255Y36055D01*
X1104403Y35843D01*
X1104536Y35612D01*
X1104653Y35362D01*
X1104756Y35094D01*
X1104844Y34807D01*
X1104918Y34501D01*
X1104953Y34501D01*
X1105000Y34837D01*
X1105066Y35154D01*
X1105153Y35452D01*
X1105259Y35731D01*
X1105385Y35991D01*
X1105531Y36232D01*
X1105696Y36453D01*
X1105881Y36655D01*
X1106082Y36836D01*
X1106296Y36992D01*
X1106522Y37125D01*
X1106761Y37233D01*
X1107013Y37318D01*
X1107277Y37378D01*
X1107554Y37414D01*
X1107843Y37426D01*
X1108258Y37409D01*
X1108649Y37358D01*
X1109016Y37273D01*
X1109358Y37154D01*
X1109677Y37002D01*
X1109971Y36815D01*
X1110242Y36594D01*
X1110488Y36340D01*
X1110708Y36054D01*
X1110898Y35739D01*
X1111059Y35395D01*
X1111191Y35022D01*
X1111293Y34620D01*
X1111367Y34189D01*
X1111411Y33729D01*
X1111425Y33239D01*
X1111412Y32783D01*
X1111372Y32350D01*
X1111306Y31940D01*
X1111214Y31554D01*
X1111095Y31192D01*
X1110950Y30854D01*
X1110778Y30539D01*
X1110580Y30248D01*
X1110356Y29983D01*
X1110107Y29747D01*
X1109832Y29538D01*
X1109532Y29358D01*
X1109207Y29207D01*
X1108856Y29083D01*
X1108481Y28988D01*
X1108079Y28921D01*
G37*
G36*
X1098909Y38286D02*
X1098909Y40046D01*
X1107598Y43462D01*
X1109779Y44198D01*
X1107598Y44934D01*
X1098909Y48332D01*
X1098909Y50092D01*
X1111250Y45056D01*
X1111250Y43322D01*
X1098909Y38286D01*
G37*
G36*
X1111250Y24907D02*
X1109332Y24907D01*
X1109332Y26615D01*
X1111250Y26615D01*
X1111250Y24907D01*
G37*
G36*
X994980Y41060D02*
X994656Y41072D01*
X994348Y41107D01*
X994054Y41166D01*
X993774Y41248D01*
X993510Y41353D01*
X993259Y41482D01*
X993024Y41634D01*
X992803Y41809D01*
X992595Y42012D01*
X992396Y42246D01*
X992206Y42512D01*
X992027Y42809D01*
X991857Y43137D01*
X991697Y43497D01*
X991547Y43888D01*
X991406Y44310D01*
X990980Y44343D01*
X990569Y44398D01*
X990173Y44475D01*
X989791Y44574D01*
X989425Y44695D01*
X989073Y44838D01*
X988737Y45003D01*
X988415Y45190D01*
X988110Y45398D01*
X987824Y45625D01*
X987556Y45872D01*
X987307Y46138D01*
X987077Y46424D01*
X986865Y46729D01*
X986672Y47053D01*
X986497Y47397D01*
X986342Y47758D01*
X986208Y48133D01*
X986094Y48522D01*
X986001Y48925D01*
X985929Y49342D01*
X985877Y49773D01*
X985846Y50218D01*
X985836Y50677D01*
X985842Y51042D01*
X985861Y51397D01*
X985893Y51742D01*
X985937Y52077D01*
X985994Y52401D01*
X986064Y52716D01*
X986146Y53020D01*
X986241Y53315D01*
X986348Y53599D01*
X986469Y53873D01*
X986602Y54137D01*
X986747Y54391D01*
X987076Y54869D01*
X987456Y55306D01*
X987881Y55697D01*
X988108Y55873D01*
X988346Y56036D01*
X988593Y56186D01*
X988850Y56323D01*
X989117Y56447D01*
X989394Y56558D01*
X989681Y56655D01*
X989978Y56740D01*
X990284Y56812D01*
X990601Y56870D01*
X990927Y56916D01*
X991264Y56949D01*
X991610Y56968D01*
X991967Y56975D01*
X992430Y56963D01*
X992877Y56928D01*
X993309Y56869D01*
X993725Y56788D01*
X994126Y56682D01*
X994511Y56553D01*
X994880Y56401D01*
X995234Y56226D01*
X995569Y56028D01*
X995885Y55809D01*
X996180Y55569D01*
X996454Y55307D01*
X996709Y55025D01*
X996942Y54721D01*
X997156Y54396D01*
X997349Y54049D01*
X997520Y53684D01*
X997669Y53303D01*
X997795Y52906D01*
X997897Y52493D01*
X997977Y52063D01*
X998034Y51617D01*
X998069Y51155D01*
X998080Y50677D01*
X998060Y50039D01*
X997998Y49430D01*
X997895Y48850D01*
X997752Y48299D01*
X997567Y47777D01*
X997341Y47284D01*
X997074Y46821D01*
X996766Y46386D01*
X996422Y45987D01*
X996045Y45631D01*
X995637Y45318D01*
X995196Y45048D01*
X994724Y44821D01*
X994219Y44637D01*
X993683Y44496D01*
X993114Y44397D01*
X993308Y43884D01*
X993529Y43447D01*
X993650Y43258D01*
X993778Y43087D01*
X993914Y42936D01*
X994056Y42803D01*
X994206Y42688D01*
X994366Y42589D01*
X994536Y42505D01*
X994716Y42436D01*
X994905Y42382D01*
X995104Y42344D01*
X995313Y42321D01*
X995531Y42313D01*
X995775Y42320D01*
X996024Y42341D01*
X996539Y42427D01*
X996539Y41253D01*
X996136Y41169D01*
X995742Y41109D01*
X995356Y41073D01*
X994980Y41060D01*
G37*
%LPC*%
G36*
X991949Y45632D02*
X992468Y45653D01*
X992956Y45715D01*
X993412Y45818D01*
X993838Y45962D01*
X994232Y46147D01*
X994596Y46374D01*
X994928Y46642D01*
X995229Y46951D01*
X995497Y47297D01*
X995729Y47678D01*
X995926Y48093D01*
X996087Y48541D01*
X996212Y49024D01*
X996301Y49541D01*
X996354Y50092D01*
X996372Y50677D01*
X996354Y51238D01*
X996300Y51767D01*
X996210Y52266D01*
X996084Y52733D01*
X995922Y53170D01*
X995724Y53576D01*
X995490Y53951D01*
X995221Y54295D01*
X994918Y54603D01*
X994585Y54869D01*
X994223Y55095D01*
X993831Y55280D01*
X993410Y55424D01*
X992958Y55526D01*
X992477Y55588D01*
X991967Y55608D01*
X991452Y55588D01*
X990967Y55527D01*
X990513Y55426D01*
X990088Y55284D01*
X989694Y55102D01*
X989329Y54879D01*
X988995Y54616D01*
X988691Y54312D01*
X988420Y53972D01*
X988185Y53599D01*
X987987Y53193D01*
X987824Y52755D01*
X987697Y52285D01*
X987607Y51781D01*
X987553Y51246D01*
X987535Y50677D01*
X987553Y50112D01*
X987608Y49577D01*
X987699Y49071D01*
X987827Y48596D01*
X987992Y48151D01*
X988193Y47735D01*
X988430Y47350D01*
X988704Y46994D01*
X989011Y46675D01*
X989345Y46399D01*
X989709Y46164D01*
X990100Y45973D01*
X990520Y45824D01*
X990968Y45718D01*
X991444Y45654D01*
X991949Y45632D01*
G37*
%LPD*%
G36*
X1007998Y44450D02*
X999826Y44450D01*
X999826Y45562D01*
X1000061Y46060D01*
X1000322Y46527D01*
X1000607Y46964D01*
X1000916Y47371D01*
X1001242Y47754D01*
X1001576Y48118D01*
X1001919Y48463D01*
X1002269Y48790D01*
X1002976Y49402D01*
X1003675Y49968D01*
X1004338Y50511D01*
X1004932Y51054D01*
X1005199Y51329D01*
X1005439Y51610D01*
X1005652Y51898D01*
X1005839Y52193D01*
X1005990Y52500D01*
X1006098Y52828D01*
X1006163Y53175D01*
X1006184Y53541D01*
X1006175Y53788D01*
X1006147Y54021D01*
X1006101Y54239D01*
X1006036Y54443D01*
X1005952Y54633D01*
X1005849Y54809D01*
X1005728Y54971D01*
X1005589Y55118D01*
X1005433Y55249D01*
X1005262Y55363D01*
X1005077Y55459D01*
X1004877Y55538D01*
X1004663Y55600D01*
X1004434Y55643D01*
X1004191Y55670D01*
X1003934Y55678D01*
X1003687Y55670D01*
X1003452Y55644D01*
X1003228Y55601D01*
X1003015Y55542D01*
X1002813Y55465D01*
X1002622Y55371D01*
X1002442Y55259D01*
X1002274Y55131D01*
X1002119Y54987D01*
X1001981Y54830D01*
X1001860Y54658D01*
X1001756Y54473D01*
X1001669Y54274D01*
X1001598Y54061D01*
X1001544Y53834D01*
X1001507Y53594D01*
X999896Y53743D01*
X999954Y54103D01*
X1000040Y54445D01*
X1000155Y54768D01*
X1000298Y55072D01*
X1000469Y55357D01*
X1000669Y55623D01*
X1000896Y55870D01*
X1001153Y56099D01*
X1001433Y56304D01*
X1001732Y56482D01*
X1002051Y56633D01*
X1002389Y56756D01*
X1002746Y56852D01*
X1003123Y56920D01*
X1003518Y56961D01*
X1003934Y56975D01*
X1004386Y56961D01*
X1004812Y56920D01*
X1005211Y56851D01*
X1005583Y56755D01*
X1005929Y56631D01*
X1006247Y56480D01*
X1006538Y56301D01*
X1006802Y56094D01*
X1007037Y55863D01*
X1007241Y55608D01*
X1007413Y55330D01*
X1007554Y55029D01*
X1007664Y54705D01*
X1007742Y54358D01*
X1007789Y53987D01*
X1007805Y53594D01*
X1007784Y53235D01*
X1007723Y52878D01*
X1007620Y52522D01*
X1007476Y52166D01*
X1007292Y51812D01*
X1007068Y51457D01*
X1006804Y51102D01*
X1006500Y50747D01*
X1006102Y50344D01*
X1005556Y49843D01*
X1004862Y49245D01*
X1004021Y48549D01*
X1003543Y48147D01*
X1003117Y47766D01*
X1002742Y47405D01*
X1002418Y47064D01*
X1002141Y46737D01*
X1001906Y46415D01*
X1001712Y46100D01*
X1001560Y45790D01*
X1007998Y45790D01*
X1007998Y44450D01*
G37*
G36*
X206354Y-6350D02*
X201738Y-6350D01*
X201738Y5991D01*
X205820Y5991D01*
X206206Y5985D01*
X206581Y5966D01*
X206945Y5936D01*
X207298Y5893D01*
X207640Y5837D01*
X207970Y5770D01*
X208289Y5690D01*
X208597Y5598D01*
X208894Y5493D01*
X209180Y5377D01*
X209454Y5248D01*
X209718Y5106D01*
X209970Y4953D01*
X210211Y4787D01*
X210440Y4609D01*
X210659Y4419D01*
X210865Y4217D01*
X211058Y4005D01*
X211238Y3782D01*
X211404Y3550D01*
X211557Y3306D01*
X211697Y3053D01*
X211823Y2789D01*
X211937Y2515D01*
X212036Y2230D01*
X212123Y1935D01*
X212196Y1630D01*
X212256Y1314D01*
X212303Y988D01*
X212336Y651D01*
X212356Y305D01*
X212362Y-53D01*
X212351Y-523D01*
X212316Y-977D01*
X212258Y-1418D01*
X212176Y-1843D01*
X212072Y-2253D01*
X211944Y-2648D01*
X211792Y-3029D01*
X211618Y-3394D01*
X211422Y-3742D01*
X211207Y-4068D01*
X210972Y-4374D01*
X210718Y-4659D01*
X210444Y-4922D01*
X210151Y-5165D01*
X209839Y-5387D01*
X209507Y-5588D01*
X209159Y-5767D01*
X208798Y-5921D01*
X208423Y-6052D01*
X208036Y-6160D01*
X207635Y-6243D01*
X207221Y-6302D01*
X206794Y-6338D01*
X206354Y-6350D01*
G37*
%LPC*%
G36*
X206161Y-5010D02*
X206496Y-5001D01*
X206820Y-4973D01*
X207133Y-4926D01*
X207437Y-4861D01*
X207730Y-4777D01*
X208013Y-4675D01*
X208286Y-4554D01*
X208548Y-4414D01*
X208798Y-4257D01*
X209033Y-4084D01*
X209253Y-3894D01*
X209458Y-3687D01*
X209648Y-3465D01*
X209823Y-3225D01*
X209984Y-2970D01*
X210129Y-2698D01*
X210258Y-2411D01*
X210370Y-2112D01*
X210465Y-1800D01*
X210543Y-1476D01*
X210603Y-1139D01*
X210646Y-789D01*
X210672Y-427D01*
X210681Y-53D01*
X210661Y504D01*
X210602Y1027D01*
X210504Y1515D01*
X210367Y1970D01*
X210190Y2390D01*
X209974Y2776D01*
X209719Y3128D01*
X209424Y3446D01*
X209092Y3729D01*
X208725Y3973D01*
X208323Y4180D01*
X207886Y4350D01*
X207413Y4481D01*
X206906Y4575D01*
X206363Y4632D01*
X205785Y4651D01*
X203411Y4651D01*
X203411Y-5010D01*
X206161Y-5010D01*
G37*
%LPD*%
G36*
X40248Y-6350D02*
X35238Y-6350D01*
X35238Y5991D01*
X39723Y5991D01*
X40249Y5979D01*
X40741Y5944D01*
X41199Y5885D01*
X41623Y5804D01*
X42014Y5698D01*
X42370Y5570D01*
X42692Y5417D01*
X42981Y5242D01*
X43235Y5043D01*
X43456Y4821D01*
X43643Y4575D01*
X43795Y4306D01*
X43914Y4013D01*
X43999Y3697D01*
X44050Y3358D01*
X44067Y2995D01*
X44057Y2727D01*
X44029Y2470D01*
X43981Y2224D01*
X43914Y1988D01*
X43827Y1764D01*
X43722Y1550D01*
X43598Y1348D01*
X43454Y1156D01*
X43293Y978D01*
X43193Y886D01*
X43116Y814D01*
X42923Y667D01*
X42714Y534D01*
X42489Y417D01*
X42248Y315D01*
X41992Y229D01*
X41720Y158D01*
X42077Y104D01*
X42413Y30D01*
X42728Y-63D01*
X43022Y-176D01*
X43295Y-309D01*
X43547Y-462D01*
X43778Y-635D01*
X43875Y-724D01*
X43988Y-828D01*
X44175Y-1037D01*
X44337Y-1259D01*
X44474Y-1495D01*
X44586Y-1744D01*
X44673Y-2006D01*
X44735Y-2282D01*
X44773Y-2571D01*
X44785Y-2873D01*
X44766Y-3273D01*
X44710Y-3650D01*
X44616Y-4005D01*
X44485Y-4337D01*
X44316Y-4645D01*
X44110Y-4931D01*
X43866Y-5195D01*
X43585Y-5435D01*
X43271Y-5649D01*
X42927Y-5835D01*
X42553Y-5993D01*
X42151Y-6121D01*
X41719Y-6221D01*
X41258Y-6293D01*
X40768Y-6336D01*
X40248Y-6350D01*
G37*
%LPC*%
G36*
X40161Y-5010D02*
X40531Y-5001D01*
X40875Y-4974D01*
X41193Y-4930D01*
X41485Y-4868D01*
X41752Y-4788D01*
X41992Y-4690D01*
X42206Y-4574D01*
X42394Y-4441D01*
X42558Y-4290D01*
X42701Y-4121D01*
X42821Y-3935D01*
X42920Y-3731D01*
X42996Y-3510D01*
X43051Y-3271D01*
X43084Y-3015D01*
X43095Y-2742D01*
X43083Y-2477D01*
X43047Y-2230D01*
X42987Y-2000D01*
X42903Y-1787D01*
X42795Y-1591D01*
X42664Y-1413D01*
X42508Y-1251D01*
X42328Y-1106D01*
X42125Y-978D01*
X41897Y-867D01*
X41646Y-774D01*
X41370Y-697D01*
X41071Y-637D01*
X40748Y-595D01*
X40400Y-569D01*
X40029Y-561D01*
X36911Y-561D01*
X36911Y-5010D01*
X40161Y-5010D01*
G37*
G36*
X39723Y744D02*
X40047Y752D01*
X40350Y776D01*
X40632Y815D01*
X40893Y870D01*
X41133Y941D01*
X41351Y1028D01*
X41548Y1130D01*
X41724Y1248D01*
X41879Y1382D01*
X42013Y1534D01*
X42127Y1701D01*
X42220Y1886D01*
X42292Y2088D01*
X42344Y2306D01*
X42375Y2542D01*
X42385Y2794D01*
X42375Y3035D01*
X42343Y3258D01*
X42289Y3463D01*
X42214Y3650D01*
X42118Y3820D01*
X42001Y3971D01*
X41862Y4105D01*
X41702Y4222D01*
X41522Y4322D01*
X41322Y4409D01*
X41104Y4483D01*
X40866Y4543D01*
X40609Y4590D01*
X40332Y4624D01*
X40037Y4644D01*
X39723Y4651D01*
X36911Y4651D01*
X36911Y744D01*
X39723Y744D01*
G37*
%LPD*%
G36*
X238139Y-6525D02*
X237877Y-6519D01*
X237624Y-6500D01*
X237378Y-6468D01*
X237141Y-6424D01*
X236692Y-6297D01*
X236276Y-6120D01*
X235893Y-5892D01*
X235543Y-5614D01*
X235226Y-5285D01*
X234942Y-4905D01*
X234692Y-4477D01*
X234475Y-4002D01*
X234291Y-3480D01*
X234141Y-2912D01*
X234024Y-2298D01*
X233941Y-1637D01*
X233891Y-929D01*
X233874Y-175D01*
X233890Y595D01*
X233939Y1315D01*
X234020Y1985D01*
X234133Y2606D01*
X234279Y3176D01*
X234458Y3697D01*
X234668Y4168D01*
X234912Y4589D01*
X235190Y4961D01*
X235506Y5283D01*
X235859Y5555D01*
X236251Y5778D01*
X236679Y5952D01*
X236908Y6020D01*
X237146Y6076D01*
X237393Y6119D01*
X237650Y6150D01*
X237916Y6169D01*
X238192Y6175D01*
X238460Y6168D01*
X238719Y6150D01*
X238969Y6118D01*
X239211Y6075D01*
X239443Y6018D01*
X239667Y5949D01*
X240087Y5774D01*
X240471Y5549D01*
X240820Y5273D01*
X241133Y4948D01*
X241411Y4572D01*
X241654Y4147D01*
X241865Y3674D01*
X242043Y3153D01*
X242189Y2584D01*
X242302Y1966D01*
X242384Y1301D01*
X242432Y587D01*
X242448Y-175D01*
X242431Y-925D01*
X242380Y-1630D01*
X242295Y-2288D01*
X242176Y-2901D01*
X242022Y-3469D01*
X241835Y-3990D01*
X241614Y-4466D01*
X241358Y-4896D01*
X241069Y-5278D01*
X240748Y-5609D01*
X240394Y-5889D01*
X240008Y-6118D01*
X239590Y-6296D01*
X239139Y-6423D01*
X238901Y-6468D01*
X238655Y-6500D01*
X238401Y-6519D01*
X238139Y-6525D01*
G37*
%LPC*%
G36*
X238157Y-5238D02*
X238493Y-5218D01*
X238807Y-5160D01*
X239097Y-5063D01*
X239363Y-4927D01*
X239607Y-4752D01*
X239827Y-4538D01*
X240024Y-4285D01*
X240197Y-3994D01*
X240349Y-3662D01*
X240481Y-3289D01*
X240592Y-2874D01*
X240684Y-2417D01*
X240754Y-1919D01*
X240805Y-1380D01*
X240835Y-798D01*
X240846Y-175D01*
X240836Y470D01*
X240807Y1068D01*
X240759Y1621D01*
X240691Y2128D01*
X240604Y2589D01*
X240498Y3004D01*
X240373Y3373D01*
X240228Y3696D01*
X240061Y3977D01*
X239869Y4221D01*
X239652Y4427D01*
X239410Y4596D01*
X239143Y4727D01*
X238851Y4821D01*
X238534Y4877D01*
X238192Y4896D01*
X237841Y4877D01*
X237516Y4822D01*
X237216Y4730D01*
X236943Y4600D01*
X236694Y4434D01*
X236472Y4231D01*
X236274Y3991D01*
X236103Y3714D01*
X235954Y3394D01*
X235825Y3027D01*
X235716Y2612D01*
X235627Y2150D01*
X235557Y1640D01*
X235508Y1083D01*
X235478Y478D01*
X235468Y-175D01*
X235478Y-810D01*
X235508Y-1401D01*
X235558Y-1948D01*
X235629Y-2450D01*
X235719Y-2909D01*
X235830Y-3323D01*
X235961Y-3694D01*
X236112Y-4020D01*
X236284Y-4306D01*
X236481Y-4553D01*
X236701Y-4762D01*
X236945Y-4933D01*
X237212Y-5066D01*
X237503Y-5162D01*
X237818Y-5219D01*
X238157Y-5238D01*
G37*
%LPD*%
G36*
X192879Y-6525D02*
X192421Y-6511D01*
X191990Y-6469D01*
X191586Y-6398D01*
X191208Y-6299D01*
X190857Y-6171D01*
X190532Y-6015D01*
X190234Y-5831D01*
X189962Y-5619D01*
X189720Y-5381D01*
X189510Y-5121D01*
X189332Y-4840D01*
X189187Y-4536D01*
X189074Y-4210D01*
X188993Y-3862D01*
X188945Y-3492D01*
X188929Y-3101D01*
X188940Y-2801D01*
X188976Y-2509D01*
X189034Y-2227D01*
X189117Y-1953D01*
X189222Y-1687D01*
X189351Y-1431D01*
X189504Y-1183D01*
X189680Y-944D01*
X189879Y-713D01*
X190102Y-492D01*
X190349Y-278D01*
X190619Y-74D01*
X190912Y122D01*
X191229Y309D01*
X191569Y487D01*
X191933Y657D01*
X191793Y941D01*
X191664Y1250D01*
X191544Y1585D01*
X191434Y1944D01*
X191342Y2308D01*
X191276Y2656D01*
X191237Y2987D01*
X191223Y3302D01*
X191236Y3621D01*
X191274Y3922D01*
X191336Y4204D01*
X191424Y4468D01*
X191537Y4713D01*
X191674Y4940D01*
X191837Y5148D01*
X192025Y5338D01*
X192236Y5508D01*
X192467Y5654D01*
X192720Y5779D01*
X192994Y5880D01*
X193288Y5959D01*
X193604Y6016D01*
X193940Y6050D01*
X194298Y6061D01*
X194620Y6050D01*
X194927Y6019D01*
X195218Y5967D01*
X195492Y5894D01*
X195751Y5801D01*
X195993Y5686D01*
X196220Y5551D01*
X196430Y5395D01*
X196620Y5221D01*
X196785Y5032D01*
X196924Y4827D01*
X197038Y4607D01*
X197127Y4372D01*
X197190Y4121D01*
X197228Y3855D01*
X197241Y3573D01*
X197228Y3319D01*
X197191Y3071D01*
X197128Y2830D01*
X197040Y2597D01*
X196928Y2370D01*
X196790Y2151D01*
X196627Y1939D01*
X196439Y1734D01*
X196432Y1727D01*
X196220Y1533D01*
X195965Y1332D01*
X195672Y1132D01*
X195343Y933D01*
X194977Y734D01*
X194574Y535D01*
X193658Y140D01*
X193911Y-309D01*
X194183Y-759D01*
X194786Y-1660D01*
X195466Y-2563D01*
X196225Y-3468D01*
X196465Y-3094D01*
X196689Y-2699D01*
X196899Y-2282D01*
X197094Y-1844D01*
X197274Y-1384D01*
X197295Y-1323D01*
X197438Y-903D01*
X197588Y-401D01*
X197722Y123D01*
X198992Y-254D01*
X198843Y-795D01*
X198669Y-1329D01*
X198473Y-1854D01*
X198252Y-2371D01*
X198008Y-2881D01*
X197830Y-3215D01*
X197741Y-3383D01*
X197450Y-3876D01*
X197135Y-4362D01*
X197348Y-4563D01*
X197565Y-4737D01*
X197786Y-4885D01*
X198011Y-5006D01*
X198241Y-5099D01*
X198374Y-5138D01*
X198476Y-5167D01*
X198714Y-5207D01*
X198957Y-5220D01*
X199255Y-5211D01*
X199524Y-5185D01*
X199767Y-5141D01*
X199982Y-5080D01*
X199982Y-6262D01*
X199721Y-6347D01*
X199428Y-6407D01*
X199103Y-6443D01*
X198747Y-6455D01*
X198367Y-6438D01*
X198003Y-6386D01*
X197653Y-6299D01*
X197319Y-6177D01*
X197001Y-6021D01*
X196698Y-5829D01*
X196410Y-5604D01*
X196137Y-5343D01*
X195797Y-5611D01*
X195434Y-5846D01*
X195048Y-6049D01*
X194639Y-6219D01*
X194214Y-6353D01*
X193779Y-6449D01*
X193334Y-6506D01*
X192879Y-6525D01*
G37*
%LPC*%
G36*
X192931Y-5378D02*
X193242Y-5363D01*
X193553Y-5318D01*
X193864Y-5242D01*
X194175Y-5137D01*
X194476Y-5004D01*
X194758Y-4845D01*
X195019Y-4660D01*
X195261Y-4449D01*
X194436Y-3431D01*
X193696Y-2424D01*
X193039Y-1429D01*
X192743Y-937D01*
X192467Y-447D01*
X191983Y-680D01*
X191563Y-940D01*
X191208Y-1228D01*
X191054Y-1382D01*
X190917Y-1544D01*
X190796Y-1712D01*
X190691Y-1887D01*
X190602Y-2069D01*
X190529Y-2258D01*
X190473Y-2454D01*
X190432Y-2657D01*
X190408Y-2866D01*
X190400Y-3083D01*
X190411Y-3341D01*
X190443Y-3585D01*
X190496Y-3816D01*
X190570Y-4032D01*
X190665Y-4235D01*
X190782Y-4424D01*
X190920Y-4599D01*
X191079Y-4760D01*
X191256Y-4905D01*
X191449Y-5031D01*
X191658Y-5137D01*
X191881Y-5223D01*
X192121Y-5291D01*
X192376Y-5339D01*
X192646Y-5368D01*
X192931Y-5378D01*
G37*
G36*
X193133Y1165D02*
X193668Y1389D01*
X194128Y1598D01*
X194511Y1792D01*
X194819Y1971D01*
X195072Y2145D01*
X195292Y2325D01*
X195479Y2513D01*
X195633Y2706D01*
X195754Y2908D01*
X195840Y3120D01*
X195892Y3342D01*
X195909Y3573D01*
X195902Y3727D01*
X195882Y3874D01*
X195848Y4014D01*
X195800Y4146D01*
X195663Y4389D01*
X195471Y4603D01*
X195233Y4777D01*
X194955Y4901D01*
X194801Y4945D01*
X194637Y4976D01*
X194464Y4995D01*
X194280Y5001D01*
X194076Y4994D01*
X193885Y4973D01*
X193706Y4938D01*
X193540Y4888D01*
X193387Y4825D01*
X193246Y4747D01*
X193117Y4656D01*
X193001Y4550D01*
X192899Y4432D01*
X192810Y4303D01*
X192735Y4163D01*
X192673Y4012D01*
X192625Y3851D01*
X192591Y3679D01*
X192570Y3496D01*
X192564Y3302D01*
X192572Y3050D01*
X192599Y2794D01*
X192644Y2533D01*
X192706Y2268D01*
X192786Y1999D01*
X192884Y1725D01*
X193133Y1165D01*
G37*
%LPD*%
G36*
X76427Y-10072D02*
X74851Y-10072D01*
X74851Y1191D01*
X74837Y2406D01*
X74821Y2828D01*
X74798Y3127D01*
X76322Y3127D01*
X76348Y2877D01*
X76388Y2216D01*
X76410Y1603D01*
X76445Y1603D01*
X76672Y2011D01*
X76933Y2361D01*
X77228Y2653D01*
X77388Y2777D01*
X77557Y2886D01*
X77737Y2981D01*
X77930Y3064D01*
X78137Y3134D01*
X78358Y3191D01*
X78593Y3236D01*
X78841Y3268D01*
X79103Y3287D01*
X79379Y3293D01*
X79803Y3275D01*
X80199Y3220D01*
X80568Y3128D01*
X80909Y3000D01*
X81223Y2835D01*
X81509Y2633D01*
X81767Y2395D01*
X81998Y2120D01*
X82201Y1805D01*
X82377Y1449D01*
X82526Y1051D01*
X82648Y611D01*
X82743Y129D01*
X82810Y-395D01*
X82851Y-960D01*
X82865Y-1568D01*
X82851Y-2168D01*
X82810Y-2730D01*
X82742Y-3253D01*
X82647Y-3737D01*
X82524Y-4182D01*
X82374Y-4589D01*
X82197Y-4957D01*
X81993Y-5286D01*
X81762Y-5576D01*
X81503Y-5828D01*
X81217Y-6041D01*
X80904Y-6215D01*
X80563Y-6351D01*
X80196Y-6448D01*
X79801Y-6506D01*
X79379Y-6525D01*
X79111Y-6519D01*
X78854Y-6499D01*
X78608Y-6467D01*
X78374Y-6422D01*
X78150Y-6364D01*
X77938Y-6294D01*
X77738Y-6210D01*
X77548Y-6114D01*
X77370Y-6004D01*
X77203Y-5882D01*
X77047Y-5747D01*
X76902Y-5599D01*
X76769Y-5438D01*
X76647Y-5265D01*
X76536Y-5078D01*
X76436Y-4879D01*
X76392Y-4879D01*
X76407Y-4998D01*
X76418Y-5286D01*
X76427Y-6368D01*
X76427Y-10072D01*
G37*
%LPC*%
G36*
X78958Y-5360D02*
X79242Y-5347D01*
X79505Y-5306D01*
X79749Y-5239D01*
X79973Y-5145D01*
X80177Y-5023D01*
X80362Y-4875D01*
X80526Y-4700D01*
X80671Y-4498D01*
X80797Y-4264D01*
X80906Y-3993D01*
X80999Y-3686D01*
X81075Y-3343D01*
X81134Y-2962D01*
X81176Y-2546D01*
X81201Y-2093D01*
X81209Y-1603D01*
X81201Y-1126D01*
X81176Y-684D01*
X81134Y-277D01*
X81076Y94D01*
X81001Y430D01*
X80909Y731D01*
X80800Y996D01*
X80675Y1226D01*
X80532Y1425D01*
X80368Y1598D01*
X80186Y1744D01*
X79983Y1863D01*
X79761Y1956D01*
X79519Y2023D01*
X79257Y2062D01*
X78976Y2076D01*
X78748Y2070D01*
X78533Y2051D01*
X78330Y2020D01*
X78140Y1977D01*
X77963Y1922D01*
X77799Y1854D01*
X77648Y1774D01*
X77509Y1682D01*
X77260Y1457D01*
X77042Y1177D01*
X76857Y842D01*
X76703Y451D01*
X76582Y1D01*
X76496Y-511D01*
X76444Y-1087D01*
X76427Y-1726D01*
X76436Y-2177D01*
X76464Y-2597D01*
X76511Y-2987D01*
X76576Y-3346D01*
X76660Y-3674D01*
X76762Y-3972D01*
X76883Y-4239D01*
X77023Y-4476D01*
X77183Y-4683D01*
X77367Y-4863D01*
X77574Y-5015D01*
X77804Y-5139D01*
X78058Y-5236D01*
X78335Y-5305D01*
X78635Y-5346D01*
X78958Y-5360D01*
G37*
%LPD*%
G36*
X168536Y-6350D02*
X166863Y-6350D01*
X166863Y5991D01*
X172057Y5991D01*
X172561Y5976D01*
X173036Y5930D01*
X173482Y5854D01*
X173899Y5748D01*
X174286Y5611D01*
X174644Y5444D01*
X174972Y5246D01*
X175272Y5019D01*
X175538Y4763D01*
X175770Y4483D01*
X175965Y4177D01*
X176125Y3847D01*
X176250Y3492D01*
X176339Y3112D01*
X176392Y2707D01*
X176410Y2277D01*
X176392Y1850D01*
X176339Y1446D01*
X176249Y1064D01*
X176124Y705D01*
X175964Y368D01*
X175767Y54D01*
X175535Y-238D01*
X175267Y-508D01*
X174969Y-750D01*
X174644Y-960D01*
X174295Y-1138D01*
X173919Y-1283D01*
X173519Y-1396D01*
X173092Y-1477D01*
X172640Y-1525D01*
X172162Y-1542D01*
X168536Y-1542D01*
X168536Y-6350D01*
G37*
%LPC*%
G36*
X171926Y-219D02*
X172265Y-209D01*
X172583Y-180D01*
X172878Y-132D01*
X173152Y-64D01*
X173404Y23D01*
X173634Y130D01*
X173842Y255D01*
X174028Y401D01*
X174192Y565D01*
X174334Y749D01*
X174455Y953D01*
X174553Y1175D01*
X174630Y1417D01*
X174685Y1679D01*
X174718Y1959D01*
X174728Y2260D01*
X174717Y2549D01*
X174684Y2820D01*
X174627Y3072D01*
X174549Y3306D01*
X174448Y3521D01*
X174324Y3717D01*
X174179Y3894D01*
X174010Y4053D01*
X173820Y4193D01*
X173606Y4314D01*
X173371Y4417D01*
X173113Y4501D01*
X172832Y4567D01*
X172529Y4613D01*
X172204Y4641D01*
X171856Y4651D01*
X168536Y4651D01*
X168536Y-219D01*
X171926Y-219D01*
G37*
%LPD*%
G36*
X18747Y-6525D02*
X18244Y-6505D01*
X17772Y-6446D01*
X17333Y-6347D01*
X16925Y-6209D01*
X16549Y-6031D01*
X16205Y-5813D01*
X15892Y-5556D01*
X15611Y-5260D01*
X15363Y-4926D01*
X15147Y-4556D01*
X14965Y-4152D01*
X14816Y-3713D01*
X14700Y-3238D01*
X14618Y-2728D01*
X14568Y-2183D01*
X14551Y-1603D01*
X14568Y-1009D01*
X14618Y-453D01*
X14701Y64D01*
X14817Y543D01*
X14966Y984D01*
X15149Y1386D01*
X15364Y1750D01*
X15613Y2076D01*
X15895Y2363D01*
X16211Y2612D01*
X16559Y2823D01*
X16941Y2995D01*
X17356Y3129D01*
X17804Y3225D01*
X18285Y3283D01*
X18799Y3302D01*
X19324Y3283D01*
X19814Y3227D01*
X20267Y3134D01*
X20685Y3003D01*
X21066Y2835D01*
X21412Y2629D01*
X21722Y2387D01*
X21996Y2106D01*
X22236Y1787D01*
X22444Y1426D01*
X22621Y1024D01*
X22765Y581D01*
X22877Y97D01*
X22957Y-428D01*
X23005Y-995D01*
X23021Y-1603D01*
X23004Y-2205D01*
X22952Y-2767D01*
X22867Y-3290D01*
X22747Y-3773D01*
X22593Y-4216D01*
X22405Y-4620D01*
X22183Y-4984D01*
X21926Y-5308D01*
X21637Y-5593D01*
X21317Y-5840D01*
X20966Y-6050D01*
X20584Y-6221D01*
X20171Y-6354D01*
X19727Y-6449D01*
X19252Y-6506D01*
X18747Y-6525D01*
G37*
%LPC*%
G36*
X18729Y-5360D02*
X19071Y-5346D01*
X19388Y-5303D01*
X19679Y-5232D01*
X19946Y-5133D01*
X20186Y-5004D01*
X20402Y-4848D01*
X20592Y-4663D01*
X20757Y-4449D01*
X20899Y-4206D01*
X21023Y-3930D01*
X21128Y-3622D01*
X21213Y-3282D01*
X21280Y-2911D01*
X21327Y-2507D01*
X21356Y-2071D01*
X21366Y-1603D01*
X21356Y-1129D01*
X21329Y-689D01*
X21284Y-282D01*
X21220Y91D01*
X21138Y430D01*
X21038Y736D01*
X20920Y1009D01*
X20783Y1248D01*
X20625Y1456D01*
X20442Y1637D01*
X20235Y1790D01*
X20002Y1915D01*
X19745Y2012D01*
X19464Y2081D01*
X19157Y2123D01*
X18826Y2137D01*
X18492Y2123D01*
X18182Y2080D01*
X17895Y2010D01*
X17633Y1910D01*
X17395Y1783D01*
X17181Y1627D01*
X16991Y1443D01*
X16824Y1231D01*
X16679Y988D01*
X16554Y713D01*
X16448Y407D01*
X16361Y69D01*
X16294Y-301D01*
X16245Y-703D01*
X16216Y-1137D01*
X16207Y-1603D01*
X16216Y-2057D01*
X16245Y-2482D01*
X16292Y-2877D01*
X16359Y-3244D01*
X16445Y-3581D01*
X16549Y-3890D01*
X16673Y-4169D01*
X16815Y-4419D01*
X16979Y-4639D01*
X17163Y-4831D01*
X17370Y-4993D01*
X17598Y-5125D01*
X17848Y-5228D01*
X18120Y-5301D01*
X18414Y-5346D01*
X18729Y-5360D01*
G37*
%LPD*%
G36*
X258313Y-6525D02*
X258056Y-6519D01*
X257807Y-6501D01*
X257332Y-6428D01*
X256888Y-6307D01*
X256474Y-6138D01*
X256091Y-5920D01*
X255738Y-5653D01*
X255416Y-5338D01*
X255125Y-4975D01*
X254866Y-4565D01*
X254642Y-4112D01*
X254453Y-3614D01*
X254297Y-3072D01*
X254177Y-2486D01*
X254090Y-1856D01*
X254039Y-1182D01*
X254022Y-464D01*
X254039Y314D01*
X254093Y1045D01*
X254183Y1731D01*
X254308Y2369D01*
X254470Y2961D01*
X254667Y3507D01*
X254900Y4006D01*
X255169Y4458D01*
X255471Y4860D01*
X255803Y5209D01*
X256166Y5504D01*
X256559Y5746D01*
X256983Y5933D01*
X257206Y6007D01*
X257437Y6067D01*
X257675Y6114D01*
X257921Y6148D01*
X258175Y6168D01*
X258436Y6175D01*
X258777Y6165D01*
X259102Y6135D01*
X259411Y6086D01*
X259704Y6018D01*
X259980Y5929D01*
X260241Y5821D01*
X260485Y5694D01*
X260713Y5546D01*
X260925Y5379D01*
X261121Y5193D01*
X261301Y4987D01*
X261464Y4761D01*
X261611Y4515D01*
X261743Y4250D01*
X261858Y3965D01*
X261957Y3661D01*
X260450Y3390D01*
X260317Y3743D01*
X260149Y4049D01*
X259947Y4308D01*
X259710Y4519D01*
X259439Y4684D01*
X259133Y4802D01*
X258793Y4872D01*
X258418Y4896D01*
X258091Y4876D01*
X257782Y4817D01*
X257492Y4719D01*
X257222Y4582D01*
X256970Y4405D01*
X256737Y4189D01*
X256524Y3934D01*
X256329Y3639D01*
X256156Y3307D01*
X256006Y2940D01*
X255878Y2538D01*
X255774Y2101D01*
X255693Y1628D01*
X255636Y1121D01*
X255601Y578D01*
X255589Y0D01*
X255826Y375D01*
X256106Y702D01*
X256430Y981D01*
X256798Y1213D01*
X257202Y1395D01*
X257634Y1525D01*
X257861Y1571D01*
X258095Y1603D01*
X258336Y1623D01*
X258585Y1629D01*
X259001Y1612D01*
X259395Y1562D01*
X259767Y1479D01*
X260116Y1362D01*
X260444Y1212D01*
X260750Y1028D01*
X261034Y811D01*
X261295Y560D01*
X261531Y282D01*
X261734Y-20D01*
X261907Y-344D01*
X262048Y-692D01*
X262157Y-1063D01*
X262236Y-1456D01*
X262283Y-1873D01*
X262298Y-2312D01*
X262282Y-2788D01*
X262232Y-3237D01*
X262149Y-3661D01*
X262033Y-4060D01*
X261884Y-4432D01*
X261702Y-4779D01*
X261487Y-5100D01*
X261239Y-5395D01*
X260961Y-5660D01*
X260658Y-5890D01*
X260330Y-6084D01*
X259977Y-6243D01*
X259599Y-6366D01*
X259196Y-6455D01*
X258767Y-6508D01*
X258313Y-6525D01*
G37*
%LPC*%
G36*
X258261Y-5255D02*
X258538Y-5243D01*
X258799Y-5207D01*
X259046Y-5147D01*
X259277Y-5064D01*
X259492Y-4956D01*
X259693Y-4824D01*
X259878Y-4668D01*
X260047Y-4489D01*
X260199Y-4288D01*
X260331Y-4070D01*
X260442Y-3833D01*
X260533Y-3579D01*
X260604Y-3307D01*
X260655Y-3017D01*
X260685Y-2708D01*
X260696Y-2382D01*
X260685Y-2057D01*
X260654Y-1751D01*
X260603Y-1464D01*
X260531Y-1196D01*
X260439Y-947D01*
X260326Y-717D01*
X260193Y-507D01*
X260039Y-315D01*
X259866Y-145D01*
X259678Y3D01*
X259473Y128D01*
X259253Y230D01*
X259016Y309D01*
X258763Y366D01*
X258493Y400D01*
X258208Y412D01*
X257939Y402D01*
X257683Y371D01*
X257440Y321D01*
X257211Y251D01*
X256995Y160D01*
X256792Y49D01*
X256602Y-81D01*
X256426Y-232D01*
X256267Y-401D01*
X256129Y-584D01*
X256012Y-783D01*
X255917Y-997D01*
X255842Y-1227D01*
X255789Y-1471D01*
X255758Y-1731D01*
X255747Y-2006D01*
X255758Y-2355D01*
X255791Y-2687D01*
X255846Y-3004D01*
X255923Y-3304D01*
X256022Y-3588D01*
X256144Y-3857D01*
X256287Y-4109D01*
X256452Y-4344D01*
X256635Y-4558D01*
X256829Y-4743D01*
X257037Y-4899D01*
X257257Y-5027D01*
X257489Y-5127D01*
X257734Y-5198D01*
X257991Y-5241D01*
X258261Y-5255D01*
G37*
%LPD*%
G36*
X49362Y-6525D02*
X49016Y-6513D01*
X48692Y-6478D01*
X48391Y-6419D01*
X48111Y-6337D01*
X47854Y-6231D01*
X47619Y-6102D01*
X47406Y-5949D01*
X47216Y-5772D01*
X47047Y-5575D01*
X46902Y-5360D01*
X46778Y-5128D01*
X46677Y-4879D01*
X46599Y-4611D01*
X46543Y-4327D01*
X46509Y-4025D01*
X46498Y-3705D01*
X46513Y-3348D01*
X46558Y-3012D01*
X46634Y-2697D01*
X46740Y-2404D01*
X46876Y-2133D01*
X47042Y-1882D01*
X47239Y-1653D01*
X47465Y-1445D01*
X47726Y-1260D01*
X48024Y-1097D01*
X48358Y-958D01*
X48730Y-841D01*
X49139Y-747D01*
X49585Y-677D01*
X50068Y-629D01*
X50588Y-604D01*
X52716Y-569D01*
X52716Y-53D01*
X52709Y226D01*
X52686Y484D01*
X52647Y722D01*
X52594Y939D01*
X52525Y1136D01*
X52440Y1312D01*
X52341Y1468D01*
X52226Y1603D01*
X52094Y1720D01*
X51945Y1821D01*
X51779Y1907D01*
X51595Y1977D01*
X51394Y2032D01*
X51175Y2071D01*
X50938Y2094D01*
X50684Y2102D01*
X50190Y2080D01*
X49971Y2051D01*
X49769Y2012D01*
X49585Y1962D01*
X49420Y1900D01*
X49272Y1827D01*
X49143Y1743D01*
X49028Y1646D01*
X48926Y1537D01*
X48836Y1413D01*
X48757Y1277D01*
X48691Y1126D01*
X48637Y963D01*
X48595Y786D01*
X48565Y596D01*
X46918Y744D01*
X46980Y1054D01*
X47066Y1344D01*
X47174Y1614D01*
X47307Y1863D01*
X47462Y2093D01*
X47641Y2303D01*
X47844Y2493D01*
X48070Y2663D01*
X48319Y2812D01*
X48592Y2942D01*
X48888Y3052D01*
X49207Y3142D01*
X49550Y3212D01*
X49916Y3262D01*
X50306Y3292D01*
X50719Y3302D01*
X51152Y3289D01*
X51557Y3251D01*
X51935Y3187D01*
X52285Y3097D01*
X52607Y2982D01*
X52902Y2841D01*
X53169Y2675D01*
X53408Y2483D01*
X53620Y2267D01*
X53803Y2028D01*
X53958Y1766D01*
X54085Y1481D01*
X54183Y1174D01*
X54254Y843D01*
X54296Y490D01*
X54310Y114D01*
X54310Y-3968D01*
X54322Y-4296D01*
X54356Y-4582D01*
X54414Y-4824D01*
X54494Y-5023D01*
X54607Y-5178D01*
X54761Y-5289D01*
X54957Y-5356D01*
X55195Y-5378D01*
X55438Y-5363D01*
X55712Y-5317D01*
X55712Y-6297D01*
X55412Y-6359D01*
X55109Y-6403D01*
X54803Y-6429D01*
X54494Y-6438D01*
X54283Y-6430D01*
X54086Y-6409D01*
X53904Y-6373D01*
X53738Y-6323D01*
X53586Y-6258D01*
X53449Y-6179D01*
X53327Y-6086D01*
X53220Y-5978D01*
X53126Y-5855D01*
X53042Y-5715D01*
X52970Y-5560D01*
X52908Y-5388D01*
X52857Y-5199D01*
X52817Y-4995D01*
X52769Y-4537D01*
X52716Y-4537D01*
X52402Y-5040D01*
X52235Y-5262D01*
X52063Y-5464D01*
X51884Y-5647D01*
X51699Y-5809D01*
X51508Y-5951D01*
X51310Y-6074D01*
X51105Y-6180D01*
X50888Y-6271D01*
X50661Y-6349D01*
X50423Y-6412D01*
X50174Y-6462D01*
X49914Y-6497D01*
X49643Y-6518D01*
X49362Y-6525D01*
G37*
%LPC*%
G36*
X49721Y-5343D02*
X49935Y-5337D01*
X50142Y-5318D01*
X50540Y-5244D01*
X50913Y-5121D01*
X51262Y-4949D01*
X51582Y-4733D01*
X51866Y-4481D01*
X52114Y-4192D01*
X52326Y-3867D01*
X52497Y-3521D01*
X52619Y-3170D01*
X52692Y-2813D01*
X52716Y-2452D01*
X52716Y-1673D01*
X50991Y-1708D01*
X50468Y-1729D01*
X50013Y-1774D01*
X49625Y-1843D01*
X49305Y-1936D01*
X49035Y-2055D01*
X48798Y-2203D01*
X48594Y-2379D01*
X48424Y-2584D01*
X48290Y-2820D01*
X48195Y-3090D01*
X48137Y-3393D01*
X48118Y-3731D01*
X48124Y-3918D01*
X48144Y-4095D01*
X48176Y-4260D01*
X48222Y-4414D01*
X48280Y-4558D01*
X48352Y-4690D01*
X48436Y-4812D01*
X48534Y-4922D01*
X48644Y-5021D01*
X48764Y-5106D01*
X48896Y-5179D01*
X49039Y-5238D01*
X49193Y-5284D01*
X49358Y-5317D01*
X49534Y-5336D01*
X49721Y-5343D01*
G37*
%LPD*%
G36*
X87237Y-6525D02*
X86891Y-6513D01*
X86567Y-6478D01*
X86266Y-6419D01*
X85986Y-6337D01*
X85729Y-6231D01*
X85494Y-6102D01*
X85281Y-5949D01*
X85091Y-5772D01*
X84922Y-5575D01*
X84777Y-5360D01*
X84653Y-5128D01*
X84552Y-4879D01*
X84474Y-4611D01*
X84418Y-4327D01*
X84384Y-4025D01*
X84373Y-3705D01*
X84388Y-3348D01*
X84433Y-3012D01*
X84509Y-2697D01*
X84615Y-2404D01*
X84751Y-2133D01*
X84917Y-1882D01*
X85114Y-1653D01*
X85340Y-1445D01*
X85601Y-1260D01*
X85899Y-1097D01*
X86233Y-958D01*
X86605Y-841D01*
X87014Y-747D01*
X87460Y-677D01*
X87943Y-629D01*
X88463Y-604D01*
X90591Y-569D01*
X90591Y-53D01*
X90584Y226D01*
X90561Y484D01*
X90522Y722D01*
X90469Y939D01*
X90400Y1136D01*
X90315Y1312D01*
X90216Y1468D01*
X90101Y1603D01*
X89969Y1720D01*
X89820Y1821D01*
X89654Y1907D01*
X89470Y1977D01*
X89269Y2032D01*
X89050Y2071D01*
X88813Y2094D01*
X88559Y2102D01*
X88065Y2080D01*
X87846Y2051D01*
X87644Y2012D01*
X87460Y1962D01*
X87295Y1900D01*
X87147Y1827D01*
X87018Y1743D01*
X86903Y1646D01*
X86801Y1537D01*
X86711Y1413D01*
X86632Y1277D01*
X86566Y1126D01*
X86512Y963D01*
X86470Y786D01*
X86440Y596D01*
X84793Y744D01*
X84855Y1054D01*
X84941Y1344D01*
X85049Y1614D01*
X85182Y1863D01*
X85337Y2093D01*
X85516Y2303D01*
X85719Y2493D01*
X85945Y2663D01*
X86194Y2812D01*
X86467Y2942D01*
X86763Y3052D01*
X87082Y3142D01*
X87425Y3212D01*
X87791Y3262D01*
X88181Y3292D01*
X88594Y3302D01*
X89027Y3289D01*
X89432Y3251D01*
X89810Y3187D01*
X90160Y3097D01*
X90482Y2982D01*
X90777Y2841D01*
X91044Y2675D01*
X91283Y2483D01*
X91495Y2267D01*
X91678Y2028D01*
X91833Y1766D01*
X91960Y1481D01*
X92058Y1174D01*
X92129Y843D01*
X92171Y490D01*
X92185Y114D01*
X92185Y-3968D01*
X92197Y-4296D01*
X92231Y-4582D01*
X92289Y-4824D01*
X92369Y-5023D01*
X92482Y-5178D01*
X92636Y-5289D01*
X92832Y-5356D01*
X93070Y-5378D01*
X93313Y-5363D01*
X93587Y-5317D01*
X93587Y-6297D01*
X93287Y-6359D01*
X92984Y-6403D01*
X92678Y-6429D01*
X92369Y-6438D01*
X92158Y-6430D01*
X91961Y-6409D01*
X91779Y-6373D01*
X91613Y-6323D01*
X91461Y-6258D01*
X91324Y-6179D01*
X91202Y-6086D01*
X91095Y-5978D01*
X91001Y-5855D01*
X90917Y-5715D01*
X90845Y-5560D01*
X90783Y-5388D01*
X90732Y-5199D01*
X90692Y-4995D01*
X90644Y-4537D01*
X90591Y-4537D01*
X90277Y-5040D01*
X90110Y-5262D01*
X89938Y-5464D01*
X89759Y-5647D01*
X89574Y-5809D01*
X89383Y-5951D01*
X89185Y-6074D01*
X88980Y-6180D01*
X88763Y-6271D01*
X88536Y-6349D01*
X88298Y-6412D01*
X88049Y-6462D01*
X87789Y-6497D01*
X87518Y-6518D01*
X87237Y-6525D01*
G37*
%LPC*%
G36*
X87596Y-5343D02*
X87810Y-5337D01*
X88017Y-5318D01*
X88415Y-5244D01*
X88788Y-5121D01*
X89137Y-4949D01*
X89457Y-4733D01*
X89741Y-4481D01*
X89989Y-4192D01*
X90201Y-3867D01*
X90372Y-3521D01*
X90494Y-3170D01*
X90567Y-2813D01*
X90591Y-2452D01*
X90591Y-1673D01*
X88866Y-1708D01*
X88343Y-1729D01*
X87888Y-1774D01*
X87500Y-1843D01*
X87180Y-1936D01*
X86910Y-2055D01*
X86673Y-2203D01*
X86469Y-2379D01*
X86299Y-2584D01*
X86165Y-2820D01*
X86070Y-3090D01*
X86012Y-3393D01*
X85993Y-3731D01*
X85999Y-3918D01*
X86019Y-4095D01*
X86051Y-4260D01*
X86097Y-4414D01*
X86155Y-4558D01*
X86227Y-4690D01*
X86311Y-4812D01*
X86409Y-4922D01*
X86519Y-5021D01*
X86639Y-5106D01*
X86771Y-5179D01*
X86914Y-5238D01*
X87068Y-5284D01*
X87233Y-5317D01*
X87409Y-5336D01*
X87596Y-5343D01*
G37*
%LPD*%
G36*
X-2706Y-6525D02*
X-3078Y-6517D01*
X-3439Y-6491D01*
X-3788Y-6448D01*
X-4125Y-6387D01*
X-4449Y-6310D01*
X-4762Y-6215D01*
X-5062Y-6103D01*
X-5351Y-5973D01*
X-5625Y-5828D01*
X-5884Y-5666D01*
X-6127Y-5489D01*
X-6354Y-5297D01*
X-6565Y-5089D01*
X-6760Y-4865D01*
X-6939Y-4626D01*
X-7102Y-4371D01*
X-7248Y-4102D01*
X-7375Y-3820D01*
X-7481Y-3526D01*
X-7569Y-3219D01*
X-7637Y-2899D01*
X-7685Y-2567D01*
X-7715Y-2223D01*
X-7724Y-1866D01*
X-7724Y5991D01*
X-6051Y5991D01*
X-6051Y-1726D01*
X-6038Y-2135D01*
X-5998Y-2520D01*
X-5931Y-2879D01*
X-5837Y-3212D01*
X-5716Y-3520D01*
X-5569Y-3803D01*
X-5394Y-4060D01*
X-5193Y-4292D01*
X-4967Y-4497D01*
X-4716Y-4675D01*
X-4442Y-4825D01*
X-4144Y-4949D01*
X-3823Y-5044D01*
X-3477Y-5113D01*
X-3108Y-5154D01*
X-2714Y-5168D01*
X-2310Y-5153D01*
X-1929Y-5111D01*
X-1570Y-5040D01*
X-1235Y-4941D01*
X-923Y-4814D01*
X-635Y-4658D01*
X-369Y-4474D01*
X-126Y-4261D01*
X90Y-4021D01*
X278Y-3756D01*
X437Y-3464D01*
X567Y-3145D01*
X668Y-2801D01*
X740Y-2431D01*
X783Y-2034D01*
X798Y-1612D01*
X798Y5991D01*
X2462Y5991D01*
X2462Y-1708D01*
X2452Y-2076D01*
X2422Y-2431D01*
X2373Y-2773D01*
X2303Y-3103D01*
X2214Y-3419D01*
X2105Y-3723D01*
X1976Y-4014D01*
X1827Y-4292D01*
X1660Y-4555D01*
X1477Y-4803D01*
X1277Y-5034D01*
X1061Y-5250D01*
X828Y-5449D01*
X579Y-5633D01*
X313Y-5800D01*
X31Y-5952D01*
X-265Y-6086D01*
X-575Y-6203D01*
X-897Y-6301D01*
X-1233Y-6382D01*
X-1582Y-6444D01*
X-1943Y-6489D01*
X-2318Y-6516D01*
X-2706Y-6525D01*
G37*
G36*
X180474Y-6350D02*
X178801Y-6350D01*
X178801Y5991D01*
X187568Y5991D01*
X187568Y4624D01*
X180474Y4624D01*
X180474Y35D01*
X187358Y35D01*
X187358Y-1349D01*
X180474Y-1349D01*
X180474Y-6350D01*
G37*
G36*
X67458Y-6350D02*
X65882Y-6350D01*
X65882Y6648D01*
X67458Y6648D01*
X67458Y-1472D01*
X71619Y3127D01*
X73467Y3127D01*
X69622Y-946D01*
X73668Y-6350D01*
X71820Y-6350D01*
X68614Y-2023D01*
X67458Y-2978D01*
X67458Y-6350D01*
G37*
G36*
X105333Y-6350D02*
X103757Y-6350D01*
X103757Y6648D01*
X105333Y6648D01*
X105333Y-1472D01*
X109494Y3127D01*
X111342Y3127D01*
X107497Y-946D01*
X111543Y-6350D01*
X109695Y-6350D01*
X106489Y-2023D01*
X105333Y-2978D01*
X105333Y-6350D01*
G37*
G36*
X130559Y-6350D02*
X122388Y-6350D01*
X122388Y-5238D01*
X122623Y-4740D01*
X122884Y-4273D01*
X123169Y-3836D01*
X123478Y-3429D01*
X123804Y-3046D01*
X124138Y-2682D01*
X124481Y-2337D01*
X124831Y-2010D01*
X125538Y-1398D01*
X126237Y-832D01*
X126900Y-289D01*
X127494Y254D01*
X127761Y529D01*
X128001Y810D01*
X128214Y1098D01*
X128400Y1393D01*
X128552Y1700D01*
X128660Y2028D01*
X128725Y2375D01*
X128746Y2741D01*
X128737Y2988D01*
X128709Y3221D01*
X128663Y3439D01*
X128598Y3643D01*
X128514Y3833D01*
X128411Y4009D01*
X128290Y4171D01*
X128151Y4318D01*
X127995Y4449D01*
X127824Y4563D01*
X127639Y4659D01*
X127439Y4738D01*
X127225Y4800D01*
X126996Y4843D01*
X126753Y4870D01*
X126496Y4878D01*
X126249Y4870D01*
X126014Y4844D01*
X125790Y4801D01*
X125577Y4742D01*
X125375Y4665D01*
X125184Y4571D01*
X125004Y4459D01*
X124836Y4331D01*
X124681Y4187D01*
X124543Y4030D01*
X124422Y3858D01*
X124318Y3673D01*
X124231Y3474D01*
X124160Y3261D01*
X124106Y3034D01*
X124069Y2794D01*
X122458Y2943D01*
X122516Y3303D01*
X122602Y3645D01*
X122717Y3968D01*
X122860Y4272D01*
X123031Y4557D01*
X123230Y4823D01*
X123458Y5070D01*
X123715Y5299D01*
X123995Y5504D01*
X124294Y5682D01*
X124613Y5833D01*
X124951Y5956D01*
X125308Y6052D01*
X125685Y6120D01*
X126080Y6161D01*
X126496Y6175D01*
X126948Y6161D01*
X127374Y6120D01*
X127773Y6051D01*
X128145Y5955D01*
X128490Y5831D01*
X128809Y5680D01*
X129100Y5501D01*
X129364Y5294D01*
X129599Y5063D01*
X129803Y4808D01*
X129975Y4530D01*
X130116Y4229D01*
X130226Y3905D01*
X130304Y3558D01*
X130351Y3187D01*
X130367Y2794D01*
X130346Y2435D01*
X130285Y2078D01*
X130182Y1722D01*
X130038Y1366D01*
X129854Y1012D01*
X129630Y657D01*
X129366Y302D01*
X129062Y-53D01*
X128664Y-456D01*
X128118Y-957D01*
X127424Y-1555D01*
X126583Y-2251D01*
X126105Y-2653D01*
X125679Y-3034D01*
X125304Y-3395D01*
X124980Y-3736D01*
X124703Y-4063D01*
X124468Y-4385D01*
X124274Y-4700D01*
X124122Y-5010D01*
X130559Y-5010D01*
X130559Y-6350D01*
G37*
G36*
X232278Y-6350D02*
X224107Y-6350D01*
X224107Y-5238D01*
X224342Y-4740D01*
X224602Y-4273D01*
X224887Y-3836D01*
X225197Y-3429D01*
X225523Y-3046D01*
X225857Y-2682D01*
X226200Y-2337D01*
X226550Y-2010D01*
X227256Y-1398D01*
X227956Y-832D01*
X228618Y-289D01*
X229213Y254D01*
X229480Y529D01*
X229720Y810D01*
X229933Y1098D01*
X230119Y1393D01*
X230271Y1700D01*
X230379Y2028D01*
X230444Y2375D01*
X230465Y2741D01*
X230456Y2988D01*
X230428Y3221D01*
X230381Y3439D01*
X230316Y3643D01*
X230233Y3833D01*
X230130Y4009D01*
X230009Y4171D01*
X229870Y4318D01*
X229713Y4449D01*
X229543Y4563D01*
X229358Y4659D01*
X229158Y4738D01*
X228944Y4800D01*
X228715Y4843D01*
X228472Y4870D01*
X228214Y4878D01*
X227968Y4870D01*
X227733Y4844D01*
X227509Y4801D01*
X227296Y4742D01*
X227094Y4665D01*
X226903Y4571D01*
X226723Y4459D01*
X226555Y4331D01*
X226400Y4187D01*
X226262Y4030D01*
X226141Y3858D01*
X226037Y3673D01*
X225949Y3474D01*
X225879Y3261D01*
X225825Y3034D01*
X225788Y2794D01*
X224177Y2943D01*
X224235Y3303D01*
X224321Y3645D01*
X224435Y3968D01*
X224578Y4272D01*
X224750Y4557D01*
X224949Y4823D01*
X225177Y5070D01*
X225433Y5299D01*
X225713Y5504D01*
X226013Y5682D01*
X226332Y5833D01*
X226669Y5956D01*
X227027Y6052D01*
X227403Y6120D01*
X227799Y6161D01*
X228214Y6175D01*
X228667Y6161D01*
X229093Y6120D01*
X229492Y6051D01*
X229864Y5955D01*
X230209Y5831D01*
X230527Y5680D01*
X230818Y5501D01*
X231083Y5294D01*
X231318Y5063D01*
X231521Y4808D01*
X231694Y4530D01*
X231835Y4229D01*
X231945Y3905D01*
X232023Y3558D01*
X232070Y3187D01*
X232086Y2794D01*
X232065Y2435D01*
X232003Y2078D01*
X231901Y1722D01*
X231757Y1366D01*
X231573Y1012D01*
X231349Y657D01*
X231085Y302D01*
X230781Y-53D01*
X230383Y-456D01*
X229837Y-957D01*
X229143Y-1555D01*
X228302Y-2251D01*
X227824Y-2653D01*
X227398Y-3034D01*
X227023Y-3395D01*
X226699Y-3736D01*
X226422Y-4063D01*
X226187Y-4385D01*
X225993Y-4700D01*
X225841Y-5010D01*
X232278Y-5010D01*
X232278Y-6350D01*
G37*
G36*
X252216Y-6350D02*
X244044Y-6350D01*
X244044Y-5238D01*
X244280Y-4740D01*
X244540Y-4273D01*
X244825Y-3836D01*
X245134Y-3429D01*
X245460Y-3046D01*
X245795Y-2682D01*
X246137Y-2337D01*
X246488Y-2010D01*
X247194Y-1398D01*
X247893Y-832D01*
X248556Y-289D01*
X249150Y254D01*
X249417Y529D01*
X249657Y810D01*
X249870Y1098D01*
X250057Y1393D01*
X250208Y1700D01*
X250316Y2028D01*
X250381Y2375D01*
X250403Y2741D01*
X250393Y2988D01*
X250365Y3221D01*
X250319Y3439D01*
X250254Y3643D01*
X250170Y3833D01*
X250068Y4009D01*
X249947Y4171D01*
X249807Y4318D01*
X249651Y4449D01*
X249480Y4563D01*
X249295Y4659D01*
X249095Y4738D01*
X248881Y4800D01*
X248653Y4843D01*
X248409Y4870D01*
X248152Y4878D01*
X247905Y4870D01*
X247670Y4844D01*
X247446Y4801D01*
X247233Y4742D01*
X247031Y4665D01*
X246840Y4571D01*
X246661Y4459D01*
X246492Y4331D01*
X246337Y4187D01*
X246199Y4030D01*
X246078Y3858D01*
X245974Y3673D01*
X245887Y3474D01*
X245816Y3261D01*
X245763Y3034D01*
X245726Y2794D01*
X244114Y2943D01*
X244172Y3303D01*
X244258Y3645D01*
X244373Y3968D01*
X244516Y4272D01*
X244687Y4557D01*
X244887Y4823D01*
X245115Y5070D01*
X245371Y5299D01*
X245651Y5504D01*
X245950Y5682D01*
X246269Y5833D01*
X246607Y5956D01*
X246964Y6052D01*
X247341Y6120D01*
X247737Y6161D01*
X248152Y6175D01*
X248605Y6161D01*
X249031Y6120D01*
X249430Y6051D01*
X249802Y5955D01*
X250147Y5831D01*
X250465Y5680D01*
X250756Y5501D01*
X251020Y5294D01*
X251255Y5063D01*
X251459Y4808D01*
X251631Y4530D01*
X251772Y4229D01*
X251882Y3905D01*
X251960Y3558D01*
X252007Y3187D01*
X252023Y2794D01*
X252003Y2435D01*
X251941Y2078D01*
X251838Y1722D01*
X251695Y1366D01*
X251510Y1012D01*
X251286Y657D01*
X251022Y302D01*
X250718Y-53D01*
X250320Y-456D01*
X249774Y-957D01*
X249081Y-1555D01*
X248239Y-2251D01*
X247761Y-2653D01*
X247335Y-3034D01*
X246960Y-3395D01*
X246637Y-3736D01*
X246360Y-4063D01*
X246124Y-4385D01*
X245930Y-4700D01*
X245778Y-5010D01*
X252216Y-5010D01*
X252216Y-6350D01*
G37*
G36*
X6650Y-6350D02*
X5073Y-6350D01*
X5073Y1104D01*
X5060Y2437D01*
X5044Y2862D01*
X5021Y3127D01*
X6509Y3127D01*
X6527Y2890D01*
X6549Y2448D01*
X6580Y1506D01*
X6606Y1506D01*
X6888Y1961D01*
X7192Y2344D01*
X7351Y2509D01*
X7516Y2655D01*
X7687Y2784D01*
X7863Y2895D01*
X8047Y2990D01*
X8241Y3073D01*
X8447Y3143D01*
X8663Y3200D01*
X8890Y3245D01*
X9128Y3276D01*
X9377Y3296D01*
X9636Y3302D01*
X10013Y3290D01*
X10364Y3253D01*
X10688Y3193D01*
X10986Y3108D01*
X11258Y2999D01*
X11504Y2866D01*
X11724Y2708D01*
X11918Y2527D01*
X12087Y2317D01*
X12234Y2076D01*
X12358Y1803D01*
X12460Y1499D01*
X12539Y1163D01*
X12595Y795D01*
X12629Y396D01*
X12640Y-35D01*
X12640Y-6350D01*
X11055Y-6350D01*
X11055Y-342D01*
X11044Y101D01*
X11009Y490D01*
X10952Y828D01*
X10871Y1112D01*
X10766Y1353D01*
X10633Y1557D01*
X10472Y1725D01*
X10284Y1857D01*
X10059Y1956D01*
X9787Y2028D01*
X9468Y2070D01*
X9102Y2084D01*
X8825Y2072D01*
X8563Y2036D01*
X8316Y1975D01*
X8084Y1890D01*
X7867Y1780D01*
X7665Y1646D01*
X7478Y1488D01*
X7307Y1305D01*
X7153Y1101D01*
X7019Y877D01*
X6906Y635D01*
X6814Y374D01*
X6742Y95D01*
X6691Y-204D01*
X6660Y-522D01*
X6650Y-858D01*
X6650Y-6350D01*
G37*
G36*
X145555Y-6350D02*
X137821Y-6350D01*
X137821Y-5010D01*
X140965Y-5010D01*
X140965Y4484D01*
X138180Y2496D01*
X138180Y3985D01*
X141096Y5991D01*
X142550Y5991D01*
X142550Y-5010D01*
X145555Y-5010D01*
X145555Y-6350D01*
G37*
G36*
X160426Y-6525D02*
X160044Y-6513D01*
X159682Y-6475D01*
X159340Y-6411D01*
X159017Y-6323D01*
X158715Y-6209D01*
X158433Y-6069D01*
X158170Y-5905D01*
X157927Y-5715D01*
X157705Y-5500D01*
X157502Y-5259D01*
X157319Y-4993D01*
X157156Y-4702D01*
X157013Y-4386D01*
X156890Y-4044D01*
X156787Y-3677D01*
X156703Y-3285D01*
X158341Y-3013D01*
X158387Y-3260D01*
X158445Y-3493D01*
X158515Y-3712D01*
X158597Y-3917D01*
X158692Y-4109D01*
X158799Y-4286D01*
X158919Y-4449D01*
X159051Y-4598D01*
X159193Y-4732D01*
X159344Y-4847D01*
X159504Y-4945D01*
X159673Y-5025D01*
X159850Y-5088D01*
X160036Y-5132D01*
X160231Y-5159D01*
X160435Y-5168D01*
X160656Y-5158D01*
X160866Y-5128D01*
X161064Y-5080D01*
X161249Y-5011D01*
X161423Y-4923D01*
X161584Y-4815D01*
X161734Y-4688D01*
X161871Y-4541D01*
X161994Y-4376D01*
X162101Y-4192D01*
X162191Y-3990D01*
X162265Y-3770D01*
X162323Y-3531D01*
X162364Y-3274D01*
X162388Y-3000D01*
X162396Y-2706D01*
X162396Y4624D01*
X160023Y4624D01*
X160023Y5991D01*
X164061Y5991D01*
X164061Y-2671D01*
X164045Y-3108D01*
X164000Y-3521D01*
X163924Y-3910D01*
X163818Y-4275D01*
X163681Y-4616D01*
X163514Y-4934D01*
X163316Y-5227D01*
X163088Y-5496D01*
X162834Y-5737D01*
X162557Y-5946D01*
X162258Y-6123D01*
X161937Y-6268D01*
X161593Y-6380D01*
X161226Y-6461D01*
X160837Y-6509D01*
X160426Y-6525D01*
G37*
G36*
X60548Y-6525D02*
X60066Y-6506D01*
X59613Y-6447D01*
X59189Y-6348D01*
X58795Y-6211D01*
X58430Y-6034D01*
X58095Y-5818D01*
X57789Y-5563D01*
X57513Y-5268D01*
X57268Y-4936D01*
X57055Y-4568D01*
X56875Y-4164D01*
X56728Y-3724D01*
X56614Y-3247D01*
X56532Y-2735D01*
X56483Y-2187D01*
X56466Y-1603D01*
X56483Y-1023D01*
X56532Y-478D01*
X56614Y31D01*
X56729Y505D01*
X56877Y943D01*
X57058Y1346D01*
X57271Y1713D01*
X57517Y2045D01*
X57794Y2340D01*
X58100Y2595D01*
X58434Y2811D01*
X58796Y2988D01*
X59187Y3125D01*
X59606Y3223D01*
X60054Y3282D01*
X60530Y3302D01*
X60886Y3290D01*
X61226Y3255D01*
X61551Y3196D01*
X61861Y3114D01*
X62154Y3008D01*
X62433Y2878D01*
X62696Y2725D01*
X62943Y2549D01*
X63172Y2351D01*
X63378Y2136D01*
X63562Y1904D01*
X63724Y1653D01*
X63863Y1385D01*
X63980Y1099D01*
X64075Y795D01*
X64148Y473D01*
X62527Y350D01*
X62442Y724D01*
X62311Y1058D01*
X62132Y1350D01*
X61905Y1603D01*
X61774Y1712D01*
X61630Y1806D01*
X61472Y1886D01*
X61301Y1951D01*
X61117Y2002D01*
X60920Y2038D01*
X60710Y2060D01*
X60487Y2067D01*
X60184Y2054D01*
X59904Y2015D01*
X59644Y1950D01*
X59407Y1859D01*
X59191Y1742D01*
X58997Y1599D01*
X58824Y1430D01*
X58674Y1235D01*
X58542Y1009D01*
X58428Y748D01*
X58332Y451D01*
X58253Y118D01*
X58192Y-250D01*
X58148Y-654D01*
X58122Y-1093D01*
X58113Y-1568D01*
X58122Y-2025D01*
X58150Y-2452D01*
X58197Y-2849D01*
X58262Y-3214D01*
X58346Y-3549D01*
X58448Y-3854D01*
X58569Y-4128D01*
X58709Y-4371D01*
X58867Y-4584D01*
X59044Y-4769D01*
X59240Y-4926D01*
X59455Y-5054D01*
X59689Y-5153D01*
X59942Y-5225D01*
X60214Y-5267D01*
X60504Y-5281D01*
X60710Y-5274D01*
X60907Y-5253D01*
X61096Y-5217D01*
X61276Y-5168D01*
X61447Y-5104D01*
X61610Y-5025D01*
X61764Y-4933D01*
X61910Y-4826D01*
X62044Y-4705D01*
X62165Y-4568D01*
X62273Y-4415D01*
X62366Y-4248D01*
X62447Y-4065D01*
X62513Y-3867D01*
X62566Y-3653D01*
X62606Y-3425D01*
X64200Y-3530D01*
X64142Y-3863D01*
X64058Y-4178D01*
X63950Y-4477D01*
X63817Y-4758D01*
X63659Y-5022D01*
X63476Y-5269D01*
X63268Y-5498D01*
X63035Y-5711D01*
X62782Y-5902D01*
X62512Y-6067D01*
X62226Y-6207D01*
X61923Y-6322D01*
X61604Y-6411D01*
X61268Y-6474D01*
X60916Y-6512D01*
X60548Y-6525D01*
G37*
G36*
X98423Y-6525D02*
X97941Y-6506D01*
X97488Y-6447D01*
X97064Y-6348D01*
X96670Y-6211D01*
X96305Y-6034D01*
X95970Y-5818D01*
X95664Y-5563D01*
X95388Y-5268D01*
X95143Y-4936D01*
X94930Y-4568D01*
X94750Y-4164D01*
X94603Y-3724D01*
X94489Y-3247D01*
X94407Y-2735D01*
X94358Y-2187D01*
X94341Y-1603D01*
X94358Y-1023D01*
X94407Y-478D01*
X94489Y31D01*
X94604Y505D01*
X94752Y943D01*
X94933Y1346D01*
X95146Y1713D01*
X95392Y2045D01*
X95669Y2340D01*
X95975Y2595D01*
X96309Y2811D01*
X96671Y2988D01*
X97062Y3125D01*
X97481Y3223D01*
X97929Y3282D01*
X98405Y3302D01*
X98761Y3290D01*
X99101Y3255D01*
X99426Y3196D01*
X99736Y3114D01*
X100029Y3008D01*
X100308Y2878D01*
X100571Y2725D01*
X100818Y2549D01*
X101047Y2351D01*
X101253Y2136D01*
X101437Y1904D01*
X101599Y1653D01*
X101738Y1385D01*
X101855Y1099D01*
X101950Y795D01*
X102023Y473D01*
X100402Y350D01*
X100317Y724D01*
X100186Y1058D01*
X100007Y1350D01*
X99780Y1603D01*
X99649Y1712D01*
X99505Y1806D01*
X99347Y1886D01*
X99176Y1951D01*
X98992Y2002D01*
X98795Y2038D01*
X98585Y2060D01*
X98362Y2067D01*
X98059Y2054D01*
X97779Y2015D01*
X97519Y1950D01*
X97282Y1859D01*
X97066Y1742D01*
X96872Y1599D01*
X96699Y1430D01*
X96549Y1235D01*
X96417Y1009D01*
X96303Y748D01*
X96207Y451D01*
X96128Y118D01*
X96067Y-250D01*
X96023Y-654D01*
X95997Y-1093D01*
X95988Y-1568D01*
X95997Y-2025D01*
X96025Y-2452D01*
X96072Y-2849D01*
X96137Y-3214D01*
X96221Y-3549D01*
X96323Y-3854D01*
X96444Y-4128D01*
X96584Y-4371D01*
X96742Y-4584D01*
X96919Y-4769D01*
X97115Y-4926D01*
X97330Y-5054D01*
X97564Y-5153D01*
X97817Y-5225D01*
X98089Y-5267D01*
X98379Y-5281D01*
X98585Y-5274D01*
X98782Y-5253D01*
X98971Y-5217D01*
X99151Y-5168D01*
X99322Y-5104D01*
X99485Y-5025D01*
X99639Y-4933D01*
X99785Y-4826D01*
X99919Y-4705D01*
X100040Y-4568D01*
X100148Y-4415D01*
X100241Y-4248D01*
X100322Y-4065D01*
X100388Y-3867D01*
X100441Y-3653D01*
X100481Y-3425D01*
X102075Y-3530D01*
X102017Y-3863D01*
X101933Y-4178D01*
X101825Y-4477D01*
X101692Y-4758D01*
X101534Y-5022D01*
X101351Y-5269D01*
X101143Y-5498D01*
X100910Y-5711D01*
X100657Y-5902D01*
X100387Y-6067D01*
X100101Y-6207D01*
X99798Y-6322D01*
X99479Y-6411D01*
X99143Y-6474D01*
X98791Y-6512D01*
X98423Y-6525D01*
G37*
G36*
X33944Y-9915D02*
X23495Y-9915D01*
X23495Y-8776D01*
X33944Y-8776D01*
X33944Y-9915D01*
G37*
G36*
X121694Y-9915D02*
X111245Y-9915D01*
X111245Y-8776D01*
X121694Y-8776D01*
X121694Y-9915D01*
G37*
G36*
X156601Y-9915D02*
X146152Y-9915D01*
X146152Y-8776D01*
X156601Y-8776D01*
X156601Y-9915D01*
G37*
G36*
X223382Y-9915D02*
X212933Y-9915D01*
X212933Y-8776D01*
X223382Y-8776D01*
X223382Y-9915D01*
G37*
G36*
X134831Y-6350D02*
X133123Y-6350D01*
X133123Y-4432D01*
X134831Y-4432D01*
X134831Y-6350D01*
G37*
D10*
X0Y25400D02*
X0Y152700D01*
X0Y25400D02*
X390000Y25400D01*
X390000Y152700D01*
X0Y152700D01*
D11*
X615950Y38100D02*
X622300Y31750D01*
X622300Y19050D02*
X615950Y12700D01*
X596900Y19050D02*
X596900Y31750D01*
X603250Y38100D01*
X596900Y19050D02*
X603250Y12700D01*
X615950Y12700D01*
X622300Y57150D02*
X615950Y63500D01*
X622300Y44450D02*
X615950Y38100D01*
X596900Y44450D02*
X596900Y57150D01*
X603250Y63500D01*
X596900Y44450D02*
X603250Y38100D01*
X615950Y38100D01*
X622300Y82550D02*
X615950Y88900D01*
X622300Y82550D02*
X622300Y69850D01*
X615950Y63500D01*
X596900Y69850D02*
X596900Y82550D01*
X603250Y88900D01*
X596900Y69850D02*
X603250Y63500D01*
X615950Y63500D01*
X622300Y107950D02*
X615950Y114300D01*
X622300Y107950D02*
X622300Y95250D01*
X615950Y88900D01*
X596900Y95250D02*
X596900Y107950D01*
X603250Y114300D01*
X596900Y95250D02*
X603250Y88900D01*
X615950Y88900D01*
X615950Y139700D02*
X603250Y139700D01*
X615950Y139700D02*
X622300Y133350D01*
X622300Y120650D01*
X615950Y114300D01*
X596900Y120650D02*
X596900Y133350D01*
X603250Y139700D01*
X596900Y120650D02*
X603250Y114300D01*
X615950Y114300D01*
X641350Y38100D02*
X647700Y31750D01*
X647700Y19050D01*
X641350Y12700D01*
X622300Y19050D02*
X622300Y31750D01*
X628650Y38100D01*
X622300Y19050D02*
X628650Y12700D01*
X641350Y12700D01*
X641350Y38100D02*
X647700Y44450D01*
X622300Y44450D02*
X622300Y57150D01*
X628650Y63500D01*
X622300Y44450D02*
X628650Y38100D01*
X641350Y38100D01*
X553720Y119380D02*
X553720Y121920D01*
X538480Y121920D01*
X538480Y119380D01*
X538480Y58420D02*
X538480Y55880D01*
X553720Y55880D01*
X553720Y58420D01*
D12*
X518160Y76200D02*
X515620Y76200D01*
X518160Y76200D02*
X518160Y101600D01*
X515620Y101600D01*
X574040Y100330D02*
X574040Y76200D01*
X574040Y100330D02*
X576580Y100330D01*
X576580Y76200D02*
X574040Y76200D01*
D11*
X576580Y76200D02*
X576580Y67310D01*
X515620Y101600D02*
X515620Y110490D01*
X515620Y101600D02*
X515620Y76200D01*
X515620Y67310D01*
X576580Y76200D02*
X576580Y100330D01*
X576580Y110490D01*
X556260Y119380D02*
X553720Y119380D01*
X538480Y119380D02*
X535940Y119380D01*
X553720Y58420D02*
X556260Y58420D01*
X538480Y58420D02*
X535940Y58420D01*
X528320Y88900D02*
X528325Y89336D01*
X528341Y89772D01*
X528368Y90208D01*
X528406Y90643D01*
X528454Y91076D01*
X528512Y91509D01*
X528582Y91940D01*
X528662Y92369D01*
X528752Y92796D01*
X528853Y93220D01*
X528964Y93642D01*
X529086Y94061D01*
X529217Y94477D01*
X529359Y94890D01*
X529511Y95299D01*
X529673Y95704D01*
X529845Y96105D01*
X530027Y96502D01*
X530218Y96894D01*
X530419Y97281D01*
X530630Y97664D01*
X530850Y98041D01*
X531079Y98412D01*
X531316Y98778D01*
X531563Y99138D01*
X531819Y99492D01*
X532083Y99839D01*
X532356Y100180D01*
X532637Y100513D01*
X532926Y100840D01*
X533223Y101160D01*
X533528Y101472D01*
X533840Y101777D01*
X534160Y102074D01*
X534487Y102363D01*
X534820Y102644D01*
X535161Y102917D01*
X535508Y103181D01*
X535862Y103437D01*
X536222Y103684D01*
X536588Y103921D01*
X536959Y104150D01*
X537336Y104370D01*
X537719Y104581D01*
X538106Y104782D01*
X538498Y104973D01*
X538895Y105155D01*
X539296Y105327D01*
X539701Y105489D01*
X540110Y105641D01*
X540523Y105783D01*
X540939Y105914D01*
X541358Y106036D01*
X541780Y106147D01*
X542204Y106248D01*
X542631Y106338D01*
X543060Y106418D01*
X543491Y106488D01*
X543924Y106546D01*
X544357Y106594D01*
X544792Y106632D01*
X545228Y106659D01*
X545664Y106675D01*
X546100Y106680D01*
X546536Y106675D01*
X546972Y106659D01*
X547408Y106632D01*
X547843Y106594D01*
X548276Y106546D01*
X548709Y106488D01*
X549140Y106418D01*
X549569Y106338D01*
X549996Y106248D01*
X550420Y106147D01*
X550842Y106036D01*
X551261Y105914D01*
X551677Y105783D01*
X552090Y105641D01*
X552499Y105489D01*
X552904Y105327D01*
X553305Y105155D01*
X553702Y104973D01*
X554094Y104782D01*
X554481Y104581D01*
X554864Y104370D01*
X555241Y104150D01*
X555612Y103921D01*
X555978Y103684D01*
X556338Y103437D01*
X556692Y103181D01*
X557039Y102917D01*
X557380Y102644D01*
X557713Y102363D01*
X558040Y102074D01*
X558360Y101777D01*
X558672Y101472D01*
X558977Y101160D01*
X559274Y100840D01*
X559563Y100513D01*
X559844Y100180D01*
X560117Y99839D01*
X560381Y99492D01*
X560637Y99138D01*
X560884Y98778D01*
X561121Y98412D01*
X561350Y98041D01*
X561570Y97664D01*
X561781Y97281D01*
X561982Y96894D01*
X562173Y96502D01*
X562355Y96105D01*
X562527Y95704D01*
X562689Y95299D01*
X562841Y94890D01*
X562983Y94477D01*
X563114Y94061D01*
X563236Y93642D01*
X563347Y93220D01*
X563448Y92796D01*
X563538Y92369D01*
X563618Y91940D01*
X563688Y91509D01*
X563746Y91076D01*
X563794Y90643D01*
X563832Y90208D01*
X563859Y89772D01*
X563875Y89336D01*
X563880Y88900D01*
X563875Y88464D01*
X563859Y88028D01*
X563832Y87592D01*
X563794Y87157D01*
X563746Y86724D01*
X563688Y86291D01*
X563618Y85860D01*
X563538Y85431D01*
X563448Y85004D01*
X563347Y84580D01*
X563236Y84158D01*
X563114Y83739D01*
X562983Y83323D01*
X562841Y82910D01*
X562689Y82501D01*
X562527Y82096D01*
X562355Y81695D01*
X562173Y81298D01*
X561982Y80906D01*
X561781Y80519D01*
X561570Y80136D01*
X561350Y79759D01*
X561121Y79388D01*
X560884Y79022D01*
X560637Y78662D01*
X560381Y78308D01*
X560117Y77961D01*
X559844Y77620D01*
X559563Y77287D01*
X559274Y76960D01*
X558977Y76640D01*
X558672Y76328D01*
X558360Y76023D01*
X558040Y75726D01*
X557713Y75437D01*
X557380Y75156D01*
X557039Y74883D01*
X556692Y74619D01*
X556338Y74363D01*
X555978Y74116D01*
X555612Y73879D01*
X555241Y73650D01*
X554864Y73430D01*
X554481Y73219D01*
X554094Y73018D01*
X553702Y72827D01*
X553305Y72645D01*
X552904Y72473D01*
X552499Y72311D01*
X552090Y72159D01*
X551677Y72017D01*
X551261Y71886D01*
X550842Y71764D01*
X550420Y71653D01*
X549996Y71552D01*
X549569Y71462D01*
X549140Y71382D01*
X548709Y71312D01*
X548276Y71254D01*
X547843Y71206D01*
X547408Y71168D01*
X546972Y71141D01*
X546536Y71125D01*
X546100Y71120D01*
X545664Y71125D01*
X545228Y71141D01*
X544792Y71168D01*
X544357Y71206D01*
X543924Y71254D01*
X543491Y71312D01*
X543060Y71382D01*
X542631Y71462D01*
X542204Y71552D01*
X541780Y71653D01*
X541358Y71764D01*
X540939Y71886D01*
X540523Y72017D01*
X540110Y72159D01*
X539701Y72311D01*
X539296Y72473D01*
X538895Y72645D01*
X538498Y72827D01*
X538106Y73018D01*
X537719Y73219D01*
X537336Y73430D01*
X536959Y73650D01*
X536588Y73879D01*
X536222Y74116D01*
X535862Y74363D01*
X535508Y74619D01*
X535161Y74883D01*
X534820Y75156D01*
X534487Y75437D01*
X534160Y75726D01*
X533840Y76023D01*
X533528Y76328D01*
X533223Y76640D01*
X532926Y76960D01*
X532637Y77287D01*
X532356Y77620D01*
X532083Y77961D01*
X531819Y78308D01*
X531563Y78662D01*
X531316Y79022D01*
X531079Y79388D01*
X530850Y79759D01*
X530630Y80136D01*
X530419Y80519D01*
X530218Y80906D01*
X530027Y81298D01*
X529845Y81695D01*
X529673Y82096D01*
X529511Y82501D01*
X529359Y82910D01*
X529217Y83323D01*
X529086Y83739D01*
X528964Y84158D01*
X528853Y84580D01*
X528752Y85004D01*
X528662Y85431D01*
X528582Y85860D01*
X528512Y86291D01*
X528454Y86724D01*
X528406Y87157D01*
X528368Y87592D01*
X528341Y88028D01*
X528325Y88464D01*
X528320Y88900D01*
X543560Y88900D02*
X543562Y89000D01*
X543568Y89101D01*
X543578Y89200D01*
X543592Y89300D01*
X543609Y89399D01*
X543631Y89497D01*
X543657Y89594D01*
X543686Y89690D01*
X543719Y89784D01*
X543756Y89878D01*
X543796Y89970D01*
X543840Y90060D01*
X543888Y90148D01*
X543939Y90235D01*
X543993Y90319D01*
X544051Y90401D01*
X544112Y90481D01*
X544176Y90558D01*
X544243Y90633D01*
X544313Y90705D01*
X544386Y90774D01*
X544461Y90840D01*
X544539Y90904D01*
X544619Y90964D01*
X544702Y91021D01*
X544787Y91074D01*
X544874Y91124D01*
X544963Y91171D01*
X545053Y91214D01*
X545145Y91254D01*
X545239Y91290D01*
X545334Y91322D01*
X545430Y91350D01*
X545528Y91375D01*
X545626Y91395D01*
X545725Y91412D01*
X545825Y91425D01*
X545924Y91434D01*
X546025Y91439D01*
X546125Y91440D01*
X546225Y91437D01*
X546326Y91430D01*
X546425Y91419D01*
X546525Y91404D01*
X546623Y91386D01*
X546721Y91363D01*
X546818Y91336D01*
X546913Y91306D01*
X547008Y91272D01*
X547101Y91234D01*
X547192Y91193D01*
X547282Y91148D01*
X547370Y91100D01*
X547456Y91048D01*
X547540Y90993D01*
X547621Y90934D01*
X547700Y90872D01*
X547777Y90808D01*
X547851Y90740D01*
X547922Y90669D01*
X547991Y90596D01*
X548056Y90520D01*
X548119Y90441D01*
X548178Y90360D01*
X548234Y90277D01*
X548287Y90192D01*
X548336Y90104D01*
X548382Y90015D01*
X548424Y89924D01*
X548463Y89831D01*
X548498Y89737D01*
X548529Y89642D01*
X548557Y89545D01*
X548580Y89448D01*
X548600Y89349D01*
X548616Y89250D01*
X548628Y89151D01*
X548636Y89050D01*
X548640Y88950D01*
X548640Y88850D01*
X548636Y88750D01*
X548628Y88649D01*
X548616Y88550D01*
X548600Y88451D01*
X548580Y88352D01*
X548557Y88255D01*
X548529Y88158D01*
X548498Y88063D01*
X548463Y87969D01*
X548424Y87876D01*
X548382Y87785D01*
X548336Y87696D01*
X548287Y87608D01*
X548234Y87523D01*
X548178Y87440D01*
X548119Y87359D01*
X548056Y87280D01*
X547991Y87204D01*
X547922Y87131D01*
X547851Y87060D01*
X547777Y86992D01*
X547700Y86928D01*
X547621Y86866D01*
X547540Y86807D01*
X547456Y86752D01*
X547370Y86700D01*
X547282Y86652D01*
X547192Y86607D01*
X547101Y86566D01*
X547008Y86528D01*
X546913Y86494D01*
X546818Y86464D01*
X546721Y86437D01*
X546623Y86414D01*
X546525Y86396D01*
X546425Y86381D01*
X546326Y86370D01*
X546225Y86363D01*
X546125Y86360D01*
X546025Y86361D01*
X545924Y86366D01*
X545825Y86375D01*
X545725Y86388D01*
X545626Y86405D01*
X545528Y86425D01*
X545430Y86450D01*
X545334Y86478D01*
X545239Y86510D01*
X545145Y86546D01*
X545053Y86586D01*
X544963Y86629D01*
X544874Y86676D01*
X544787Y86726D01*
X544702Y86779D01*
X544619Y86836D01*
X544539Y86896D01*
X544461Y86960D01*
X544386Y87026D01*
X544313Y87095D01*
X544243Y87167D01*
X544176Y87242D01*
X544112Y87319D01*
X544051Y87399D01*
X543993Y87481D01*
X543939Y87565D01*
X543888Y87652D01*
X543840Y87740D01*
X543796Y87830D01*
X543756Y87922D01*
X543719Y88016D01*
X543686Y88110D01*
X543657Y88206D01*
X543631Y88303D01*
X543609Y88401D01*
X543592Y88500D01*
X543578Y88600D01*
X543568Y88699D01*
X543562Y88800D01*
X543560Y88900D01*
D10*
X495300Y114300D02*
X495300Y50800D01*
X419100Y50800D01*
X419100Y114300D01*
D13*
X431800Y101600D02*
X482600Y101600D01*
X457200Y119380D02*
X457200Y81280D01*
D10*
X419100Y114300D02*
X419107Y114914D01*
X419130Y115527D01*
X419167Y116140D01*
X419219Y116751D01*
X419285Y117362D01*
X419367Y117970D01*
X419463Y118576D01*
X419573Y119180D01*
X419698Y119781D01*
X419838Y120379D01*
X419992Y120973D01*
X420161Y121563D01*
X420343Y122149D01*
X420540Y122730D01*
X420751Y123307D01*
X420975Y123878D01*
X421213Y124444D01*
X421465Y125004D01*
X421731Y125557D01*
X422009Y126104D01*
X422301Y126644D01*
X422606Y127177D01*
X422924Y127702D01*
X423254Y128220D01*
X423596Y128729D01*
X423951Y129230D01*
X424318Y129722D01*
X424696Y130205D01*
X425086Y130679D01*
X425488Y131143D01*
X425900Y131598D01*
X426324Y132042D01*
X426758Y132476D01*
X427202Y132900D01*
X427657Y133312D01*
X428121Y133714D01*
X428595Y134104D01*
X429078Y134482D01*
X429570Y134849D01*
X430071Y135204D01*
X430580Y135546D01*
X431098Y135876D01*
X431623Y136194D01*
X432156Y136499D01*
X432696Y136791D01*
X433243Y137069D01*
X433796Y137335D01*
X434356Y137587D01*
X434922Y137825D01*
X435493Y138049D01*
X436070Y138260D01*
X436651Y138457D01*
X437237Y138639D01*
X437827Y138808D01*
X438421Y138962D01*
X439019Y139102D01*
X439620Y139227D01*
X440224Y139337D01*
X440830Y139433D01*
X441438Y139515D01*
X442049Y139581D01*
X442660Y139633D01*
X443273Y139670D01*
X443886Y139693D01*
X444500Y139700D01*
X469900Y139700D01*
X470514Y139693D01*
X471127Y139670D01*
X471740Y139633D01*
X472351Y139581D01*
X472962Y139515D01*
X473570Y139433D01*
X474176Y139337D01*
X474780Y139227D01*
X475381Y139102D01*
X475979Y138962D01*
X476573Y138808D01*
X477163Y138639D01*
X477749Y138457D01*
X478330Y138260D01*
X478907Y138049D01*
X479478Y137825D01*
X480044Y137587D01*
X480604Y137335D01*
X481157Y137069D01*
X481704Y136791D01*
X482244Y136499D01*
X482777Y136194D01*
X483302Y135876D01*
X483820Y135546D01*
X484329Y135204D01*
X484830Y134849D01*
X485322Y134482D01*
X485805Y134104D01*
X486279Y133714D01*
X486743Y133312D01*
X487198Y132900D01*
X487642Y132476D01*
X488076Y132042D01*
X488500Y131598D01*
X488912Y131143D01*
X489314Y130679D01*
X489704Y130205D01*
X490082Y129722D01*
X490449Y129230D01*
X490804Y128729D01*
X491146Y128220D01*
X491476Y127702D01*
X491794Y127177D01*
X492099Y126644D01*
X492391Y126104D01*
X492669Y125557D01*
X492935Y125004D01*
X493187Y124444D01*
X493425Y123878D01*
X493649Y123307D01*
X493860Y122730D01*
X494057Y122149D01*
X494239Y121563D01*
X494408Y120973D01*
X494562Y120379D01*
X494702Y119781D01*
X494827Y119180D01*
X494937Y118576D01*
X495033Y117970D01*
X495115Y117362D01*
X495181Y116751D01*
X495233Y116140D01*
X495270Y115527D01*
X495293Y114914D01*
X495300Y114300D01*
X419100Y101600D02*
X419111Y102535D01*
X419146Y103469D01*
X419203Y104403D01*
X419283Y105334D01*
X419387Y106264D01*
X419512Y107190D01*
X419661Y108114D01*
X419832Y109033D01*
X420026Y109948D01*
X420242Y110858D01*
X420480Y111762D01*
X420741Y112660D01*
X421023Y113551D01*
X421327Y114436D01*
X421653Y115312D01*
X422000Y116180D01*
X422369Y117040D01*
X422758Y117890D01*
X423168Y118730D01*
X423599Y119560D01*
X424050Y120379D01*
X424521Y121187D01*
X425011Y121983D01*
X425521Y122767D01*
X426050Y123538D01*
X426598Y124296D01*
X427164Y125040D01*
X427748Y125770D01*
X428350Y126486D01*
X428970Y127186D01*
X429606Y127871D01*
X430259Y128541D01*
X430929Y129194D01*
X431614Y129830D01*
X432314Y130450D01*
X433030Y131052D01*
X433760Y131636D01*
X434504Y132202D01*
X435262Y132750D01*
X436033Y133279D01*
X436817Y133789D01*
X437613Y134279D01*
X438421Y134750D01*
X439240Y135201D01*
X440070Y135632D01*
X440910Y136042D01*
X441760Y136431D01*
X442620Y136800D01*
X443488Y137147D01*
X444364Y137473D01*
X445249Y137777D01*
X446140Y138059D01*
X447038Y138320D01*
X447942Y138558D01*
X448852Y138774D01*
X449767Y138968D01*
X450686Y139139D01*
X451610Y139288D01*
X452536Y139413D01*
X453466Y139517D01*
X454397Y139597D01*
X455331Y139654D01*
X456265Y139689D01*
X457200Y139700D01*
X458135Y139689D01*
X459069Y139654D01*
X460003Y139597D01*
X460934Y139517D01*
X461864Y139413D01*
X462790Y139288D01*
X463714Y139139D01*
X464633Y138968D01*
X465548Y138774D01*
X466458Y138558D01*
X467362Y138320D01*
X468260Y138059D01*
X469151Y137777D01*
X470036Y137473D01*
X470912Y137147D01*
X471780Y136800D01*
X472640Y136431D01*
X473490Y136042D01*
X474330Y135632D01*
X475160Y135201D01*
X475979Y134750D01*
X476787Y134279D01*
X477583Y133789D01*
X478367Y133279D01*
X479138Y132750D01*
X479896Y132202D01*
X480640Y131636D01*
X481370Y131052D01*
X482086Y130450D01*
X482786Y129830D01*
X483471Y129194D01*
X484141Y128541D01*
X484794Y127871D01*
X485430Y127186D01*
X486050Y126486D01*
X486652Y125770D01*
X487236Y125040D01*
X487802Y124296D01*
X488350Y123538D01*
X488879Y122767D01*
X489389Y121983D01*
X489879Y121187D01*
X490350Y120379D01*
X490801Y119560D01*
X491232Y118730D01*
X491642Y117890D01*
X492031Y117040D01*
X492400Y116180D01*
X492747Y115312D01*
X493073Y114436D01*
X493377Y113551D01*
X493659Y112660D01*
X493920Y111762D01*
X494158Y110858D01*
X494374Y109948D01*
X494568Y109033D01*
X494739Y108114D01*
X494888Y107190D01*
X495013Y106264D01*
X495117Y105334D01*
X495197Y104403D01*
X495254Y103469D01*
X495289Y102535D01*
X495300Y101600D01*
X495289Y100665D01*
X495254Y99731D01*
X495197Y98797D01*
X495117Y97866D01*
X495013Y96936D01*
X494888Y96010D01*
X494739Y95086D01*
X494568Y94167D01*
X494374Y93252D01*
X494158Y92342D01*
X493920Y91438D01*
X493659Y90540D01*
X493377Y89649D01*
X493073Y88764D01*
X492747Y87888D01*
X492400Y87020D01*
X492031Y86160D01*
X491642Y85310D01*
X491232Y84470D01*
X490801Y83640D01*
X490350Y82821D01*
X489879Y82013D01*
X489389Y81217D01*
X488879Y80433D01*
X488350Y79662D01*
X487802Y78904D01*
X487236Y78160D01*
X486652Y77430D01*
X486050Y76714D01*
X485430Y76014D01*
X484794Y75329D01*
X484141Y74659D01*
X483471Y74006D01*
X482786Y73370D01*
X482086Y72750D01*
X481370Y72148D01*
X480640Y71564D01*
X479896Y70998D01*
X479138Y70450D01*
X478367Y69921D01*
X477583Y69411D01*
X476787Y68921D01*
X475979Y68450D01*
X475160Y67999D01*
X474330Y67568D01*
X473490Y67158D01*
X472640Y66769D01*
X471780Y66400D01*
X470912Y66053D01*
X470036Y65727D01*
X469151Y65423D01*
X468260Y65141D01*
X467362Y64880D01*
X466458Y64642D01*
X465548Y64426D01*
X464633Y64232D01*
X463714Y64061D01*
X462790Y63912D01*
X461864Y63787D01*
X460934Y63683D01*
X460003Y63603D01*
X459069Y63546D01*
X458135Y63511D01*
X457200Y63500D01*
X456265Y63511D01*
X455331Y63546D01*
X454397Y63603D01*
X453466Y63683D01*
X452536Y63787D01*
X451610Y63912D01*
X450686Y64061D01*
X449767Y64232D01*
X448852Y64426D01*
X447942Y64642D01*
X447038Y64880D01*
X446140Y65141D01*
X445249Y65423D01*
X444364Y65727D01*
X443488Y66053D01*
X442620Y66400D01*
X441760Y66769D01*
X440910Y67158D01*
X440070Y67568D01*
X439240Y67999D01*
X438421Y68450D01*
X437613Y68921D01*
X436817Y69411D01*
X436033Y69921D01*
X435262Y70450D01*
X434504Y70998D01*
X433760Y71564D01*
X433030Y72148D01*
X432314Y72750D01*
X431614Y73370D01*
X430929Y74006D01*
X430259Y74659D01*
X429606Y75329D01*
X428970Y76014D01*
X428350Y76714D01*
X427748Y77430D01*
X427164Y78160D01*
X426598Y78904D01*
X426050Y79662D01*
X425521Y80433D01*
X425011Y81217D01*
X424521Y82013D01*
X424050Y82821D01*
X423599Y83640D01*
X423168Y84470D01*
X422758Y85310D01*
X422369Y86160D01*
X422000Y87020D01*
X421653Y87888D01*
X421327Y88764D01*
X421023Y89649D01*
X420741Y90540D01*
X420480Y91438D01*
X420242Y92342D01*
X420026Y93252D01*
X419832Y94167D01*
X419661Y95086D01*
X419512Y96010D01*
X419387Y96936D01*
X419283Y97866D01*
X419203Y98797D01*
X419146Y99731D01*
X419111Y100665D01*
X419100Y101600D01*
D11*
X952500Y14224D02*
X958850Y7874D01*
X958850Y-4826D02*
X952500Y-11176D01*
X933450Y-4826D02*
X933450Y7874D01*
X939800Y14224D01*
X933450Y-4826D02*
X939800Y-11176D01*
X952500Y-11176D01*
X958850Y33274D02*
X952500Y39624D01*
X958850Y20574D02*
X952500Y14224D01*
X933450Y20574D02*
X933450Y33274D01*
X939800Y39624D01*
X933450Y20574D02*
X939800Y14224D01*
X952500Y14224D01*
X952500Y39624D02*
X939800Y39624D01*
X977900Y14224D02*
X984250Y7874D01*
X984250Y-4826D01*
X977900Y-11176D01*
X958850Y-4826D02*
X958850Y7874D01*
X965200Y14224D01*
X958850Y-4826D02*
X965200Y-11176D01*
X977900Y-11176D01*
X977900Y39624D02*
X965200Y39624D01*
X977900Y39624D02*
X984250Y33274D01*
X984250Y20574D01*
X977900Y14224D01*
X958850Y20574D02*
X958850Y33274D01*
X965200Y39624D01*
X958850Y20574D02*
X965200Y14224D01*
X977900Y14224D01*
X984250Y58674D02*
X977900Y65024D01*
X984250Y58674D02*
X984250Y45974D01*
X977900Y39624D01*
X958850Y45974D02*
X958850Y58674D01*
X965200Y65024D01*
X958850Y45974D02*
X965200Y39624D01*
X984250Y84074D02*
X977900Y90424D01*
X984250Y84074D02*
X984250Y71374D01*
X977900Y65024D01*
X958850Y71374D02*
X958850Y84074D01*
X965200Y90424D01*
X958850Y71374D02*
X965200Y65024D01*
X977900Y65024D01*
X977900Y90424D02*
X965200Y90424D01*
D14*
X1098550Y12700D02*
X1111250Y12700D01*
X1117600Y6350D01*
X1117600Y-6350D02*
X1111250Y-12700D01*
X1073150Y12700D02*
X1066800Y6350D01*
X1073150Y12700D02*
X1085850Y12700D01*
X1092200Y6350D01*
X1092200Y-6350D02*
X1085850Y-12700D01*
X1073150Y-12700D01*
X1066800Y-6350D01*
X1092200Y6350D02*
X1098550Y12700D01*
X1092200Y-6350D02*
X1098550Y-12700D01*
X1111250Y-12700D01*
X1035050Y12700D02*
X1022350Y12700D01*
X1035050Y12700D02*
X1041400Y6350D01*
X1041400Y-6350D02*
X1035050Y-12700D01*
X1041400Y6350D02*
X1047750Y12700D01*
X1060450Y12700D01*
X1066800Y6350D01*
X1066800Y-6350D02*
X1060450Y-12700D01*
X1047750Y-12700D01*
X1041400Y-6350D01*
X1016000Y-6350D02*
X1016000Y6350D01*
X1022350Y12700D01*
X1016000Y-6350D02*
X1022350Y-12700D01*
X1035050Y-12700D01*
X1117600Y-6350D02*
X1117600Y6350D01*
X-26162Y44450D02*
X-26162Y57150D01*
X-26162Y44450D02*
X-32512Y38100D01*
X-45212Y38100D02*
X-51562Y44450D01*
X-26162Y82550D02*
X-32512Y88900D01*
X-26162Y82550D02*
X-26162Y69850D01*
X-32512Y63500D01*
X-45212Y63500D02*
X-51562Y69850D01*
X-51562Y82550D01*
X-45212Y88900D01*
X-32512Y63500D02*
X-26162Y57150D01*
X-45212Y63500D02*
X-51562Y57150D01*
X-51562Y44450D01*
X-26162Y120650D02*
X-26162Y133350D01*
X-26162Y120650D02*
X-32512Y114300D01*
X-45212Y114300D02*
X-51562Y120650D01*
X-32512Y114300D02*
X-26162Y107950D01*
X-26162Y95250D01*
X-32512Y88900D01*
X-45212Y88900D02*
X-51562Y95250D01*
X-51562Y107950D01*
X-45212Y114300D01*
X-45212Y139700D02*
X-32512Y139700D01*
X-26162Y133350D01*
X-45212Y139700D02*
X-51562Y133350D01*
X-51562Y120650D01*
X-45212Y38100D02*
X-32512Y38100D01*
D10*
X1055200Y54050D02*
X1055200Y169050D01*
X1055200Y54050D02*
X1129200Y54050D01*
X1129200Y169050D01*
X1055200Y169050D01*
D15*
X1048700Y146050D02*
X1048702Y146113D01*
X1048708Y146175D01*
X1048718Y146237D01*
X1048731Y146299D01*
X1048749Y146359D01*
X1048770Y146418D01*
X1048795Y146476D01*
X1048824Y146532D01*
X1048856Y146586D01*
X1048891Y146638D01*
X1048929Y146687D01*
X1048971Y146735D01*
X1049015Y146779D01*
X1049063Y146821D01*
X1049112Y146859D01*
X1049164Y146894D01*
X1049218Y146926D01*
X1049274Y146955D01*
X1049332Y146980D01*
X1049391Y147001D01*
X1049451Y147019D01*
X1049513Y147032D01*
X1049575Y147042D01*
X1049637Y147048D01*
X1049700Y147050D01*
X1049763Y147048D01*
X1049825Y147042D01*
X1049887Y147032D01*
X1049949Y147019D01*
X1050009Y147001D01*
X1050068Y146980D01*
X1050126Y146955D01*
X1050182Y146926D01*
X1050236Y146894D01*
X1050288Y146859D01*
X1050337Y146821D01*
X1050385Y146779D01*
X1050429Y146735D01*
X1050471Y146687D01*
X1050509Y146638D01*
X1050544Y146586D01*
X1050576Y146532D01*
X1050605Y146476D01*
X1050630Y146418D01*
X1050651Y146359D01*
X1050669Y146299D01*
X1050682Y146237D01*
X1050692Y146175D01*
X1050698Y146113D01*
X1050700Y146050D01*
X1050698Y145987D01*
X1050692Y145925D01*
X1050682Y145863D01*
X1050669Y145801D01*
X1050651Y145741D01*
X1050630Y145682D01*
X1050605Y145624D01*
X1050576Y145568D01*
X1050544Y145514D01*
X1050509Y145462D01*
X1050471Y145413D01*
X1050429Y145365D01*
X1050385Y145321D01*
X1050337Y145279D01*
X1050288Y145241D01*
X1050236Y145206D01*
X1050182Y145174D01*
X1050126Y145145D01*
X1050068Y145120D01*
X1050009Y145099D01*
X1049949Y145081D01*
X1049887Y145068D01*
X1049825Y145058D01*
X1049763Y145052D01*
X1049700Y145050D01*
X1049637Y145052D01*
X1049575Y145058D01*
X1049513Y145068D01*
X1049451Y145081D01*
X1049391Y145099D01*
X1049332Y145120D01*
X1049274Y145145D01*
X1049218Y145174D01*
X1049164Y145206D01*
X1049112Y145241D01*
X1049063Y145279D01*
X1049015Y145321D01*
X1048971Y145365D01*
X1048929Y145413D01*
X1048891Y145462D01*
X1048856Y145514D01*
X1048824Y145568D01*
X1048795Y145624D01*
X1048770Y145682D01*
X1048749Y145741D01*
X1048731Y145801D01*
X1048718Y145863D01*
X1048708Y145925D01*
X1048702Y145987D01*
X1048700Y146050D01*
M02*
