M48
;GenerationSoftware,Autodesk,EAGLE,9.7.0*%
;CreationDate,2026-01-27T17:21:00Z*%
FMAT,2
ICI,OFF
METRIC,TZ,000.000
T3C0.900
T2C1.000
T1C1.016
%
G90
M71
T1
X56871Y12141
X60960Y2540
X60960Y5080
X60960Y7620
X60960Y10160
X60960Y12700
X63500Y2540
X63500Y5080
X52349Y5639
X56871Y5639
X52349Y12141
X94615Y152
X94615Y2692
X97155Y5232
X97155Y7772
X97155Y152
X97155Y2692
X102870Y0
X105410Y0
X107950Y0
X110490Y0
X-3886Y12700
X-3886Y10160
X-3886Y7620
X-3886Y5080
T2
X48260Y7620
X43180Y7620
X45720Y12700
T3
X2540Y12700
X2540Y5080
X2540Y7620
X2540Y10160
X107950Y14605
X110450Y14605
M30