G04 EAGLE Gerber RS-274X export*
G75*
%MOMM*%
%FSLAX34Y34*%
%LPD*%
%INTop Copper*%
%IPPOS*%
%AMOC8*
5,1,8,0,0,1.08239X$1,22.5*%
G01*
G04 Define Apertures*
%ADD10C,1.408000*%
%ADD11P,2.08945X8X22.5*%
%ADD12C,1.524000*%
%ADD13C,1.676400*%
%ADD14C,1.778000*%
%ADD15R,1.408000X1.408000*%
%ADD16C,1.408000*%
%ADD17C,0.152400*%
G36*
X1131613Y-14418D02*
X1131316Y-14478D01*
X-64516Y-14478D01*
X-64791Y-14427D01*
X-65046Y-14263D01*
X-65218Y-14013D01*
X-65278Y-13716D01*
X-65278Y166116D01*
X-65227Y166391D01*
X-65063Y166646D01*
X-64813Y166818D01*
X-64516Y166878D01*
X623316Y166878D01*
X623591Y166827D01*
X623846Y166663D01*
X624018Y166413D01*
X624078Y166116D01*
X624078Y67677D01*
X625741Y63663D01*
X628361Y61043D01*
X628519Y60813D01*
X628584Y60517D01*
X628528Y60219D01*
X628361Y59966D01*
X623824Y55429D01*
X623824Y46171D01*
X630371Y39624D01*
X639629Y39624D01*
X644166Y44161D01*
X644396Y44319D01*
X644692Y44384D01*
X644991Y44328D01*
X645243Y44161D01*
X654213Y35191D01*
X658227Y33528D01*
X935109Y33528D01*
X935372Y33481D01*
X935631Y33322D01*
X935806Y33074D01*
X935871Y32778D01*
X935815Y32480D01*
X935648Y32227D01*
X934974Y31553D01*
X934974Y22295D01*
X941521Y15748D01*
X950779Y15748D01*
X957326Y22295D01*
X957326Y31553D01*
X955959Y32920D01*
X955803Y33145D01*
X955736Y33441D01*
X955789Y33740D01*
X955955Y33994D01*
X956206Y34163D01*
X958687Y35191D01*
X961759Y38263D01*
X963422Y42277D01*
X963422Y42807D01*
X963469Y43070D01*
X963628Y43329D01*
X963876Y43504D01*
X964172Y43569D01*
X964470Y43513D01*
X964723Y43346D01*
X966921Y41148D01*
X976179Y41148D01*
X982726Y47695D01*
X982726Y56953D01*
X976179Y63500D01*
X966921Y63500D01*
X964723Y61302D01*
X964503Y61149D01*
X964208Y61079D01*
X963909Y61130D01*
X963654Y61294D01*
X963482Y61544D01*
X963422Y61841D01*
X963422Y68207D01*
X963469Y68470D01*
X963628Y68729D01*
X963876Y68904D01*
X964172Y68969D01*
X964470Y68913D01*
X964723Y68746D01*
X966921Y66548D01*
X976179Y66548D01*
X979710Y70079D01*
X979941Y70237D01*
X980237Y70302D01*
X980535Y70247D01*
X980788Y70079D01*
X988091Y62776D01*
X988254Y62535D01*
X988314Y62237D01*
X988314Y-1396D01*
X988258Y-1682D01*
X988091Y-1935D01*
X982121Y-7905D01*
X981880Y-8068D01*
X981582Y-8128D01*
X980980Y-8128D01*
X980716Y-8081D01*
X980458Y-7922D01*
X980283Y-7674D01*
X980218Y-7378D01*
X980273Y-7080D01*
X980441Y-6827D01*
X983742Y-3526D01*
X983742Y762D01*
X959358Y762D01*
X959358Y-3526D01*
X962659Y-6827D01*
X962812Y-7047D01*
X962882Y-7342D01*
X962831Y-7641D01*
X962668Y-7896D01*
X962418Y-8068D01*
X962120Y-8128D01*
X954143Y-8128D01*
X953880Y-8081D01*
X953622Y-7922D01*
X953446Y-7674D01*
X953381Y-7378D01*
X953437Y-7080D01*
X953604Y-6827D01*
X957326Y-3105D01*
X957326Y6153D01*
X950779Y12700D01*
X941521Y12700D01*
X934974Y6153D01*
X934974Y-3105D01*
X938696Y-6827D01*
X938849Y-7047D01*
X938919Y-7342D01*
X938868Y-7641D01*
X938704Y-7896D01*
X938454Y-8068D01*
X938157Y-8128D01*
X917068Y-8128D01*
X916782Y-8072D01*
X916529Y-7905D01*
X906338Y2286D01*
X534663Y2286D01*
X534377Y2342D01*
X534124Y2509D01*
X407347Y129286D01*
X41272Y129286D01*
X40992Y129339D01*
X40737Y129505D01*
X40568Y129756D01*
X39700Y131851D01*
X37291Y134260D01*
X34144Y135564D01*
X16657Y135564D01*
X13509Y134260D01*
X11100Y131851D01*
X9796Y128704D01*
X9796Y125297D01*
X11100Y122149D01*
X13509Y119740D01*
X16657Y118436D01*
X34144Y118436D01*
X37291Y119740D01*
X39700Y122149D01*
X40568Y124244D01*
X40725Y124482D01*
X40975Y124654D01*
X41272Y124714D01*
X405137Y124714D01*
X405423Y124658D01*
X405676Y124491D01*
X532453Y-2286D01*
X904129Y-2286D01*
X904415Y-2342D01*
X904667Y-2509D01*
X914858Y-12700D01*
X983792Y-12700D01*
X992886Y-3606D01*
X992886Y64447D01*
X982949Y74384D01*
X982786Y74625D01*
X982726Y74923D01*
X982726Y82353D01*
X976179Y88900D01*
X966921Y88900D01*
X964723Y86702D01*
X964503Y86549D01*
X964208Y86479D01*
X963909Y86530D01*
X963654Y86694D01*
X963482Y86944D01*
X963422Y87241D01*
X963422Y166116D01*
X963473Y166391D01*
X963637Y166646D01*
X963887Y166818D01*
X964184Y166878D01*
X1131316Y166878D01*
X1131591Y166827D01*
X1131846Y166663D01*
X1132018Y166413D01*
X1132078Y166116D01*
X1132078Y-13716D01*
X1132027Y-13991D01*
X1131863Y-14246D01*
X1131613Y-14418D01*
G37*
%LPC*%
G36*
X1094920Y146812D02*
X1103738Y146812D01*
X1103738Y155630D01*
X1102594Y155630D01*
X1099073Y154172D01*
X1096378Y151477D01*
X1094920Y147956D01*
X1094920Y146812D01*
G37*
G36*
X1105262Y146812D02*
X1114080Y146812D01*
X1114080Y147956D01*
X1112622Y151477D01*
X1109927Y154172D01*
X1106406Y155630D01*
X1105262Y155630D01*
X1105262Y146812D01*
G37*
G36*
X-40933Y40386D02*
X-36791Y40386D01*
X-32963Y41971D01*
X-30033Y44901D01*
X-28448Y48729D01*
X-28448Y50553D01*
X-28392Y50839D01*
X-28225Y51092D01*
X-10414Y68903D01*
X-10414Y138437D01*
X-10358Y138723D01*
X-10191Y138976D01*
X724Y149891D01*
X965Y150054D01*
X1263Y150114D01*
X405137Y150114D01*
X405423Y150058D01*
X405676Y149891D01*
X462603Y92964D01*
X602115Y92964D01*
X602401Y92908D01*
X602654Y92741D01*
X604971Y90424D01*
X614229Y90424D01*
X620776Y96971D01*
X620776Y106229D01*
X614229Y112776D01*
X604971Y112776D01*
X598424Y106229D01*
X598424Y98298D01*
X598373Y98023D01*
X598209Y97768D01*
X597959Y97596D01*
X597662Y97536D01*
X464813Y97536D01*
X464527Y97592D01*
X464274Y97759D01*
X407347Y154686D01*
X-947Y154686D01*
X-14986Y140647D01*
X-14986Y71113D01*
X-15042Y70827D01*
X-15209Y70574D01*
X-29020Y56763D01*
X-29250Y56605D01*
X-29547Y56540D01*
X-29845Y56596D01*
X-30097Y56763D01*
X-32963Y59629D01*
X-36791Y61214D01*
X-40933Y61214D01*
X-44761Y59629D01*
X-47691Y56699D01*
X-49276Y52871D01*
X-49276Y48729D01*
X-47691Y44901D01*
X-44761Y41971D01*
X-40933Y40386D01*
G37*
G36*
X1071829Y137486D02*
X1087171Y137486D01*
X1088064Y138379D01*
X1088064Y153721D01*
X1087171Y154614D01*
X1071829Y154614D01*
X1070936Y153721D01*
X1070936Y138379D01*
X1071829Y137486D01*
G37*
G36*
X1105262Y136470D02*
X1106406Y136470D01*
X1109927Y137928D01*
X1112622Y140623D01*
X1114080Y144144D01*
X1114080Y145288D01*
X1105262Y145288D01*
X1105262Y136470D01*
G37*
G36*
X1102594Y136470D02*
X1103738Y136470D01*
X1103738Y145288D01*
X1094920Y145288D01*
X1094920Y144144D01*
X1096378Y140623D01*
X1099073Y137928D01*
X1102594Y136470D01*
G37*
G36*
X513334Y122174D02*
X522732Y122174D01*
X522732Y139192D01*
X521473Y139192D01*
X517739Y137645D01*
X514881Y134787D01*
X513334Y131053D01*
X513334Y122174D01*
G37*
G36*
X524256Y122174D02*
X533654Y122174D01*
X533654Y131053D01*
X532107Y134787D01*
X529249Y137645D01*
X525515Y139192D01*
X524256Y139192D01*
X524256Y122174D01*
G37*
G36*
X566887Y104648D02*
X570525Y104648D01*
X573886Y106040D01*
X576458Y108612D01*
X577850Y111973D01*
X577850Y118872D01*
X577901Y119147D01*
X578065Y119402D01*
X578315Y119574D01*
X578612Y119634D01*
X600845Y119634D01*
X601131Y119578D01*
X601384Y119411D01*
X604971Y115824D01*
X614229Y115824D01*
X620776Y122371D01*
X620776Y131629D01*
X614229Y138176D01*
X604971Y138176D01*
X598424Y131629D01*
X598424Y124968D01*
X598373Y124693D01*
X598209Y124438D01*
X597959Y124266D01*
X597662Y124206D01*
X578612Y124206D01*
X578337Y124257D01*
X578082Y124421D01*
X577910Y124671D01*
X577850Y124968D01*
X577850Y130851D01*
X576458Y134212D01*
X573886Y136784D01*
X570525Y138176D01*
X566887Y138176D01*
X563526Y136784D01*
X560954Y134212D01*
X559562Y130851D01*
X559562Y111973D01*
X560954Y108612D01*
X563526Y106040D01*
X566887Y104648D01*
G37*
G36*
X-40933Y116586D02*
X-36791Y116586D01*
X-32963Y118171D01*
X-30033Y121101D01*
X-28448Y124929D01*
X-28448Y129071D01*
X-30033Y132899D01*
X-32963Y135829D01*
X-36791Y137414D01*
X-40933Y137414D01*
X-44761Y135829D01*
X-47691Y132899D01*
X-49276Y129071D01*
X-49276Y124929D01*
X-47691Y121101D01*
X-44761Y118171D01*
X-40933Y116586D01*
G37*
G36*
X455230Y117094D02*
X459170Y117094D01*
X462811Y118602D01*
X465598Y121389D01*
X467106Y125030D01*
X467106Y128970D01*
X465598Y132611D01*
X462811Y135398D01*
X459170Y136906D01*
X455230Y136906D01*
X451589Y135398D01*
X448802Y132611D01*
X447294Y128970D01*
X447294Y125030D01*
X448802Y121389D01*
X451589Y118602D01*
X455230Y117094D01*
G37*
G36*
X524256Y103632D02*
X525515Y103632D01*
X529249Y105179D01*
X532107Y108037D01*
X533654Y111771D01*
X533654Y120650D01*
X524256Y120650D01*
X524256Y103632D01*
G37*
G36*
X521473Y103632D02*
X522732Y103632D01*
X522732Y120650D01*
X513334Y120650D01*
X513334Y111771D01*
X514881Y108037D01*
X517739Y105179D01*
X521473Y103632D01*
G37*
G36*
X-40933Y91186D02*
X-36791Y91186D01*
X-32963Y92771D01*
X-30033Y95701D01*
X-28448Y99529D01*
X-28448Y103671D01*
X-30033Y107499D01*
X-32963Y110429D01*
X-36791Y112014D01*
X-40933Y112014D01*
X-44761Y110429D01*
X-47691Y107499D01*
X-49276Y103671D01*
X-49276Y99529D01*
X-47691Y95701D01*
X-44761Y92771D01*
X-40933Y91186D01*
G37*
G36*
X16657Y93036D02*
X34144Y93036D01*
X37291Y94340D01*
X39700Y96749D01*
X41004Y99897D01*
X41004Y103304D01*
X39700Y106451D01*
X37291Y108860D01*
X34144Y110164D01*
X16657Y110164D01*
X13509Y108860D01*
X11100Y106451D01*
X9796Y103304D01*
X9796Y99897D01*
X11100Y96749D01*
X13509Y94340D01*
X16657Y93036D01*
G37*
G36*
X-50292Y76962D02*
X-39624Y76962D01*
X-39624Y87630D01*
X-41136Y87630D01*
X-45337Y85890D01*
X-48552Y82675D01*
X-50292Y78474D01*
X-50292Y76962D01*
G37*
G36*
X-38100Y76962D02*
X-27432Y76962D01*
X-27432Y78474D01*
X-29172Y82675D01*
X-32387Y85890D01*
X-36588Y87630D01*
X-38100Y87630D01*
X-38100Y76962D01*
G37*
G36*
X604971Y65024D02*
X614229Y65024D01*
X620776Y71571D01*
X620776Y80829D01*
X614229Y87376D01*
X604971Y87376D01*
X598424Y80829D01*
X598424Y71571D01*
X604971Y65024D01*
G37*
G36*
X471678Y76962D02*
X481838Y76962D01*
X481838Y87122D01*
X480427Y87122D01*
X476413Y85459D01*
X473341Y82387D01*
X471678Y78373D01*
X471678Y76962D01*
G37*
G36*
X483362Y76962D02*
X493522Y76962D01*
X493522Y78373D01*
X491859Y82387D01*
X488787Y85459D01*
X484773Y87122D01*
X483362Y87122D01*
X483362Y76962D01*
G37*
G36*
X429830Y66294D02*
X433770Y66294D01*
X437411Y67802D01*
X440198Y70589D01*
X441706Y74230D01*
X441706Y78170D01*
X440198Y81811D01*
X437411Y84598D01*
X433770Y86106D01*
X429830Y86106D01*
X426189Y84598D01*
X423402Y81811D01*
X421894Y78170D01*
X421894Y74230D01*
X423402Y70589D01*
X426189Y67802D01*
X429830Y66294D01*
G37*
G36*
X16657Y67636D02*
X34144Y67636D01*
X37291Y68940D01*
X39700Y71349D01*
X41004Y74497D01*
X41004Y77904D01*
X39700Y81051D01*
X37291Y83460D01*
X34144Y84764D01*
X16657Y84764D01*
X13509Y83460D01*
X11100Y81051D01*
X9796Y77904D01*
X9796Y74497D01*
X11100Y71349D01*
X13509Y68940D01*
X16657Y67636D01*
G37*
G36*
X483362Y65278D02*
X484773Y65278D01*
X488787Y66941D01*
X491859Y70013D01*
X493522Y74027D01*
X493522Y75438D01*
X483362Y75438D01*
X483362Y65278D01*
G37*
G36*
X480427Y65278D02*
X481838Y65278D01*
X481838Y75438D01*
X471678Y75438D01*
X471678Y74027D01*
X473341Y70013D01*
X476413Y66941D01*
X480427Y65278D01*
G37*
G36*
X-38100Y64770D02*
X-36588Y64770D01*
X-32387Y66510D01*
X-29172Y69725D01*
X-27432Y73926D01*
X-27432Y75438D01*
X-38100Y75438D01*
X-38100Y64770D01*
G37*
G36*
X-41136Y64770D02*
X-39624Y64770D01*
X-39624Y75438D01*
X-50292Y75438D01*
X-50292Y73926D01*
X-48552Y69725D01*
X-45337Y66510D01*
X-41136Y64770D01*
G37*
G36*
X566887Y39624D02*
X570525Y39624D01*
X573886Y41016D01*
X576458Y43588D01*
X577850Y46949D01*
X577850Y65827D01*
X576458Y69188D01*
X573886Y71760D01*
X570525Y73152D01*
X566887Y73152D01*
X563526Y71760D01*
X560954Y69188D01*
X559562Y65827D01*
X559562Y46949D01*
X560954Y43588D01*
X563526Y41016D01*
X566887Y39624D01*
G37*
G36*
X521675Y39624D02*
X525313Y39624D01*
X528674Y41016D01*
X531246Y43588D01*
X532638Y46949D01*
X532638Y65827D01*
X531246Y69188D01*
X528674Y71760D01*
X525313Y73152D01*
X521675Y73152D01*
X518314Y71760D01*
X515742Y69188D01*
X514350Y65827D01*
X514350Y46949D01*
X515742Y43588D01*
X518314Y41016D01*
X521675Y39624D01*
G37*
G36*
X604971Y39624D02*
X614229Y39624D01*
X620776Y46171D01*
X620776Y55429D01*
X614229Y61976D01*
X604971Y61976D01*
X598424Y55429D01*
X598424Y46171D01*
X604971Y39624D01*
G37*
G36*
X8780Y51562D02*
X24638Y51562D01*
X24638Y60380D01*
X16454Y60380D01*
X12933Y58922D01*
X10238Y56227D01*
X8780Y52706D01*
X8780Y51562D01*
G37*
G36*
X26162Y51562D02*
X42020Y51562D01*
X42020Y52706D01*
X40562Y56227D01*
X37867Y58922D01*
X34346Y60380D01*
X26162Y60380D01*
X26162Y51562D01*
G37*
G36*
X26162Y41220D02*
X34346Y41220D01*
X37867Y42678D01*
X40562Y45373D01*
X42020Y48894D01*
X42020Y50038D01*
X26162Y50038D01*
X26162Y41220D01*
G37*
G36*
X16454Y41220D02*
X24638Y41220D01*
X24638Y50038D01*
X8780Y50038D01*
X8780Y48894D01*
X10238Y45373D01*
X12933Y42678D01*
X16454Y41220D01*
G37*
G36*
X966921Y15748D02*
X976179Y15748D01*
X982726Y22295D01*
X982726Y31553D01*
X976179Y38100D01*
X966921Y38100D01*
X960374Y31553D01*
X960374Y22295D01*
X966921Y15748D01*
G37*
G36*
X597408Y26162D02*
X608838Y26162D01*
X608838Y37592D01*
X604550Y37592D01*
X597408Y30450D01*
X597408Y26162D01*
G37*
G36*
X610362Y26162D02*
X621792Y26162D01*
X621792Y30450D01*
X614650Y37592D01*
X610362Y37592D01*
X610362Y26162D01*
G37*
G36*
X630371Y14224D02*
X639629Y14224D01*
X646176Y20771D01*
X646176Y30029D01*
X639629Y36576D01*
X630371Y36576D01*
X623824Y30029D01*
X623824Y20771D01*
X630371Y14224D01*
G37*
G36*
X610362Y13208D02*
X614650Y13208D01*
X621792Y20350D01*
X621792Y24638D01*
X610362Y24638D01*
X610362Y13208D01*
G37*
G36*
X604550Y13208D02*
X608838Y13208D01*
X608838Y24638D01*
X597408Y24638D01*
X597408Y20350D01*
X604550Y13208D01*
G37*
G36*
X959358Y2286D02*
X970788Y2286D01*
X970788Y13716D01*
X966500Y13716D01*
X959358Y6574D01*
X959358Y2286D01*
G37*
G36*
X972312Y2286D02*
X983742Y2286D01*
X983742Y6574D01*
X976600Y13716D01*
X972312Y13716D01*
X972312Y2286D01*
G37*
G36*
X1042670Y762D02*
X1053338Y762D01*
X1053338Y11430D01*
X1051826Y11430D01*
X1047625Y9690D01*
X1044410Y6475D01*
X1042670Y2274D01*
X1042670Y762D01*
G37*
G36*
X1054862Y762D02*
X1065530Y762D01*
X1065530Y2274D01*
X1063790Y6475D01*
X1060575Y9690D01*
X1056374Y11430D01*
X1054862Y11430D01*
X1054862Y762D01*
G37*
G36*
X1102829Y-10414D02*
X1106971Y-10414D01*
X1110799Y-8829D01*
X1113729Y-5899D01*
X1115314Y-2071D01*
X1115314Y2071D01*
X1113729Y5899D01*
X1110799Y8829D01*
X1106971Y10414D01*
X1102829Y10414D01*
X1099001Y8829D01*
X1096071Y5899D01*
X1094486Y2071D01*
X1094486Y-2071D01*
X1096071Y-5899D01*
X1099001Y-8829D01*
X1102829Y-10414D01*
G37*
G36*
X1077429Y-10414D02*
X1081571Y-10414D01*
X1085399Y-8829D01*
X1088329Y-5899D01*
X1089914Y-2071D01*
X1089914Y2071D01*
X1088329Y5899D01*
X1085399Y8829D01*
X1081571Y10414D01*
X1077429Y10414D01*
X1073601Y8829D01*
X1070671Y5899D01*
X1069086Y2071D01*
X1069086Y-2071D01*
X1070671Y-5899D01*
X1073601Y-8829D01*
X1077429Y-10414D01*
G37*
G36*
X1026629Y-10414D02*
X1030771Y-10414D01*
X1034599Y-8829D01*
X1037529Y-5899D01*
X1039114Y-2071D01*
X1039114Y2071D01*
X1037529Y5899D01*
X1034599Y8829D01*
X1030771Y10414D01*
X1026629Y10414D01*
X1022801Y8829D01*
X1019871Y5899D01*
X1018286Y2071D01*
X1018286Y-2071D01*
X1019871Y-5899D01*
X1022801Y-8829D01*
X1026629Y-10414D01*
G37*
G36*
X1054862Y-11430D02*
X1056374Y-11430D01*
X1060575Y-9690D01*
X1063790Y-6475D01*
X1065530Y-2274D01*
X1065530Y-762D01*
X1054862Y-762D01*
X1054862Y-11430D01*
G37*
G36*
X1051826Y-11430D02*
X1053338Y-11430D01*
X1053338Y-762D01*
X1042670Y-762D01*
X1042670Y-2274D01*
X1044410Y-6475D01*
X1047625Y-9690D01*
X1051826Y-11430D01*
G37*
%LPD*%
D10*
X18360Y50800D02*
X32440Y50800D01*
X32440Y76200D02*
X18360Y76200D01*
X18360Y101600D02*
X32440Y101600D01*
X32440Y127000D02*
X18360Y127000D01*
D11*
X609600Y25400D03*
X609600Y50800D03*
X609600Y76200D03*
X609600Y101600D03*
X609600Y127000D03*
X635000Y25400D03*
X635000Y50800D03*
D12*
X523494Y48768D02*
X523494Y64008D01*
X568706Y64008D02*
X568706Y48768D01*
X523494Y113792D02*
X523494Y129032D01*
X568706Y129032D02*
X568706Y113792D01*
D13*
X431800Y76200D03*
X457200Y127000D03*
X482600Y76200D03*
D11*
X946150Y1524D03*
X946150Y26924D03*
X971550Y52324D03*
X971550Y77724D03*
X971550Y1524D03*
X971550Y26924D03*
D14*
X1028700Y0D03*
X1054100Y0D03*
X1079500Y0D03*
X1104900Y0D03*
X-38862Y127000D03*
X-38862Y101600D03*
X-38862Y76200D03*
X-38862Y50800D03*
D15*
X1079500Y146050D03*
D16*
X1104500Y146050D03*
D17*
X25400Y51816D02*
X25400Y50800D01*
X568706Y121412D02*
X569468Y121920D01*
X605028Y121920D01*
X609600Y126492D01*
X609600Y127000D01*
X406400Y127000D02*
X25400Y127000D01*
X406400Y127000D02*
X533400Y0D01*
X976376Y77724D02*
X990600Y63500D01*
X976376Y77724D02*
X971550Y77724D01*
X905391Y0D02*
X533400Y0D01*
X990600Y-2659D02*
X990600Y63500D01*
X915805Y-10414D02*
X905391Y0D01*
X982845Y-10414D02*
X990600Y-2659D01*
X982845Y-10414D02*
X915805Y-10414D01*
X609600Y101600D02*
X603250Y95250D01*
X463550Y95250D01*
X406400Y152400D01*
X0Y152400D01*
X-12700Y139700D01*
X-12700Y69850D01*
X-31750Y50800D01*
X-38862Y50800D01*
M02*
